<?xml version="1.0" encoding="utf-8"?>
<!-- Generator: Adobe Illustrator 16.0.4, SVG Export Plug-In . SVG Version: 6.00 Build 0)  -->
<!DOCTYPE svg PUBLIC "-//W3C//DTD SVG 1.1//EN" "http://www.w3.org/Graphics/SVG/1.1/DTD/svg11.dtd">
<svg version="1.1" id="Capa_1" xmlns="http://www.w3.org/2000/svg" xmlns:xlink="http://www.w3.org/1999/xlink" x="0px" y="0px"
	 width="16px" height="16px" viewBox="0 0 16 16" enable-background="new 0 0 16 16" xml:space="preserve">
<g>
	<path d="M5,4V2.5C5,2.224,4.776,2,4.5,2S4,2.224,4,2.5V4C3.448,4,3,4.448,3,5v1c0,0.552,0.448,1,1,1v6.5C4,13.775,4.224,14,4.5,14
		S5,13.775,5,13.5V7c0.552,0,1-0.448,1-1V5C6,4.448,5.552,4,5,4z M5,6H4V5h1V6z"/>
	<path d="M9,9V2.5C9,2.224,8.775,2,8.5,2C8.224,2,8,2.224,8,2.5V9c-0.552,0-1,0.448-1,1v1c0,0.552,0.448,1,1,1v1.5
		C8,13.775,8.224,14,8.5,14C8.775,14,9,13.775,9,13.5V12c0.552,0,1-0.448,1-1v-1C10,9.448,9.552,9,9,9z M9,11H8v-1h1V11z"/>
	<path d="M13,6V2.5C13,2.224,12.775,2,12.5,2S12,2.224,12,2.5V6c-0.552,0-1,0.448-1,1v1c0,0.552,0.448,1,1,1v4.5
		c0,0.275,0.225,0.5,0.5,0.5s0.5-0.225,0.5-0.5V9c0.552,0,1-0.448,1-1V7C14,6.448,13.552,6,13,6z M13,8h-1V7h1V8z"/>
</g>
</svg>
