<?xml version="1.0" encoding="utf-8"?>
<!-- Generator: Adobe Illustrator 16.0.4, SVG Export Plug-In . SVG Version: 6.00 Build 0)  -->
<!DOCTYPE svg PUBLIC "-//W3C//DTD SVG 1.1//EN" "http://www.w3.org/Graphics/SVG/1.1/DTD/svg11.dtd">
<svg version="1.1" id="Capa_1" xmlns="http://www.w3.org/2000/svg" xmlns:xlink="http://www.w3.org/1999/xlink" x="0px" y="0px"
	 width="16.574px" height="16.502px" viewBox="0 0 16.574 16.502" enable-background="new 0 0 16.574 16.502" xml:space="preserve">
<path d="M13.402,9.853L7.038,3.489C5.979,2.432,4.649,2.343,3.724,3.268c-0.925,0.924-0.837,2.256,0.22,3.314l5.724,5.724
	c0.195,0.195,0.512,0.195,0.707,0s0.195-0.512,0-0.707L4.651,5.875c-0.513-0.513-0.84-1.281-0.221-1.9
	c0.618-0.619,1.387-0.291,1.9,0.222l6.363,6.363c1.826,1.828,2.281,2.67,1.193,3.758c-1.1,1.099-2.266,0.826-4.021-0.928
	l-7.07-7.073C1.653,5.175,0.853,3.31,2.354,1.81c1.782-1.782,3.817-0.03,4.397,0.551l6.496,6.498c0.194,0.195,0.512,0.195,0.707,0
	c0.194-0.195,0.194-0.512,0-0.708L7.458,1.654C5.494-0.31,3.267-0.52,1.646,1.103C0.008,2.74,0.185,5.12,2.088,7.024l7.071,7.071
	c0.601,0.602,1.888,1.887,3.368,1.887c0.664,0,1.369-0.26,2.068-0.959C16.582,13.035,14.744,11.194,13.402,9.853z"/>
</svg>
