<?xml version="1.0" encoding="utf-8"?>
<!-- Generator: Adobe Illustrator 15.0.0, SVG Export Plug-In . SVG Version: 6.00 Build 0)  -->
<!DOCTYPE svg PUBLIC "-//W3C//DTD SVG 1.1//EN" "http://www.w3.org/Graphics/SVG/1.1/DTD/svg11.dtd">
<svg version="1.1" id="Layer_1" xmlns="http://www.w3.org/2000/svg" xmlns:xlink="http://www.w3.org/1999/xlink" x="0px" y="0px"
	 width="26px" height="26px" viewBox="0 0 26 26" enable-background="new 0 0 26 26" xml:space="preserve">
<rect fill="none" width="26" height="26"/>
<rect fill="none" width="26" height="26"/>
<g>
	<path fill="#000000" d="M17.921,17.719c0.073-0.176,0.032-0.381-0.103-0.516l-4.465-5.016c-0.184-0.184-0.484-0.184-0.668,0
		l-4.504,5.016c-0.091,0.09-0.139,0.211-0.139,0.334c0,0.061,0.012,0.123,0.036,0.182C8.152,17.895,8.324,18,8.516,18h2.473
		c0,4.186-0.719,6.462-5.488,7.846c7.986,0,9.551-4.619,9.551-7.846h2.434C17.676,18,17.848,17.895,17.921,17.719z"/>
</g>
<path fill="#000000" d="M23,0H3C1.344,0,0,1.343,0,3v16c0,1.656,1.344,3,3,3h5v-2H3c-0.551,0-1-0.449-1-1V7h22v12
	c0,0.551-0.449,1-1,1h-6v2h6c1.656,0,3-1.344,3-3V3C26,1.343,24.656,0,23,0z M4.078,4.359c0,0.397-0.321,0.719-0.719,0.719H2.641
	c-0.397,0-0.719-0.321-0.719-0.719V3.641c0-0.397,0.321-0.719,0.719-0.719h0.719c0.397,0,0.719,0.321,0.719,0.719V4.359z
	 M7.078,4.359c0,0.397-0.321,0.719-0.719,0.719H5.641c-0.397,0-0.719-0.321-0.719-0.719V3.641c0-0.397,0.321-0.719,0.719-0.719
	h0.719c0.397,0,0.719,0.321,0.719,0.719V4.359z M24,5H8V3h16V5z"/>
</svg>
