<?xml version="1.0" encoding="iso-8859-1"?>
<!-- Generator: Adobe Illustrator 18.0.0, SVG Export Plug-In . SVG Version: 6.00 Build 0)  -->
<!DOCTYPE svg PUBLIC "-//W3C//DTD SVG 1.1//EN" "http://www.w3.org/Graphics/SVG/1.1/DTD/svg11.dtd">
<svg version="1.1" id="Capa_1" xmlns="http://www.w3.org/2000/svg" xmlns:xlink="http://www.w3.org/1999/xlink" x="0px" y="0px"
	 viewBox="0 0 62.014 74.39" style="enable-background:new 0 0 62.014 74.39;" xml:space="preserve">
<g>
	<path d="M59.436,31.781h-9.328V19.594c0-5.672-1.781-10.359-5.39-14.062C41.108,1.828,36.562,0,31.03,0
		c-5.578,0-10.171,1.828-13.781,5.532c-3.609,3.703-5.437,8.39-5.437,14.062v12.187H2.578C1.125,31.781,0,32.906,0,34.359v37.453
		c0,1.453,1.125,2.578,2.578,2.578h56.858c1.36,0,2.578-1.125,2.578-2.578V34.359C62.014,32.906,60.796,31.781,59.436,31.781z
		 M17.015,19.594c0-4.219,1.312-7.688,3.891-10.359c2.624-2.72,6-4.078,10.124-4.078c4.079,0,7.395,1.37,9.985,4.078
		c2.566,2.683,3.89,6.14,3.89,10.359v12.187h-27.89V19.594z M56.811,69.187H5.203v-32.25h51.608V69.187z"/>
	<path d="M28.406,53.156v10.781c0,1.453,1.171,2.672,2.624,2.672c1.454,0,2.579-1.219,2.579-2.672V53.156
		c2.203-0.984,3.75-3,3.75-5.25c0-1.547-0.679-2.881-1.969-4.031c-1.288-1.148-2.719-1.735-4.36-1.735
		c-1.687,0-3.175,0.576-4.499,1.735c-1.301,1.138-1.969,2.484-1.969,4.031C24.562,50.109,26.202,52.172,28.406,53.156z"/>
</g>
<g>
</g>
<g>
</g>
<g>
</g>
<g>
</g>
<g>
</g>
<g>
</g>
<g>
</g>
<g>
</g>
<g>
</g>
<g>
</g>
<g>
</g>
<g>
</g>
<g>
</g>
<g>
</g>
<g>
</g>
</svg>
