<?xml version="1.0" encoding="utf-8"?>
<!-- Generator: Adobe Illustrator 16.0.0, SVG Export Plug-In . SVG Version: 6.00 Build 0)  -->
<!DOCTYPE svg PUBLIC "-//W3C//DTD SVG 1.1//EN" "http://www.w3.org/Graphics/SVG/1.1/DTD/svg11.dtd">
<svg version="1.1" xmlns="http://www.w3.org/2000/svg" xmlns:xlink="http://www.w3.org/1999/xlink" x="0px" y="0px" width="50px"
	 height="50px" viewBox="0 0 50 50" enable-background="new 0 0 50 50" xml:space="preserve">
<g id="_x31_">
</g>
<g id="_x32_">
</g>
<g id="Layer_3">
</g>
<g id="Layer_4">
</g>
<g id="Layer_5">
</g>
<g id="Layer_6">
</g>
<g id="Layer_7">
</g>
<g id="Layer_8">
</g>
<g id="Layer_9">
</g>
<g id="Layer_10">
</g>
<g id="Layer_11">
</g>
<g id="Layer_12">
</g>
<g id="Layer_13">
</g>
<g id="Layer_14">
</g>
<g id="Layer_15">
</g>
<g id="Layer_16">
</g>
<g id="Layer_17">
</g>
<g id="Layer_19">
</g>
<g id="Layer_20">
	<g>
		<polygon points="16.004,33.399 22.814,33.399 22.814,34.969 16.004,34.969 16.004,36.263 37.422,36.263 37.422,34.969 
			29.482,34.969 29.482,33.399 38.312,33.399 38.312,29.811 16.004,29.811 		"/>
		<polygon points="10.073,11.815 42.541,11.815 42.541,24.793 45.323,24.793 45.323,9.033 7.291,9.033 7.291,17.724 10.073,17.724 
					"/>
		<path d="M0.584,40.383h14.523V18.597H0.584V40.383z M8.152,39.289c-0.386,0-0.7-0.313-0.7-0.699s0.314-0.7,0.7-0.7
			c0.387,0,0.699,0.313,0.699,0.7S8.539,39.289,8.152,39.289z M2.684,20.697h10.325L13.008,36.77H2.684V20.697z"/>
		<path d="M39.299,25.63v15.337h10.117V25.63H39.299z M44.562,26.264c0.121,0,0.22,0.1,0.22,0.221s-0.099,0.221-0.22,0.221
			c-0.122,0-0.222-0.1-0.222-0.221S44.439,26.264,44.562,26.264z M43.249,27h2.623v0.212h-2.623V27z M44.475,40.305
			c-0.292,0-0.525-0.236-0.525-0.526s0.233-0.524,0.525-0.524c0.289,0,0.525,0.234,0.525,0.524S44.764,40.305,44.475,40.305z
			 M47.953,38.499c-2.368,0.013-6.016,0.022-7.189,0.012V27.966l7.189-0.001V38.499z"/>
	</g>
</g>
<g id="Layer_21">
</g>
<g id="Layer_22">
</g>
<g id="Layer_23">
</g>
<g id="Layer_24">
</g>
<g id="Layer_25">
</g>
<g id="Layer_26">
</g>
<g id="Layer_27">
</g>
<g id="Layer_28">
</g>
<g id="Layer_29">
</g>
<g id="Layer_30">
</g>
<g id="Layer_31">
</g>
<g id="Layer_32">
</g>
<g id="Layer_33">
</g>
<g id="Layer_34">
</g>
<g id="Layer_35">
</g>
<g id="Layer_36">
</g>
<g id="Layer_37">
</g>
<g id="Layer_38">
</g>
<g id="Layer_39">
</g>
<g id="Layer_40">
</g>
<g id="Layer_41">
</g>
<g id="Layer_42">
</g>
<g id="Layer_43">
</g>
<g id="Layer_44">
</g>
<g id="Layer_45">
</g>
<g id="Layer_46">
</g>
<g id="Layer_47">
</g>
<g id="Layer_48">
</g>
<g id="Layer_49">
</g>
<g id="Layer_50">
</g>
<g id="Layer_51">
</g>
<g id="Layer_52">
</g>
<g id="Layer_53">
</g>
<g id="Layer_57">
</g>
<g id="Layer_54">
</g>
<g id="Layer_55">
</g>
<g id="Layer_56">
</g>
<g id="Layer_59">
</g>
<g id="Layer_60">
</g>
<g id="Layer_61">
</g>
<g id="Layer_62">
</g>
<g id="Layer_63">
</g>
<g id="Layer_64">
</g>
<g id="Layer_65">
</g>
<g id="Layer_66">
</g>
<g id="Layer_67">
</g>
<g id="Layer_68">
</g>
<g id="Layer_69">
</g>
<g id="Layer_70">
</g>
<g id="Layer_71">
</g>
<g id="Layer_72">
</g>
<g id="Layer_73">
</g>
<g id="Layer_74">
</g>
<g id="Layer_75">
</g>
<g id="Layer_76">
</g>
<g id="Layer_77">
</g>
<g id="Layer_78">
</g>
<g id="Layer_79">
</g>
<g id="Layer_80">
</g>
<g id="Layer_81">
</g>
<g id="Layer_82">
</g>
<g id="Layer_83">
</g>
<g id="Layer_84">
</g>
<g id="Layer_85">
</g>
<g id="Layer_86">
</g>
<g id="Layer_87">
</g>
<g id="Layer_88">
</g>
<g id="Layer_89">
</g>
<g id="Layer_90">
</g>
<g id="Layer_91">
</g>
<g id="Layer_92">
</g>
<g id="Layer_93">
</g>
<g id="Layer_94">
</g>
<g id="Layer_95">
</g>
<g id="Layer_96">
</g>
<g id="Layer_97">
</g>
<g id="Layer_98">
</g>
<g id="Layer_99">
</g>
<g id="Layer_100">
</g>
<g id="Layer_101">
</g>
<g id="text">
</g>
</svg>
