<?xml version="1.0" encoding="utf-8"?>
<!-- Generator: Adobe Illustrator 16.0.4, SVG Export Plug-In . SVG Version: 6.00 Build 0)  -->
<!DOCTYPE svg PUBLIC "-//W3C//DTD SVG 1.1//EN" "http://www.w3.org/Graphics/SVG/1.1/DTD/svg11.dtd">
<svg version="1.1" id="Layer_1" xmlns="http://www.w3.org/2000/svg" xmlns:xlink="http://www.w3.org/1999/xlink" x="0px" y="0px"
	 width="26px" height="26px" viewBox="0 0 26 26" enable-background="new 0 0 26 26" xml:space="preserve">
<path fill="#333333" d="M5.096,0h15.808C23.707,0,26,2.293,26,5.094v15.813c0,2.8-2.293,5.093-5.096,5.093H5.096
	C2.293,26,0,23.707,0,20.906V5.094C0,2.293,2.293,0,5.096,0L5.096,0z M19.296,15.736c0-0.959-0.263-1.721-0.786-2.287
	s-1.222-0.938-2.093-1.123v-0.074c0.606-0.254,1.079-0.648,1.424-1.188c0.345-0.537,0.519-1.148,0.519-1.837
	c0-0.595-0.129-1.119-0.377-1.574c-0.248-0.452-0.627-0.818-1.131-1.091c-0.465-0.252-0.967-0.417-1.502-0.494
	c-0.533-0.08-1.317-0.12-2.353-0.12h-5.06v14.108h5.721c0.98,0,1.783-0.089,2.418-0.266c0.638-0.178,1.222-0.475,1.752-0.889
	c0.447-0.351,0.805-0.786,1.068-1.316C19.163,17.055,19.296,16.438,19.296,15.736L19.296,15.736z M14.759,9.939
	c0-0.229-0.059-0.461-0.176-0.702c-0.115-0.238-0.296-0.414-0.547-0.521c-0.234-0.104-0.507-0.158-0.826-0.169
	c-0.321-0.008-0.798-0.012-1.428-0.012h-0.246v2.985h0.447c0.604,0,1.029-0.007,1.272-0.02c0.243-0.014,0.497-0.078,0.757-0.196
	c0.279-0.132,0.479-0.318,0.584-0.551C14.704,10.519,14.759,10.247,14.759,9.939L14.759,9.939z M15.646,15.671
	c0-0.437-0.086-0.774-0.265-1.022c-0.177-0.25-0.442-0.433-0.798-0.558c-0.212-0.087-0.509-0.131-0.884-0.141
	c-0.375-0.011-0.88-0.015-1.509-0.015h-0.655v3.532h0.191c0.922,0,1.559-0.005,1.912-0.02c0.353-0.013,0.715-0.097,1.08-0.255
	c0.321-0.142,0.557-0.344,0.705-0.609C15.572,16.316,15.646,16.01,15.646,15.671z"/>
</svg>
