<?xml version="1.0" encoding="UTF-8"?>
<svg width="496px" height="496px" viewBox="0 0 496 496" version="1.1" xmlns="http://www.w3.org/2000/svg" xmlns:xlink="http://www.w3.org/1999/xlink">
    <!-- Generator: Sketch 50.2 (55047) - http://www.bohemiancoding.com/sketch -->
    <title>superhero</title>
    <desc>Created with Sketch.</desc>
    <defs></defs>
    <g id="Page-1" stroke="none" stroke-width="1" fill="none" fill-rule="evenodd">
        <g id="superhero" fill-rule="nonzero">
            <g id="Group" transform="translate(118.000000, 136.000000)" fill="#5FBA97">
                <path d="M98,206.832 L89.16,205.896 C33.192,199.984 6.792,183.432 5.688,182.736 L0.208,179.232 L68.488,0 L98,0 L98,206.832 Z" id="Shape"></path>
                <path d="M162,206.832 L162,0 L191.512,0 L259.784,179.232 L254.304,182.736 C253.2,183.432 226.8,199.976 170.832,205.896 L162,206.832 Z" id="Shape"></path>
            </g>
            <g id="Group" fill="#333333">
                <path d="M296,48 C296,21.528 274.472,0 248,0 C221.528,0 200,21.528 200,48 C200,74.472 221.528,96 248,96 C274.472,96 296,74.472 296,48 Z M248,80 C230.352,80 216,65.648 216,48 C216,30.352 230.352,16 248,16 C265.648,16 280,30.352 280,48 C280,65.648 265.648,80 248,80 Z" id="Shape"></path>
                <path d="M447.696,104.584 C436.424,84.648 415.04,72 392,72 C383.648,72 375.576,73.768 368,76.856 L368,52 C368,36.56 355.44,24 340,24 C324.56,24 312,36.56 312,52 L312,96 L248,96 L184,96 L184,52 C184,36.56 171.44,24 156,24 C140.56,24 128,36.56 128,52 L128,124 C128,139.44 140.56,152 156,152 L200,152 L200,356 C200,371.44 212.56,384 228,384 C235.832,384 242.912,380.776 248,375.576 C253.088,380.776 260.168,384 268,384 C283.44,384 296,371.44 296,356 L296,152 L340,152 C355.44,152 368,139.44 368,124 L368,94.608 C375.28,90.352 383.456,88 392,88 C410.44,88 427.464,98.816 435.368,115.552 L437.408,119.864 L442.176,120.12 C463.384,121.256 480,138.784 480,160 C480,182.056 462.056,200 440,200 L333.896,200 L339.992,216 L440,216 C470.872,216 496,190.872 496,160 C496,131.848 475.136,108.352 447.696,104.584 Z M340,40 C346.616,40 352,45.384 352,52 L352,64 L328,64 L328,52 C328,45.384 333.384,40 340,40 Z M252.688,112 L248,116.688 L243.312,112 L252.688,112 Z M156,40 C162.616,40 168,45.384 168,52 L168,64 L144,64 L144,52 C144,45.384 149.384,40 156,40 Z M280,227.472 L248,246.672 L216,227.472 L216,216 L280,216 L280,227.472 Z M228,368 C221.384,368 216,362.616 216,356 L216,246.128 L240,260.528 L240,356 C240,362.616 234.616,368 228,368 Z M268,368 C261.384,368 256,362.616 256,356 L256,260.528 L280,246.128 L280,356 C280,362.616 274.616,368 268,368 Z M340,136 L280,136 L280,200 L216,200 L216,136 L156,136 C149.384,136 144,130.616 144,124 L144,80 L168,80 L168,112 L208,112 C208,116.416 211.584,120 216,120 C219.44,120 222.312,117.8 223.44,114.76 L248,139.32 L272.56,114.76 C273.688,117.8 276.56,120 280,120 C284.416,120 288,116.416 288,112 L328,112 L328,80 L352,80 L352,124 C352,130.616 346.616,136 340,136 Z" id="Shape"></path>
                <path d="M167.696,384.584 C156.424,364.648 135.04,352 112,352 C89.168,352 67.992,364.4 56.632,384.008 C56.424,384 56.208,384 56,384 C25.128,384 0,409.128 0,440 C0,470.872 25.128,496 56,496 L160,496 C190.872,496 216,470.872 216,440 C216,411.848 195.136,388.352 167.696,384.584 Z M160,480 L56,480 C33.944,480 16,462.056 16,440 C16,417.944 33.944,400 56,400 C57.496,400 58.968,400.104 60.424,400.264 L66.128,400.896 L68.56,395.704 C76.44,378.872 93.496,368 112,368 C130.44,368 147.464,378.816 155.368,395.552 L157.408,399.864 L162.176,400.12 C183.384,401.256 200,418.784 200,440 C200,462.056 182.056,480 160,480 Z" id="Shape"></path>
            </g>
        </g>
    </g>
</svg>