<svg width="64px" height="64px" viewBox="0 0 54 64" version="1.1" xmlns="http://www.w3.org/2000/svg" xmlns:xlink="http://www.w3.org/1999/xlink">
    <title>copy</title>
    <desc>Created with Sketch.</desc>
    <defs></defs>
    <g id="Page-1" stroke="none" stroke-width="1">
        <g id="copy">
            <g id="Text-files">
                <path d="M48.9791489,9.1429005 L45.010849,9.1429005 C44.9281502,9.1429005 44.8546486,9.1713 44.7777481,9.1899004 L44.7777481,5.0228 C44.7777481,2.253 42.4731483,0 39.6398468,0 L5.2172508,0 C2.3839517,0 0.0793519,2.253 0.0793519,5.0228 L0.0793519,51.8660999 C0.0793519,54.6358982 2.3839517,56.8889003 5.2172518,56.8889003 L11.253952,56.8889003 L11.253952,59.1567989 C11.253952,61.8274002 13.4702511,64 16.1954517,64 L48.9791507,64 C51.7043514,64 53.9206485,61.8274002 53.9206485,59.1567993 L53.9206485,13.9861002 C53.9206467,11.3155003 51.7043495,9.1429005 48.9791489,9.1429005 L48.9791489,9.1429005 Z M2.1110516,51.8661003 L2.1110516,5.0228 C2.1110516,3.3740001 3.5049515,2.0318001 5.2172518,2.0318001 L39.6398478,2.0318001 C41.352151,2.0318001 42.746049,3.3740001 42.746049,5.0228 L42.746049,51.8660999 C42.746049,53.5148998 41.352151,54.8572002 39.6398478,54.8572002 L5.2172518,54.8572002 C3.5049515,54.8572006 2.1110516,53.5149002 2.1110516,51.8661003 L2.1110516,51.8661003 Z M51.8888474,59.1567993 C51.8888474,60.7074013 50.5833474,61.9682998 48.9791489,61.9682998 L16.1954499,61.9682998 C14.5912495,61.9682998 13.2856503,60.7074012 13.2856503,59.1567993 L13.2856503,56.8889007 L39.6398449,56.8889007 C42.4731464,56.8889007 44.7777462,54.6358985 44.7777462,51.8661003 L44.7777462,11.1275997 C44.8546467,11.1462002 44.9281483,11.1745996 45.0108471,11.1745996 L48.979147,11.1745996 C50.5833455,11.1745996 51.8888455,12.4355001 51.8888455,13.9861001 L51.8888455,59.1567993 L51.8888474,59.1567993 Z" id="Shape"></path>
                <path d="M11.253952,13.2063999 C10.6924515,13.2063999 10.2380514,13.6606998 10.2380514,14.2222004 C10.2380514,14.7838001 10.6924515,15.2381001 11.253952,15.2381001 L33.6031494,15.2381001 C34.1646499,15.2381001 34.6190491,14.7838002 34.6190491,14.2222004 C34.6190491,13.6606998 34.16465,13.2063999 33.6031494,13.2063999 L11.253952,13.2063999 Z" id="Shape"></path>
                <path d="M33.6031494,21.3334007 L11.253952,21.3334007 C10.6924515,21.3334007 10.2380514,21.7877006 10.2380514,22.3491993 C10.2380514,22.9106998 10.6924515,23.3651009 11.253952,23.3651009 L33.6031494,23.3651009 C34.1646499,23.3651009 34.6190491,22.9106999 34.6190491,22.3491993 C34.6190491,21.7877007 34.16465,21.3334007 33.6031494,21.3334007 L33.6031494,21.3334007 Z" id="Shape"></path>
                <path d="M11.253952,29.4603004 C10.6924515,29.4603004 10.2380514,29.9146995 10.2380514,30.4762001 C10.2380514,31.0377007 10.6924515,31.4920998 11.253952,31.4920998 L33.6031494,31.4920998 C34.1646499,31.4920998 34.6190491,31.0377007 34.6190491,30.4762001 C34.6190491,29.9146995 34.16465,29.4603004 33.6031494,29.4603004 L11.253952,29.4603004 Z" id="Shape"></path>
                <path d="M23.4444485,37.5872993 L11.253952,37.5872993 C10.6924515,37.5872993 10.2380514,38.0416984 10.2380514,38.603199 C10.2380514,39.1646996 10.6924515,39.6190987 11.253952,39.6190987 L23.4444484,39.6190987 C24.0059509,39.6190987 24.4602489,39.1646996 24.4602489,38.603199 C24.4602489,38.0416984 24.0059509,37.5872993 23.4444485,37.5872993 L23.4444485,37.5872993 Z" id="Shape"></path>
            </g>
        </g>
    </g>
</svg>