<svg xmlns="http://www.w3.org/2000/svg" xmlns:xlink="http://www.w3.org/1999/xlink" version="1.1" id="Capa_1" x="0px" y="0px" viewBox="0 0 512 512" style="enable-background:new 0 0 512 512;" xml:space="preserve" width="64px" height="64px">
<g>
	<g>
		<path d="M441.604,70.339C396.294,25.088,336.072,0.167,272.035,0.167c-2.155,0-4.147,0.35-5.845,1.784    c-1.681,1.42-2.671,3.543-2.671,5.744v232.107c0,4.15,3.364,7.515,7.515,7.515h233.452c4.095,0,7.521-3.43,7.515-7.526    C511.91,175.765,486.909,115.587,441.604,70.339z M278.548,232.288L278.548,232.288V15.29    c118.361,3.385,214.211,98.773,218.287,216.998H278.548z"/>
	</g>
</g>
<g>
	<g>
		<path d="M472.419,264.016H246.481V39.423c0-4.089-3.443-7.558-7.547-7.515c-33.223,0.14-65.368,6.946-95.542,20.226    c-29.153,12.83-55.122,31.078-77.185,54.234c-2.825,2.965-2.707,7.8,0.258,10.625s7.799,2.706,10.625-0.258    c40.892-42.922,95.461-67.479,154.361-69.643V271.53c0,4.15,3.365,7.515,7.515,7.515h225.829    c-3.801,120.726-103.195,217.758-224.827,217.758l-0.97-0.013C115.502,496.268,15.029,395.366,15.03,271.828l0.003-0.287    c0.062-44.251,12.961-87.053,37.303-123.778c2.293-3.46,1.348-8.122-2.112-10.415c-3.459-2.292-8.122-1.348-10.415,2.112    C13.835,178.648,0.071,224.313,0.003,271.545L0,271.864c0,63.917,24.841,124.055,69.948,169.338    c45.092,45.268,105.106,70.347,168.987,70.618l0.363,0.005c0.223,0.004,0.447,0.008,0.671,0.008    c64.098,0,124.359-24.961,169.683-70.285c45.325-45.324,70.285-105.585,70.285-169.683    C479.899,267.649,476.798,264.016,472.419,264.016z"/>
	</g>
</g>
<g>
	<g>
		<path d="M421.628,98.222c-2.936-2.935-7.693-2.935-10.628,0l-96.188,96.188c-2.735,2.735-2.918,7.255-0.399,10.196    c2.81,3.282,7.971,3.487,11.028,0.431l96.188-96.188C424.561,105.915,424.561,101.157,421.628,98.222z" />
	</g>
</g>
<g>
	<g>
		<path d="M408.297,160.146c-12.983,0-23.546,10.563-23.546,23.546s10.563,23.546,23.546,23.546    c12.983,0,23.546-10.563,23.546-23.546S421.281,160.146,408.297,160.146z M408.297,192.208c-4.696,0-8.517-3.82-8.517-8.517    s3.82-8.517,8.517-8.517c4.696,0,8.517,3.82,8.517,8.517S412.994,192.208,408.297,192.208z" />
	</g>
</g>
<g>
	<g>
		<path d="M328.141,96.021c-12.983,0-23.546,10.563-23.546,23.546s10.563,23.546,23.546,23.546    c12.983,0,23.546-10.563,23.546-23.546S341.124,96.021,328.141,96.021z M328.141,128.083c-4.696,0-8.517-3.82-8.517-8.517    s3.82-8.517,8.517-8.517c4.696,0,8.517,3.82,8.517,8.517S332.837,128.083,328.141,128.083z" />
	</g>
</g>
<g>
	<g>
		<path d="M139.773,220.263h-8.016c-9.116,0-16.532-7.416-16.532-16.532c0-9.116,7.417-16.532,16.532-16.532h32.063    c4.15,0,7.515-3.365,7.515-7.515c0-4.15-3.365-7.515-7.515-7.515h-16.532v-8.517c0-4.15-3.365-7.515-7.515-7.515    c-4.15,0-7.515,3.365-7.515,7.515v8.517h-0.501c-17.403,0-31.562,14.159-31.562,31.562s14.159,31.562,31.562,31.562h8.016    c9.116,0,16.532,7.417,16.532,16.532c0,9.116-7.417,16.532-16.532,16.532H107.71c-4.15,0-7.515,3.365-7.515,7.515    s3.365,7.515,7.515,7.515h24.548v8.517c0,4.15,3.365,7.515,7.515,7.515c4.15,0,7.515-3.365,7.515-7.515v-9.427    c13.786-3.381,24.047-15.837,24.047-30.651C171.335,234.422,157.176,220.263,139.773,220.263z" />
	</g>
</g>
<g>
	<g>
		<path d="M272.601,388.592h-8.016c-9.116,0-16.532-7.417-16.532-16.532s7.417-16.532,16.532-16.532h32.063    c4.151,0,7.515-3.365,7.515-7.515c0-4.15-3.364-7.515-7.515-7.515h-16.532v-8.517c0-4.15-3.364-7.515-7.515-7.515    s-7.515,3.365-7.515,7.515v8.517h-0.501c-17.403,0-31.562,14.159-31.562,31.562c0,17.403,14.159,31.562,31.562,31.562h8.016    c9.116,0,16.532,7.417,16.532,16.532s-7.417,16.532-16.532,16.532h-32.063c-4.151,0-7.515,3.365-7.515,7.515    c0,4.15,3.364,7.515,7.515,7.515h24.548v8.517c0,4.15,3.364,7.515,7.515,7.515s7.515-3.365,7.515-7.515v-9.427    c13.786-3.381,24.047-15.837,24.047-30.651C304.163,402.751,290.004,388.592,272.601,388.592z" />
	</g>
</g>
<g>
</g>
<g>
</g>
<g>
</g>
<g>
</g>
<g>
</g>
<g>
</g>
<g>
</g>
<g>
</g>
<g>
</g>
<g>
</g>
<g>
</g>
<g>
</g>
<g>
</g>
<g>
</g>
<g>
</g>
</svg>
