<?xml version="1.0" encoding="UTF-8"?>
<svg width="470px" height="470px" viewBox="0 0 470 470" version="1.1" xmlns="http://www.w3.org/2000/svg" xmlns:xlink="http://www.w3.org/1999/xlink">
    <!-- Generator: Sketch 40 (33762) - http://www.bohemiancoding.com/sketch -->
    <title>donate</title>
    <desc>Created with Sketch.</desc>
    <defs></defs>
    <g id="Page-1" stroke="none" stroke-width="1" fill="none" fill-rule="evenodd">
        <g id="donate" fill="#FFFFFF">
            <g id="Group">
                <path d="M166.826,351.482 C169.211,356.391 170.666,361.829 170.666,367.642 C170.666,386.382 156.712,401.788 138.666,404.4 L138.666,415.595 C138.666,421.485 133.895,426.251 127.999,426.251 C122.103,426.251 117.332,421.485 117.332,415.595 L117.332,404.939 L96,404.939 C90.104,404.939 85.333,400.173 85.333,394.283 C85.333,388.393 90.104,383.625 96,383.625 L133.333,383.625 C142.146,383.625 149.333,376.455 149.333,367.641 C149.333,358.827 142.145,351.657 133.333,351.657 L122.666,351.657 C102.083,351.657 85.333,334.923 85.333,314.36 C85.333,300.586 92.907,288.661 104.069,282.246 C111.216,256.728 136.01,232.223 157.878,217.216 C148.121,214.877 138.097,213.584 128,213.584 C57.417,213.584 -1.42108547e-14,270.945 -1.42108547e-14,341.459 C-1.42108547e-14,411.973 57.417,469.334 128,469.334 C198.583,469.334 256,411.973 256,341.459 C256,333.339 255.086,325.339 253.556,317.453 C249.823,319.674 246.039,322.037 242.187,324.694 C230.513,332.736 199.861,351.372 166.826,351.482 Z" id="Shape"></path>
                <path d="M377.146,0.708 C373.667,-0.624 369.708,-0.062 366.75,2.269 C366.375,2.571 327.021,33.155 295.458,43.125 C287.958,45.487 277.395,48.432 265.27,51.825 C207.374,67.997 158.124,82.711 141.791,99.029 C138.083,102.723 126.791,113.994 114.02,179.284 C113.395,182.448 114.228,185.715 116.312,188.182 C118.375,190.648 121.02,192.012 124.666,191.991 L127.999,191.814 C149.041,191.814 169.416,196.133 188.562,204.645 C191.187,205.8 194.208,205.852 196.916,204.78 C199.604,203.687 201.729,201.554 202.791,198.859 L210.604,179.357 C216.417,177.702 225.771,174.903 233.083,172.093 C235.375,173.383 237.916,174.497 240.646,175.683 C245.042,177.619 249.875,179.731 253.625,182.687 C242.333,198.505 212.312,214.749 188,224.563 C168.5,232.43 129.292,263.452 123.792,290.498 C121.709,300.686 124.25,309.698 131.125,316.566 C140.042,325.484 152.292,330.188 166.542,330.188 C193.688,330.188 220,314.079 230.063,307.148 C253.73,290.831 281.709,278.728 299.688,277.011 C302.667,276.73 305.501,276.605 308.292,276.47 C323.688,275.752 339.625,275.013 368.938,253.711 C384.688,242.274 393.751,227.341 403.355,211.544 C416.522,189.815 430.168,167.358 464.022,147.752 C467.314,145.848 469.335,142.33 469.335,138.532 C469.333,37.131 378.063,1.062 377.146,0.708 L377.146,0.708 Z" id="Shape"></path>
            </g>
        </g>
    </g>
</svg>