<?xml version="1.0" encoding="iso-8859-1"?>
<!-- Generator: Adobe Illustrator 19.0.0, SVG Export Plug-In . SVG Version: 6.00 Build 0)  -->
<svg version="1.1" id="Capa_1" xmlns="http://www.w3.org/2000/svg" xmlns:xlink="http://www.w3.org/1999/xlink" x="0px" y="0px"
	 viewBox="0 0 469.333 469.333" style="enable-background:new 0 0 469.333 469.333;" xml:space="preserve">
<g>
	<g>
		<g>
			<path d="M242.187,324.694c-11.674,8.042-42.326,26.678-75.361,26.788c2.385,4.909,3.84,10.347,3.84,16.16
				c0,18.74-13.954,34.146-32,36.758v11.195c0,5.89-4.771,10.656-10.667,10.656c-5.896,0-10.667-4.766-10.667-10.656v-10.656H96
				c-5.896,0-10.667-4.766-10.667-10.656S90.104,383.625,96,383.625h37.333c8.813,0,16-7.17,16-15.984s-7.188-15.984-16-15.984
				h-10.667c-20.583,0-37.333-16.734-37.333-37.297c0-13.774,7.574-25.699,18.736-32.114c7.147-25.518,31.941-50.023,53.809-65.03
				c-9.757-2.339-19.781-3.632-29.878-3.632c-70.583,0-128,57.361-128,127.875s57.417,127.875,128,127.875s128-57.361,128-127.875
				c0-8.12-0.914-16.12-2.444-24.006C249.823,319.674,246.039,322.037,242.187,324.694z"/>
			<path d="M377.146,0.708c-3.479-1.332-7.438-0.77-10.396,1.561c-0.375,0.302-39.729,30.886-71.292,40.856
				c-7.5,2.362-18.063,5.307-30.188,8.7c-57.896,16.172-107.146,30.886-123.479,47.204c-3.708,3.694-15,14.965-27.771,80.255
				c-0.625,3.164,0.208,6.431,2.292,8.898c2.063,2.466,4.708,3.83,8.354,3.809l3.333-0.177c21.042,0,41.417,4.319,60.563,12.831
				c2.625,1.155,5.646,1.207,8.354,0.135c2.688-1.093,4.813-3.226,5.875-5.921l7.813-19.502c5.813-1.655,15.167-4.454,22.479-7.264
				c2.292,1.29,4.833,2.404,7.563,3.59c4.396,1.936,9.229,4.048,12.979,7.004c-11.292,15.818-41.313,32.062-65.625,41.876
				c-19.5,7.867-58.708,38.889-64.208,65.935c-2.083,10.188,0.458,19.2,7.333,26.068c8.917,8.918,21.167,13.622,35.417,13.622
				c27.146,0,53.458-16.109,63.521-23.04c23.667-16.317,51.646-28.42,69.625-30.137c2.979-0.281,5.813-0.406,8.604-0.541
				c15.396-0.718,31.333-1.457,60.646-22.759c15.75-11.437,24.813-26.37,34.417-42.167c13.167-21.729,26.813-44.186,60.667-63.792
				c3.292-1.904,5.313-5.422,5.313-9.22C469.333,37.131,378.063,1.062,377.146,0.708z"/>
		</g>
	</g>
</g>
<g>
</g>
<g>
</g>
<g>
</g>
<g>
</g>
<g>
</g>
<g>
</g>
<g>
</g>
<g>
</g>
<g>
</g>
<g>
</g>
<g>
</g>
<g>
</g>
<g>
</g>
<g>
</g>
<g>
</g>
</svg>
