<?xml version="1.0" encoding="UTF-8"?>
<svg width="59px" height="46px" viewBox="0 0 59 46" version="1.1" xmlns="http://www.w3.org/2000/svg" xmlns:xlink="http://www.w3.org/1999/xlink">
    <!-- Generator: Sketch 40 (33762) - http://www.bohemiancoding.com/sketch -->
    <title>get-money-white</title>
    <desc>Created with Sketch.</desc>
    <defs></defs>
    <g id="Page-1" stroke="none" stroke-width="1" fill="none" fill-rule="evenodd">
        <g id="get-money-white" fill="#54667A">
            <g id="Page-1">
                <g id="get-money">
                    <path d="M33.367,10.192 C32.493,9.553 31.548,9.237 30.657,8.982 C29.987,8.794 29.338,8.65 28.762,8.499 C28.33,8.386 27.94,8.27 27.62,8.145 C27.136,7.959 26.846,7.756 26.719,7.605 C26.652,7.527 26.612,7.459 26.574,7.356 C26.538,7.254 26.507,7.108 26.507,6.881 C26.507,6.715 26.539,6.515 26.61,6.327 C26.722,6.042 26.896,5.788 27.227,5.57 C27.559,5.356 28.089,5.154 28.996,5.152 C30.294,5.15 31.085,5.461 31.475,5.769 C31.675,5.925 31.79,6.079 31.874,6.249 C31.955,6.421 32.004,6.62 32.005,6.882 L35.237,6.882 C35.238,6.188 35.094,5.491 34.79,4.855 C34.336,3.897 33.522,3.12 32.522,2.638 C32.017,2.392 31.465,2.213 30.872,2.094 L30.872,0.32 L27.64,0.32 L27.64,2.032 C27.229,2.104 26.842,2.208 26.481,2.346 C25.373,2.763 24.525,3.502 24.01,4.332 C23.49,5.163 23.276,6.056 23.274,6.88 C23.27,7.72 23.478,8.53 23.887,9.189 C24.241,9.768 24.72,10.209 25.215,10.534 C26.088,11.101 27.006,11.372 27.876,11.607 C28.53,11.779 29.164,11.921 29.725,12.077 C30.145,12.193 30.523,12.317 30.832,12.451 C31.301,12.653 31.581,12.867 31.733,13.065 C31.811,13.167 31.869,13.272 31.919,13.422 C31.967,13.571 32.004,13.772 32.004,14.053 C32.001,14.462 31.926,14.698 31.836,14.866 C31.767,14.993 31.685,15.092 31.557,15.196 C31.368,15.349 31.057,15.506 30.615,15.615 C30.175,15.725 29.618,15.786 28.995,15.785 C28.009,15.784 27.379,15.512 27.025,15.21 C26.845,15.057 26.724,14.894 26.638,14.71 C26.555,14.525 26.505,14.314 26.504,14.053 L23.272,14.053 C23.271,14.747 23.415,15.433 23.699,16.055 C24.124,16.991 24.87,17.764 25.793,18.264 C26.351,18.569 26.975,18.768 27.638,18.888 L27.638,20.648 L30.87,20.648 L30.87,18.849 C30.959,18.833 31.049,18.828 31.136,18.809 C31.657,18.698 32.166,18.536 32.652,18.299 C33.377,17.947 34.059,17.402 34.53,16.654 C35.004,15.909 35.238,15.001 35.235,14.052 C35.238,13.174 35.044,12.347 34.659,11.652 C34.328,11.042 33.863,10.555 33.367,10.192 L33.367,10.192 L33.367,10.192 Z" id="Shape"></path>
                    <path d="M52.545,22.896 L51.132,23.758 C50.529,22.387 49.162,21.425 47.567,21.425 C46.935,21.425 46.35,21.59 45.822,21.856 L43.593,23.118 C42.951,21.852 41.64,20.982 40.123,20.982 C39.492,20.982 38.905,21.147 38.378,21.413 L32.086,25.259 C32.289,25.324 32.497,25.389 32.678,25.445 C33.661,25.745 34.634,26.159 35.512,26.755 C36.385,27.35 37.178,28.144 37.676,29.188 C38.007,29.88 38.193,30.675 38.191,31.508 C38.192,33.155 37.518,34.66 36.438,35.737 C35.361,36.817 33.856,37.49 32.209,37.49 L28.979,37.18 L18.903,35.888 L19.315,32.682 L29.344,33.968 L32.249,34.253 C32.994,34.241 33.659,33.943 34.152,33.451 C34.652,32.948 34.957,32.271 34.957,31.507 C34.956,31.133 34.884,30.846 34.756,30.575 C34.627,30.306 34.434,30.048 34.16,29.795 C33.617,29.289 32.735,28.836 31.738,28.536 C30.336,28.111 28.407,27.454 26.35,26.749 C24.296,26.046 22.118,25.296 20.267,24.697 C19.035,24.298 17.942,23.965 17.158,23.764 C16.713,23.648 15.12,23.675 14.718,23.733 C13.91,23.851 12.873,24.016 11.762,24.199 C11.437,24.253 11.105,24.309 10.771,24.364 C10.018,21.833 7.956,20 5.539,20 L0,20 L0,45.86 L5.539,45.86 C7.745,45.86 9.654,44.332 10.544,42.142 C16.862,43.491 27.76,45.752 29.853,45.752 C33.581,45.752 51.506,32.999 56.623,29.476 C57.599,28.806 58.18,27.635 58.18,26.361 C58.183,24.21 56.44,22.465 54.29,22.465 C53.659,22.465 53.073,22.631 52.545,22.896 L52.545,22.896 Z" id="Shape"></path>
                </g>
            </g>
        </g>
    </g>
</svg>