<?xml version="1.0" encoding="iso-8859-1"?>
<!-- Generator: Adobe Illustrator 19.0.0, SVG Export Plug-In . SVG Version: 6.00 Build 0)  -->
<svg version="1.1" id="Capa_1" xmlns="http://www.w3.org/2000/svg" xmlns:xlink="http://www.w3.org/1999/xlink" x="0px" y="0px"
	 viewBox="0 0 58.18 58.18" style="enable-background:new 0 0 58.18 58.18;" xml:space="preserve">
<g>
	<g>
		<path d="M33.367,16.192c-0.874-0.639-1.819-0.955-2.71-1.21c-0.67-0.188-1.319-0.332-1.895-0.483
			c-0.432-0.113-0.822-0.229-1.142-0.354c-0.484-0.186-0.774-0.389-0.901-0.54c-0.067-0.078-0.107-0.146-0.145-0.249
			c-0.036-0.102-0.067-0.248-0.067-0.475c0-0.166,0.032-0.366,0.103-0.554c0.112-0.285,0.286-0.539,0.617-0.757
			c0.332-0.214,0.862-0.416,1.769-0.418c1.298-0.002,2.089,0.309,2.479,0.617c0.2,0.156,0.315,0.31,0.399,0.48
			c0.081,0.172,0.13,0.371,0.131,0.633h3.232c0.001-0.694-0.143-1.391-0.447-2.027c-0.454-0.958-1.268-1.735-2.268-2.217
			c-0.505-0.246-1.057-0.425-1.65-0.544V6.32H27.64v1.712c-0.411,0.072-0.798,0.176-1.159,0.314
			c-1.108,0.417-1.956,1.156-2.471,1.986c-0.52,0.831-0.734,1.724-0.736,2.548c-0.004,0.84,0.204,1.65,0.613,2.309
			c0.354,0.579,0.833,1.02,1.328,1.345c0.873,0.567,1.791,0.838,2.661,1.073c0.654,0.172,1.288,0.314,1.849,0.47
			c0.42,0.116,0.798,0.24,1.107,0.374c0.469,0.202,0.749,0.416,0.901,0.614c0.078,0.102,0.136,0.207,0.186,0.357
			c0.048,0.149,0.085,0.35,0.085,0.631c-0.003,0.409-0.078,0.645-0.168,0.813c-0.069,0.127-0.151,0.226-0.279,0.33
			c-0.189,0.153-0.5,0.31-0.942,0.419c-0.44,0.11-0.997,0.171-1.62,0.17c-0.986-0.001-1.616-0.273-1.97-0.575
			c-0.18-0.153-0.301-0.316-0.387-0.5c-0.083-0.185-0.133-0.396-0.134-0.657h-3.232c-0.001,0.694,0.143,1.38,0.427,2.002
			c0.425,0.936,1.171,1.709,2.094,2.209c0.558,0.305,1.182,0.504,1.845,0.624v1.76h3.232v-1.799c0.089-0.016,0.179-0.021,0.266-0.04
			c0.521-0.111,1.03-0.273,1.516-0.51c0.725-0.352,1.407-0.897,1.878-1.645c0.474-0.745,0.708-1.653,0.705-2.602
			c0.003-0.878-0.191-1.705-0.576-2.4C34.328,17.042,33.863,16.555,33.367,16.192z"/>
	</g>
</g>
<g>
	<g>
		<path d="M54.29,28.465c-0.631,0-1.217,0.166-1.745,0.431l-1.413,0.862c-0.603-1.371-1.97-2.333-3.565-2.333
			c-0.632,0-1.217,0.165-1.745,0.431l-2.229,1.262c-0.642-1.266-1.953-2.136-3.47-2.136c-0.631,0-1.218,0.165-1.745,0.431
			l-6.292,3.846c0.203,0.065,0.411,0.13,0.592,0.186c0.983,0.3,1.956,0.714,2.834,1.31c0.873,0.595,1.666,1.389,2.164,2.433
			c0.331,0.692,0.517,1.487,0.515,2.32c0.001,1.647-0.673,3.152-1.753,4.229c-1.077,1.08-2.582,1.753-4.229,1.753h-0.08l-3.15-0.31
			l-10.076-1.292h0.001l0.411-3.206l10.029,1.286l2.905,0.285c0.745-0.012,1.41-0.31,1.903-0.802c0.5-0.503,0.805-1.18,0.805-1.944
			c-0.001-0.374-0.073-0.661-0.201-0.932c-0.129-0.269-0.322-0.527-0.596-0.78c-0.543-0.506-1.425-0.959-2.422-1.259
			c-1.402-0.425-3.331-1.082-5.388-1.787c-2.054-0.703-4.232-1.453-6.083-2.052c-1.232-0.399-2.325-0.732-3.109-0.933
			c-0.445-0.116-2.038-0.089-2.44-0.031c-0.808,0.118-1.845,0.283-2.956,0.466c-0.325,0.054-0.657,0.11-0.991,0.165
			C10.018,27.833,7.956,26,5.539,26C5.445,26,0,26,0,26v25.86c0,0,5.446,0,5.539,0c2.206,0,4.115-1.528,5.005-3.718
			c6.318,1.349,17.216,3.61,19.309,3.61c3.728,0,21.653-12.753,26.77-16.276c0.976-0.67,1.557-1.841,1.557-3.115
			C58.183,30.21,56.44,28.465,54.29,28.465z"/>
	</g>
</g>
<g>
</g>
<g>
</g>
<g>
</g>
<g>
</g>
<g>
</g>
<g>
</g>
<g>
</g>
<g>
</g>
<g>
</g>
<g>
</g>
<g>
</g>
<g>
</g>
<g>
</g>
<g>
</g>
<g>
</g>
</svg>
