<?xml version="1.0" encoding="UTF-8"?>
<svg width="462px" height="386px" viewBox="0 0 462 386" version="1.1" xmlns="http://www.w3.org/2000/svg" xmlns:xlink="http://www.w3.org/1999/xlink">
    <!-- Generator: Sketch 40 (33762) - http://www.bohemiancoding.com/sketch -->
    <title>group (1)</title>
    <desc>Created with Sketch.</desc>
    <defs>
        <linearGradient x1="100%" y1="50%" x2="0%" y2="50%" id="linearGradient-1">
            <stop stop-color="#5ABC9F" offset="0%"></stop>
            <stop stop-color="#3EBFC6" offset="100%"></stop>
        </linearGradient>
    </defs>
    <g id="Page-1" stroke="none" stroke-width="1" fill="none" fill-rule="evenodd">
        <g id="group-(1)">
            <g id="Group">
                <g id="XMLID_29_" transform="translate(87.000000, 20.000000)">
                    <path d="M143.797,365.295 C88.724,365.295 38.522,344.405 0.705,310.11 C0.705,252.948 34.082,203.711 82.364,180.732 C100.509,198.83 121.755,208.582 143.798,208.582 C165.85,208.582 187.086,198.83 205.241,180.732 C253.521,203.711 286.88,252.947 286.88,309.988 C249.062,344.405 198.861,365.295 143.797,365.295 Z" id="Shape" fill="url(#linearGradient-1)"></path>
                    <path d="M143.797,0.571 C187.507,0.571 222.945,36 222.945,79.71 C222.945,123.429 187.507,183.214 143.797,183.214 C100.087,183.214 64.649,123.429 64.649,79.71 C64.649,36 100.087,0.571 143.797,0.571 L143.797,0.571 Z" id="Shape" fill="#464655"></path>
                </g>
                <g>
                    <g id="XMLID_27_">
                        <g id="Group">
                            <path d="M171.626,185.131 L163.729,188.887 C137.443,201.393 115.204,220.962 99.401,245.477 C86.548,265.421 78.492,287.904 75.691,311.342 C47.129,303.557 21.311,289.122 0,269.796 C0,219.988 29.087,177.084 71.157,157.055 C86.97,172.83 105.48,181.327 124.684,181.327 C137.265,181.327 149.555,177.683 160.975,170.732 C161.977,172.307 163.026,173.862 164.094,175.389 C166.52,178.846 169.031,182.087 171.626,185.131 Z" id="Shape" fill="#40C0C6"></path>
                            <path d="M138.539,99.707 C138.539,116.138 142.811,134.218 150.417,151.211 C142.464,156.251 133.78,159.22 124.684,159.22 C86.595,159.22 55.719,107.126 55.719,69.027 C55.719,30.938 86.595,0.071 124.684,0.071 C145.808,0.071 164.722,9.57 177.368,24.53 C153.883,41.28 138.539,68.737 138.539,99.707 L138.539,99.707 Z" id="Shape" fill="#464655"></path>
                        </g>
                    </g>
                    <g id="XMLID_22_" transform="translate(283.000000, 0.000000)">
                        <g id="Group">
                            <path d="M6.741,185.131 L14.638,188.887 C40.924,201.393 63.163,220.962 78.966,245.477 C91.819,265.421 99.875,287.904 102.676,311.342 C131.238,303.557 157.056,289.122 178.367,269.796 C178.367,219.988 149.28,177.084 107.21,157.055 C91.397,172.83 72.887,181.327 53.683,181.327 C41.102,181.327 28.812,177.683 17.392,170.732 C16.39,172.307 15.341,173.862 14.273,175.389 C11.847,178.846 9.336,182.087 6.741,185.131 Z" id="Shape" fill="#5ABCA0"></path>
                            <path d="M27.95,151.211 C35.903,156.251 44.587,159.22 53.683,159.22 C91.772,159.22 122.648,107.126 122.648,69.027 C122.648,30.938 91.772,0.071 53.683,0.071 C32.559,0.071 13.645,9.57 0.999,24.53 C24.484,41.28 39.828,68.737 39.828,99.707 C39.828,116.138 35.556,134.218 27.95,151.211 Z" id="Shape" fill="#464655"></path>
                        </g>
                    </g>
                </g>
            </g>
        </g>
    </g>
</svg>