<?xml version="1.0" encoding="UTF-8"?>
<svg width="254px" height="292px" viewBox="0 0 254 292" version="1.1" xmlns="http://www.w3.org/2000/svg" xmlns:xlink="http://www.w3.org/1999/xlink">
    <!-- Generator: Sketch 50.2 (55047) - http://www.bohemiancoding.com/sketch -->
    <title>guarantee (1)</title>
    <desc>Created with Sketch.</desc>
    <defs></defs>
    <g id="Page-1" stroke="none" stroke-width="1" fill="none" fill-rule="evenodd">
        <g id="guarantee-(1)" fill-rule="nonzero">
            <circle id="Oval" fill="#5FBA97" cx="145.57" cy="126.923" r="65.625"></circle>
            <path d="M242.934,19.111 C210.028,19.111 177.858,12.914 147.314,0.699 L145.57,0 L143.831,0.698 C113.283,12.914 81.112,19.11 48.206,19.11 L37.757,19.11 L37.757,117.548 L14.32,117.548 C6.567,117.548 0.258,123.857 0.258,131.61 L0.258,211.298 C0.258,219.051 6.567,225.361 14.32,225.361 L56.507,225.361 C56.516,225.361 56.521,225.361 56.53,225.361 C67.602,242.953 82.944,257.484 101.235,267.455 L145.569,291.638 L189.903,267.455 C229.062,246.099 253.381,205.125 253.381,160.524 L253.381,19.111 L242.934,19.111 Z M9.632,211.298 L9.632,131.61 C9.632,129.027 11.732,126.923 14.319,126.923 L56.506,126.923 C59.093,126.923 61.193,129.028 61.193,131.61 L61.193,211.298 C61.193,213.881 59.093,215.986 56.506,215.986 L14.32,215.986 C11.732,215.986 9.632,213.881 9.632,211.298 Z M70.57,140.944 C86.222,140.096 98.695,127.092 98.695,111.235 L98.695,87.08 C98.695,80.621 103.95,75.361 110.414,75.361 C116.878,75.361 122.133,80.62 122.133,87.08 L122.133,116.583 C122.133,124.87 128.874,131.611 137.161,131.611 L171.525,131.611 C180.473,131.611 187.758,138.891 187.758,147.844 L187.758,199.753 C187.758,208.706 180.474,215.986 171.525,215.986 L102.459,215.986 C98.737,215.986 95.287,214.134 93.22,211.041 C89.414,205.332 83.043,201.924 76.181,201.924 L70.57,201.924 L70.57,140.944 Z M244.007,160.523 C244.007,201.689 221.559,239.512 185.418,259.223 L145.57,280.959 L105.722,259.223 C89.414,250.326 75.633,237.515 65.499,222.018 C68.344,219.627 70.215,216.159 70.477,212.221 C79.936,228.538 93.558,241.907 110.213,250.991 L145.571,270.28 L180.929,250.991 C214.056,232.925 234.634,198.261 234.634,160.527 L234.634,89.423 L225.259,89.423 L225.259,160.528 C225.259,194.826 206.556,226.341 176.443,242.761 L145.571,259.599 L114.699,242.761 C101.49,235.556 90.394,225.375 82.055,213.056 C83.363,213.876 84.535,214.917 85.421,216.244 C89.227,221.953 95.598,225.361 102.46,225.361 L171.526,225.361 C185.649,225.361 197.134,213.872 197.134,199.753 L197.134,147.844 C197.134,133.725 185.65,122.236 171.526,122.236 L137.162,122.236 C134.045,122.236 131.509,119.7 131.509,116.583 L131.509,87.08 C131.509,75.45 122.045,65.986 110.415,65.986 C98.785,65.986 89.321,75.45 89.321,87.08 L89.321,111.23 C89.321,121.918 81.029,130.608 70.552,131.447 C70.505,127.374 68.7,123.745 65.883,121.205 L65.883,46.697 C93.108,45.024 119.888,39.46 145.57,30.131 C171.253,39.459 198.028,45.023 225.257,46.697 L225.257,51.924 L234.632,51.924 L234.632,37.777 L230.16,37.571 C201.782,36.273 173.868,30.61 147.196,20.743 L145.569,20.138 L143.942,20.738 C117.265,30.605 89.351,36.268 60.978,37.566 L56.506,37.777 L56.506,117.549 L47.131,117.549 L47.131,28.486 L48.204,28.486 C81.687,28.486 114.429,22.298 145.568,10.092 C176.707,22.298 209.449,28.486 242.932,28.486 L244.005,28.486 L244.005,160.523 L244.007,160.523 Z" id="Shape" fill="#333333"></path>
            <rect id="Rectangle-path" fill="#333333" x="225.257" y="70.673" width="9.375" height="9.375"></rect>
            <rect id="Rectangle-path" fill="#333333" x="19.007" y="197.236" width="32.812" height="9.375"></rect>
        </g>
    </g>
</svg>