<?xml version="1.0" encoding="UTF-8"?>
<svg width="301px" height="301px" viewBox="0 0 301 301" version="1.1" xmlns="http://www.w3.org/2000/svg" xmlns:xlink="http://www.w3.org/1999/xlink">
    <!-- Generator: Sketch 50.2 (55047) - http://www.bohemiancoding.com/sketch -->
    <title>loan</title>
    <desc>Created with Sketch.</desc>
    <defs></defs>
    <g id="Page-1" stroke="none" stroke-width="1" fill="none" fill-rule="evenodd">
        <g id="loan" fill-rule="nonzero">
            <path d="M135.556,48.403 L82.302,33.899 L69.216,44.782 C65.106,38.619 62.937,31.449 62.937,24.047 L62.937,12.113 C62.937,5.437 68.364,0.01 75.04,0.01 C81.716,0.01 87.143,5.437 87.143,12.113 L87.143,16.954 C87.143,18.285 88.232,19.375 89.564,19.375 C90.896,19.375 91.985,18.286 91.985,16.954 L91.985,12.113 C91.985,5.437 97.412,0.01 104.088,0.01 C110.764,0.01 116.191,5.437 116.191,12.113 L116.191,16.954 C116.191,18.285 117.28,19.375 118.612,19.375 C119.944,19.375 121.033,18.286 121.033,16.954 L121.033,12.113 C121.033,5.437 126.46,0.01 133.136,0.01 C139.812,0.01 145.239,5.437 145.239,12.113 L145.239,24.047 C145.239,31.449 143.07,38.624 138.96,44.782 L135.556,48.403 Z" id="Shape" fill="#5FBA97"></path>
            <path d="M59.238,121.022 L49.555,116.181 L33.889,116.181 L33.889,43.562 L0,43.562 L0,135.546 L33.889,135.546 L33.889,125.863 L47.27,125.863 L56.953,130.704 L62.937,130.704 L62.937,121.021 L59.238,121.022 Z M24.206,125.864 L9.683,125.864 L9.683,53.244 L24.207,53.244 L24.207,125.864 L24.206,125.864 Z" id="Shape" fill="#333333"></path>
            <path d="M106.542,227.55 C105.666,227.55 104.794,227.535 103.913,227.497 C71.234,226.18 44.167,198.483 43.581,165.761 C43.276,148.884 49.594,132.923 61.363,120.824 C71.743,110.149 77.46,96.831 77.46,83.333 L101.666,67.788 L111.349,77.471 L111.349,125.864 L145.238,125.864 L150.907,120.035 C162.865,131.925 169.444,147.751 169.444,164.614 C169.444,181.907 162.574,198.029 150.098,210.011 C138.267,221.377 122.882,227.55 106.542,227.55 Z" id="Shape" fill="#5FBA97"></path>
            <path d="M130.715,154.911 L130.715,152.51 C130.715,143.166 123.114,135.546 113.77,135.546 L111.349,135.546 L111.349,125.863 L101.666,125.863 L101.666,135.546 L99.245,135.546 C89.901,135.546 82.301,143.147 82.301,152.49 C82.301,161.834 89.902,169.435 99.245,169.435 L113.769,169.435 C117.773,169.435 121.031,172.693 121.031,176.697 C121.031,180.701 117.773,183.959 113.769,183.959 L99.246,183.959 C95.242,183.959 91.984,180.72 91.984,176.716 L91.984,174.276 L82.301,174.276 L82.301,176.716 C82.301,186.06 89.902,193.641 99.245,193.641 L101.666,193.641 L101.666,203.324 L111.349,203.324 L111.349,193.641 L113.77,193.641 C123.114,193.641 130.715,186.04 130.715,176.697 C130.715,167.353 123.114,159.752 113.77,159.752 L99.246,159.752 C95.242,159.752 91.984,156.494 91.984,152.49 C91.984,148.486 95.242,145.228 99.246,145.228 L113.77,145.228 C117.774,145.228 121.032,148.506 121.032,152.509 L121.032,154.91 L130.715,154.911 Z" id="Shape" fill="#333333"></path>
            <path d="M151.145,67.788 C153.469,65.212 154.921,61.828 154.921,58.096 C154.921,50.089 148.405,43.562 140.397,43.562 L122.378,43.562 L119.008,39.35 L81.174,28.53 L51.502,53.244 L29.048,53.244 L29.048,62.927 L55.007,62.927 L83.435,39.248 L113.378,47.807 L123.564,60.535 C124.91,62.22 125.505,64.331 125.234,66.47 C124.963,68.61 123.859,70.508 122.131,71.8 C119.008,74.143 114.569,73.828 111.8,71.064 L102.03,61.294 L74.44,83.367 L80.487,90.929 L101.309,74.27 L104.95,77.915 C105.483,78.448 106.078,78.883 106.664,79.333 C107.017,82.867 108.305,84.944 110.285,87.137 C107.961,89.713 106.509,93.092 106.509,96.824 C106.509,100.556 107.966,103.936 110.285,106.507 C107.961,109.083 106.509,112.447 106.509,116.18 C106.509,124.197 113.025,130.704 121.033,130.704 L140.398,130.704 C148.405,130.704 154.922,124.197 154.922,116.19 C154.922,112.457 153.465,109.088 151.146,106.512 C153.47,103.936 154.922,100.567 154.922,96.829 C154.922,93.092 153.465,89.722 151.146,87.146 C153.47,84.57 154.922,81.196 154.922,77.463 C154.921,73.733 153.464,70.363 151.145,67.788 Z M140.397,121.022 L121.032,121.022 C118.364,121.022 116.191,118.848 116.191,116.181 C116.191,113.513 118.365,111.34 121.032,111.34 L140.397,111.34 C143.065,111.34 145.238,113.514 145.238,116.181 C145.239,118.849 143.065,121.022 140.397,121.022 Z M140.397,101.657 L121.032,101.657 C118.364,101.657 116.191,99.483 116.191,96.816 C116.191,94.148 118.365,91.975 121.032,91.975 L140.397,91.975 C143.065,91.975 145.238,94.149 145.238,96.816 C145.239,99.484 143.065,101.657 140.397,101.657 Z M140.397,82.292 L122.46,82.292 C124.392,81.716 126.256,80.815 127.94,79.552 C130.38,77.722 132.181,75.316 133.382,72.61 L140.397,72.61 C143.065,72.61 145.238,74.784 145.238,77.451 C145.238,80.118 143.065,82.292 140.397,82.292 Z M140.397,62.927 L134.718,62.927 C134.273,59.877 133.106,56.972 131.121,54.489 L130.124,53.245 L140.397,53.245 C143.065,53.245 145.238,55.419 145.238,58.086 C145.239,60.753 143.065,62.927 140.397,62.927 Z" id="Shape" fill="#333333"></path>
            <path d="M266.271,227.531 L266.271,242.055 L233.849,242.055 L220.545,233.186 L179.743,218.715 C175.86,217.35 171.692,217.626 168.022,219.49 C164.347,221.354 161.67,224.549 160.474,228.49 C158.407,235.311 161.476,242.694 167.77,246.035 L178.251,251.602 L163.011,251.65 L156.746,235.984 C154.684,230.852 149.779,227.531 144.241,227.531 C139.918,227.531 135.832,229.632 133.309,233.137 C130.787,236.652 130.104,241.193 131.484,245.289 L132.951,249.636 L122.329,243.831 C118.95,241.977 114.912,241.619 111.257,242.853 C107.602,244.073 104.595,246.789 103.007,250.299 C99.899,257.164 102.76,265.157 109.519,268.493 L133.416,280.286 L183.02,290.375 L247.385,290.467 L266.271,286.691 L266.271,300.15 L300.16,300.15 L300.16,227.531 L266.271,227.531 Z M141.172,238.787 C142.799,236.521 146.72,237.001 147.751,239.586 L152.592,251.684 L143.868,251.713 L140.663,242.195 C140.271,241.028 140.455,239.789 141.172,238.787 Z M246.426,280.785 L184.448,280.785 L137.129,271.32 L113.804,259.812 C111.756,258.8 110.885,256.375 111.829,254.288 C112.318,253.208 113.204,252.405 114.332,252.032 C115.45,251.645 116.651,251.756 117.692,252.332 L134.322,261.419 L180.271,261.419 L199.375,251.867 L172.317,237.484 C170.1,236.303 169.015,233.703 169.741,231.297 C170.162,229.908 171.106,228.775 172.404,228.121 C173.697,227.458 175.168,227.371 176.538,227.845 L215.685,241.58 L230.916,251.737 L266.272,251.737 L266.272,276.815 L246.426,280.785 Z M290.477,290.467 L275.953,290.467 L275.953,237.213 L290.477,237.213 L290.477,290.467 Z" id="Shape" fill="#333333"></path>
        </g>
    </g>
</svg>