<?xml version="1.0" encoding="iso-8859-1"?>
<!-- Generator: Adobe Illustrator 19.0.0, SVG Export Plug-In . SVG Version: 6.00 Build 0)  -->
<svg version="1.1" id="Capa_1" xmlns="http://www.w3.org/2000/svg" xmlns:xlink="http://www.w3.org/1999/xlink" x="0px" y="0px"
	 viewBox="0 0 512 512" style="enable-background:new 0 0 512 512;" xml:space="preserve">
<g>
	<g>
		<path d="M420.685,266.48c0,0-3.115-55.827-36.197-101.03l0.506,0.289c54.416,2.985,101.513-22.704,101.513-22.704
			s-36.793-49.702-94.024-67.364c37.567-26.767,57.965-63.277,57.965-63.277S385.162-13.054,323.816,8.98
			C294.952,19.347,272.104,38.378,256,55.625c-16.104-17.247-38.952-36.278-67.816-46.645
			c-61.346-22.034-126.632,3.412-126.632,3.412s20.399,36.51,57.965,63.277c-57.231,17.662-94.024,67.364-94.024,67.364
			s47.097,25.689,101.513,22.704l0.506-0.289C94.43,210.652,91.315,266.48,91.315,266.48s69.833-5.752,115.31-52.45
			c3.822-3.924,7.343-8.016,10.6-12.213l-1.486,47.559h-17.591v30h16.653l-1.486,47.542h-20.087v30h19.15l-1.486,47.542h-22.075v30
			h21.138L208.469,482h-30.022v30h155.106v-30h-30.022l-1.486-47.542h21.138v-30h-22.075l-1.486-47.542h19.15v-30h-20.087
			l-1.486-47.542h16.653v-30h-17.591l-1.486-47.559c3.257,4.198,6.778,8.289,10.6,12.213
			C350.852,260.728,420.685,266.48,420.685,266.48z"/>
	</g>
</g>
<g>
</g>
<g>
</g>
<g>
</g>
<g>
</g>
<g>
</g>
<g>
</g>
<g>
</g>
<g>
</g>
<g>
</g>
<g>
</g>
<g>
</g>
<g>
</g>
<g>
</g>
<g>
</g>
<g>
</g>
</svg>
