<svg width="64px" height="64px" viewBox="0 0 485 481" version="1.1" xmlns="http://www.w3.org/2000/svg" xmlns:xlink="http://www.w3.org/1999/xlink">
    <!-- Generator: Sketch 40 (33762) - http://www.bohemiancoding.com/sketch -->
    <title>pay</title>
    <desc>Created with Sketch.</desc>
    <defs></defs>
    <g id="Page-1" stroke="none" stroke-width="1">
        <g id="pay">
            <path d="M405.52,342.525 L378.4,314.925 C375.628,312.099 371.207,311.725 368,314.045 L249.84,401.085 L208,381.405 L244.72,377.325 C248.76,376.837 251.789,373.394 251.76,369.325 L251.76,334.765 C251.76,330.347 248.178,326.765 243.76,326.765 L203.76,326.765 L136.4,319.885 C135.034,319.752 133.656,319.972 132.4,320.525 L86.48,340.205 L0,340.205 L0,356.205 L88.16,356.205 C89.259,356.214 90.349,355.996 91.36,355.565 L136.88,335.645 L202.56,342.365 L236.08,342.365 L236.08,362.205 L206.48,365.885 L163.52,361.325 C159.65,360.952 156.072,363.416 155.04,367.165 C153.998,370.9 155.785,374.845 159.28,376.525 L248,417.325 C250.617,418.515 253.671,418.21 256,416.525 L372.32,331.085 L388.32,347.725 L254.64,464.525 L218.4,464.525 L90.8,417.085 C89.908,416.732 88.959,416.542 88,416.525 L0,416.525 L0,432.525 L86.64,432.525 L214.16,480.045 C215.057,480.371 216.005,480.533 216.96,480.525 L257.6,480.525 C259.545,480.522 261.422,479.811 262.88,478.525 L405.12,354.205 C405.255,354.087 405.386,353.965 405.512,353.839 C408.639,350.717 408.642,345.651 405.52,342.525 L405.52,342.525 Z" id="Shape"></path>
            <path d="M384.56,156.605 C383.215,155.179 381.393,154.296 379.44,154.125 L293.04,146.125 L260.08,146.125 L261.68,122.125 L292.96,115.805 L336.64,125.565 C337.54,125.72 338.46,125.72 339.36,125.565 L381.84,120.525 L379.92,104.525 L338.8,108.925 L294.8,99.165 C293.724,98.887 292.596,98.887 291.52,99.165 L252.56,107.165 C248.973,107.852 246.307,110.88 246.08,114.525 L243.52,153.485 C243.51,153.65 243.505,153.814 243.506,153.979 C243.514,158.397 247.102,161.973 251.52,161.965 L292.32,161.965 L375.04,169.485 L417.6,214.045 C419.103,215.621 421.183,216.517 423.36,216.525 L480,216.525 L480,200.525 L426.8,200.525 L384.56,156.605 Z" id="Shape"></path>
            <path d="M412.88,33.965 C411.996,33.249 410.954,32.755 409.84,32.525 L273.84,0.525 C271.536,0.042 269.137,0.598 267.28,2.045 L179.28,66.045 L188.72,79.005 L273.76,17.165 L404.48,47.885 L475.12,102.845 L484.88,89.965 L412.88,33.965 L412.88,33.965 Z" id="Shape"></path>
            <path d="M282.96,49.405 C280.874,48.467 278.486,48.467 276.4,49.405 L228.4,73.405 L235.6,87.645 L280.4,65.325 L317.04,80.285 L322.96,65.405 L282.96,49.405 L282.96,49.405 Z" id="Shape"></path>
            <path d="M200.24,138.045 L186.16,135.965 C179.76,135.005 176,132.525 176,128.525 C176,124.525 181.6,120.525 189.12,120.925 L194.88,120.925 C202.4,120.925 208,124.925 208,128.525 L208,130.685 L224,130.685 L224,128.525 C224,114.925 211.2,104.525 194.88,104.525 L189.12,104.525 C172.8,104.525 160,114.925 160,128.525 C161.313,141.002 171.474,150.69 184,151.405 L197.84,153.485 C204.24,154.445 208,157.325 208,160.925 C208,164.525 202.4,168.525 194.88,168.525 L189.12,168.525 C181.6,168.525 176,164.525 176,160.925 L176,158.765 L160,158.765 L160,160.925 C160,174.125 173.12,184.525 189.12,184.525 L194.88,184.525 C211.2,184.525 224,174.125 224.24,161.325 C223.112,148.691 212.903,138.788 200.24,138.045 L200.24,138.045 Z" id="Shape"></path>
            <path d="M255.44,152.925 C252.531,174.685 238.672,193.435 218.724,202.6 C186.606,217.357 148.606,203.282 133.849,171.164 C119.092,139.046 133.167,101.046 165.285,86.289 C197.403,71.532 235.403,85.607 250.16,117.725 L264.64,111.005 C251.565,82.671 223.208,64.525 192.002,64.525 C147.819,64.524 112.001,100.341 112.001,144.524 C112,188.707 147.817,224.524 192,224.525 C232.154,224.595 266.14,194.888 271.44,155.085 L255.44,152.925 L255.44,152.925 Z" id="Shape"></path>
            <rect id="Rectangle-path" x="184" y="96.53" width="16" height="16"></rect>
        </g>
    </g>
</svg>