<?xml version="1.0" encoding="UTF-8"?>
<svg width="301px" height="292px" viewBox="0 0 301 292" version="1.1" xmlns="http://www.w3.org/2000/svg" xmlns:xlink="http://www.w3.org/1999/xlink">
    <!-- Generator: Sketch 50.2 (55047) - http://www.bohemiancoding.com/sketch -->
    <title>price</title>
    <desc>Created with Sketch.</desc>
    <defs></defs>
    <g id="Page-1" stroke="none" stroke-width="1" fill="none" fill-rule="evenodd">
        <g id="price" fill-rule="nonzero">
            <path d="M285.723,150.921 L275.948,150.921 C275.73,132.306 266.764,115.028 251.746,104.096 L251.746,75.881 C251.746,66.537 244.145,58.937 234.802,58.937 C214.759,58.937 197.79,73.495 194.339,92.826 L179.128,92.826 L179.128,102.509 L203.146,102.509 L203.446,97.987 C204.535,81.522 218.309,68.62 234.803,68.62 C238.807,68.62 242.065,71.878 242.065,75.882 L242.065,109.229 L244.234,110.662 C258.032,119.807 266.272,135.115 266.272,151.624 L266.272,160.605 L285.724,160.605 C288.348,160.605 290.478,162.735 290.478,165.359 L290.478,213.946 C290.478,216.57 288.348,218.7 285.724,218.7 L265.274,218.7 L264.252,222.176 C259.527,238.259 247.104,250.686 231.017,255.411 L227.541,256.433 L227.541,279.187 C227.541,280.538 226.442,281.637 225.091,281.637 L176.736,281.637 C175.385,281.637 174.286,280.538 174.286,279.187 L174.286,257.43 L125.873,257.43 L125.873,279.187 C125.873,280.538 124.774,281.637 123.423,281.637 L75.069,281.637 C73.718,281.637 72.619,280.538 72.619,279.187 L72.619,253.218 L70.019,251.858 C53.704,243.347 43.571,226.664 43.571,208.315 L43.571,151.624 C43.571,127.582 60.743,107.22 84.407,103.206 L82.785,93.654 C54.454,98.461 33.888,122.842 33.888,151.624 L33.888,165.446 L28.156,165.446 C28.698,163.926 29.047,162.309 29.047,160.605 C29.047,152.598 22.531,146.081 14.523,146.081 C12.819,146.081 11.202,146.43 9.682,146.972 L9.682,131.557 L0,131.557 L0,160.605 C0,168.612 6.516,175.129 14.524,175.129 L33.889,175.129 L33.889,208.316 C33.889,229.288 44.946,248.445 62.937,258.999 L62.937,279.182 C62.937,285.878 68.379,291.319 75.069,291.319 L123.424,291.319 C130.115,291.319 135.556,285.877 135.556,279.187 L135.556,267.113 L164.604,267.113 L164.604,279.187 C164.604,285.878 170.046,291.319 176.736,291.319 L225.091,291.319 C231.782,291.319 237.223,285.877 237.223,279.187 L237.223,263.559 C253.645,257.619 266.464,244.799 272.405,228.377 L285.723,228.377 C293.682,228.382 300.16,221.904 300.16,213.945 L300.16,165.358 C300.16,157.399 293.682,150.921 285.723,150.921 Z M9.683,160.604 C9.683,157.936 11.857,155.763 14.524,155.763 C17.191,155.763 19.365,157.937 19.365,160.604 C19.365,163.271 17.191,165.445 14.524,165.445 C11.857,165.445 9.683,163.271 9.683,160.604 Z" id="Shape" fill="#333333"></path>
            <path d="M130.715,126.715 C96.013,126.715 67.778,98.481 67.778,63.778 C67.778,29.075 96.012,0.841 130.715,0.841 C165.418,0.841 193.652,29.075 193.652,63.778 C193.652,98.481 165.417,126.715 130.715,126.715 Z" id="Shape" fill="#5FBA97"></path>
            <rect id="Rectangle-path" fill="#333333" x="91.984" y="121.873" width="77.461" height="9.683"></rect>
            <path d="M159.762,54.095 L159.762,46.833 C159.762,34.822 149.987,25.047 137.976,25.047 L135.555,25.047 L135.555,15.364 L125.872,15.364 L125.872,25.047 L123.451,25.047 C111.44,25.047 101.665,34.822 101.665,46.833 C101.665,58.844 111.44,68.619 123.451,68.619 L137.975,68.619 C144.646,68.619 150.078,74.051 150.078,80.722 C150.078,87.393 144.646,92.825 137.975,92.825 L123.451,92.825 C116.78,92.825 111.348,87.393 111.348,80.722 L111.348,73.46 L101.665,73.46 L101.665,80.722 C101.665,92.733 111.44,102.508 123.451,102.508 L125.872,102.508 L125.872,112.191 L135.555,112.191 L135.555,102.508 L137.976,102.508 C149.987,102.508 159.762,92.733 159.762,80.722 C159.762,68.711 149.987,58.936 137.976,58.936 L123.452,58.936 C116.781,58.936 111.349,53.504 111.349,46.833 C111.349,40.162 116.781,34.73 123.452,34.73 L137.976,34.73 C144.647,34.73 150.079,40.162 150.079,46.833 L150.079,54.095 L159.762,54.095 Z" id="Shape" fill="#333333"></path>
            <path d="M202.569,143.853 C202.617,143.776 207.468,136.397 217.858,136.397 C228.054,136.397 232.968,143.581 233.147,143.853 C234.072,145.296 235.635,146.08 237.228,146.08 C238.124,146.08 239.029,145.833 239.837,145.315 C242.088,143.872 242.742,140.876 241.299,138.624 C240.984,138.135 233.475,126.714 217.858,126.714 C202.241,126.714 194.731,138.135 194.417,138.624 C192.974,140.875 193.628,143.867 195.879,145.315 C198.125,146.753 201.122,146.104 202.569,143.853 Z" id="Shape" fill="#333333"></path>
        </g>
    </g>
</svg>