<?xml version="1.0" encoding="UTF-8"?>
<svg width="512px" height="512px" viewBox="0 0 512 512" version="1.1" xmlns="http://www.w3.org/2000/svg" xmlns:xlink="http://www.w3.org/1999/xlink">
    <!-- Generator: Sketch 40 (33762) - http://www.bohemiancoding.com/sketch -->
    <title>problem</title>
    <desc>Created with Sketch.</desc>
    <defs>
        <linearGradient x1="100%" y1="50%" x2="0%" y2="50%" id="linearGradient-1">
            <stop stop-color="#5AB899" offset="0%"></stop>
            <stop stop-color="#3DBBC3" offset="100%"></stop>
        </linearGradient>
        <linearGradient x1="100%" y1="50%" x2="0%" y2="50%" id="linearGradient-2">
            <stop stop-color="#59B597" offset="0%"></stop>
            <stop stop-color="#3DBCC4" offset="100%"></stop>
        </linearGradient>
    </defs>
    <g id="Page-1" stroke="none" stroke-width="1" fill="none" fill-rule="evenodd">
        <g id="problem">
            <g id="virus_scan">
                <polygon id="Shape" fill="#56B89F" points="391.188 361.062 361.016 391.234 255.422 285.625 276.686217 245.947622"></polygon>
                <path d="M353.484,398.766 L457.343,502.625 C469.843,515.125 490.093,515.125 502.593,502.625 C515.093,490.125 515.093,469.875 502.593,457.375 L502.593,457.375 L398.734,353.516 L353.484,398.766 L353.484,398.766 Z" id="Shape" fill="#434A54"></path>
                <path d="M66.922,338.391 C30.672,302.141 10.703,253.922 10.703,202.641 C10.703,151.36 30.672,103.157 66.922,66.891 C103.188,30.641 151.391,10.672 202.672,10.672 C253.953,10.672 302.172,30.641 338.422,66.891 C374.688,103.157 394.656,151.36 394.656,202.641 C394.656,253.922 374.687,302.141 338.422,338.391 C302.172,374.656 253.953,394.625 202.672,394.625 C151.391,394.625 103.188,374.656 66.922,338.391 Z" id="Shape"></path>
                <path d="M202.672,0 C90.766,0 0.031,90.719 0.031,202.641 C0.031,314.563 90.765,405.297 202.672,405.297 C314.594,405.297 405.328,314.563 405.328,202.641 C405.328,90.734 314.594,0 202.672,0 L202.672,0 Z M330.891,330.859 C314.235,347.515 294.829,360.593 273.25,369.718 C250.906,379.171 227.172,383.952 202.672,383.952 C178.188,383.952 154.453,379.171 132.11,369.718 C110.516,360.593 91.126,347.515 74.469,330.859 C57.812,314.203 44.735,294.797 35.61,273.218 C26.157,250.874 21.36,227.124 21.36,202.64 C21.36,178.156 26.157,154.421 35.61,132.078 C44.735,110.484 57.813,91.094 74.469,74.437 C91.125,57.78 110.516,44.703 132.11,35.578 C154.454,26.125 178.188,21.328 202.672,21.328 L202.672,21.328 C227.172,21.328 250.906,26.125 273.25,35.578 C294.828,44.703 314.234,57.781 330.891,74.437 C347.548,91.093 360.625,110.484 369.75,132.078 C379.203,154.422 383.984,178.156 383.984,202.64 C383.984,227.14 379.203,250.874 369.75,273.218 C360.625,294.797 347.547,314.203 330.891,330.859 L330.891,330.859 Z" id="Shape" fill="url(#linearGradient-1)"></path>
                <g id="Group" transform="translate(74.000000, 64.000000)" fill="#434A54">
                    <path d="M246.016,149.328 L246,149.328 L11.359,149.328 L11.343,149.328 C5.452,149.328 0.671,154.109 0.671,160 C0.671,165.891 5.452,170.672 11.343,170.672 L11.343,170.672 L246.015,170.672 L246.015,170.672 L246.015,170.672 C251.906,170.672 256.671,165.891 256.671,160 C256.671,154.109 251.906,149.328 246.016,149.328 L246.016,149.328 Z" id="Shape"></path>
                    <path d="M66.188,16.141 L98.376,69.922 L116.688,58.969 L84.5,5.188 L84.484,5.188 C82.625,2.094 79.234,0 75.343,0 C69.452,0 64.671,4.781 64.671,10.672 C64.671,12.672 65.233,14.531 66.202,16.141 L66.188,16.141 L66.188,16.141 Z" id="Shape"></path>
                    <path d="M191.266,16.141 L191.25,16.141 C192.203,14.532 192.766,12.672 192.766,10.672 C192.766,4.781 188,0 182.109,0 C178.218,0 174.828,2.078 172.968,5.188 L172.952,5.188 L140.764,58.969 L159.061,69.922 L191.266,16.141 L191.266,16.141 Z" id="Shape"></path>
                    <path d="M11.438,86.891 C11.626,88.203 16.563,119.25 48.75,131.329 L56.234,111.345 C36.062,103.783 32.656,84.501 32.531,83.689 L32.547,83.783 L32.531,83.783 C31.765,78.627 27.343,74.674 21.984,74.674 C16.093,74.674 11.328,79.44 11.328,85.33 C11.328,85.861 11.375,86.377 11.453,86.892 L11.438,86.892 L11.438,86.891 Z" id="Shape"></path>
                    <path d="M245.891,86.891 L245.891,86.891 C245.953,86.375 246.016,85.86 246.016,85.329 C246.016,79.438 241.235,74.673 235.344,74.673 C229.985,74.673 225.563,78.626 224.797,83.782 L224.797,83.782 C224.766,83.97 221.641,103.641 201.094,111.344 L208.578,131.328 C240.766,119.25 245.703,88.203 245.891,86.891 L245.891,86.891 Z" id="Shape"></path>
                    <path d="M235.234,243.781 C235.031,242.453 230.109,211.422 197.922,199.343 L190.422,219.312 C210.61,226.89 214,246.156 214.141,246.984 L214.125,246.89 L214.141,246.89 C214.891,252.046 219.313,255.999 224.672,255.999 C230.563,255.999 235.344,251.218 235.344,245.327 C235.344,244.796 235.297,244.28 235.219,243.78 L235.234,243.78 L235.234,243.781 Z" id="Shape"></path>
                    <path d="M22.125,243.781 L22.141,243.781 C22.063,244.281 22.016,244.812 22.016,245.328 C22.016,251.219 26.782,256 32.672,256 C38.031,256 42.469,252.047 43.219,246.891 L43.235,246.891 C43.266,246.688 46.391,227.032 66.923,219.329 L59.439,199.345 C27.25,211.422 22.312,242.469 22.125,243.781 L22.125,243.781 Z" id="Shape"></path>
                </g>
                <path d="M202.672,320 C141.766,320 117.406,267.469 117.406,202.672 C117.406,137.875 149.109,106.672 202.672,106.672 C256.25,106.672 287.953,137.875 287.953,202.672 C287.953,267.469 263.578,320 202.672,320 Z" id="Shape" fill="url(#linearGradient-2)"></path>
                <path d="M282.047,160 L123.297,160 C121.219,166.5 119.672,173.609 118.688,181.328 L192.016,181.328 L192.016,319.422 C195.438,319.813 198.985,320 202.672,320 C206.359,320 209.922,319.812 213.344,319.422 L213.344,181.328 L286.656,181.328 C285.672,173.609 284.141,166.5 282.047,160 L282.047,160 Z" id="Shape" fill="#FFFFFF"></path>
            </g>
        </g>
    </g>
</svg>