<?xml version="1.0" encoding="UTF-8"?>
<svg width="296px" height="296px" viewBox="0 0 296 296" version="1.1" xmlns="http://www.w3.org/2000/svg" xmlns:xlink="http://www.w3.org/1999/xlink">
    <!-- Generator: Sketch 50.2 (55047) - http://www.bohemiancoding.com/sketch -->
    <title>workflow</title>
    <desc>Created with Sketch.</desc>
    <defs></defs>
    <g id="Page-1" stroke="none" stroke-width="1" fill="none" fill-rule="evenodd">
        <g id="workflow" fill-rule="nonzero">
            <path d="M295.239,161.905 L257.144,161.905 L257.144,119.081 L181.915,118.576 L152.382,106.343 L152.382,90.476 L142.858,90.476 L142.858,106.343 L113.325,118.576 L38.096,119.081 L38.096,161.905 L0.001,161.905 L0.001,219.048 L85.715,219.048 L85.715,161.905 L47.62,161.905 L47.62,128.538 L113.296,128.1 L142.858,141.195 L142.858,161.905 L104.763,161.905 L104.763,219.048 L190.477,219.048 L190.477,161.905 L152.382,161.905 L152.382,141.195 L181.944,128.1 L247.62,128.538 L247.62,161.905 L209.525,161.905 L209.525,219.048 L247.62,219.048 L247.62,233.334 L142.858,233.334 L142.858,257.144 L123.811,257.144 C113.306,257.144 104.763,265.687 104.763,276.192 C104.763,286.697 113.306,295.24 123.811,295.24 L171.43,295.24 C181.935,295.24 190.478,286.697 190.478,276.192 C190.478,265.687 181.935,257.144 171.43,257.144 L152.382,257.144 L152.382,242.858 L257.144,242.858 L257.144,219.048 L295.239,219.048 L295.239,161.905 Z M76.191,209.524 L9.525,209.524 L9.525,171.429 L76.191,171.429 L76.191,209.524 Z M180.953,209.524 L114.286,209.524 L114.286,171.429 L180.953,171.429 L180.953,209.524 Z M147.62,132.886 L126.377,123.476 L147.62,114.681 L168.863,123.481 L147.62,132.886 Z M180.953,276.19 C180.953,281.442 176.682,285.714 171.429,285.714 L123.811,285.714 C118.559,285.714 114.287,281.443 114.287,276.19 C114.287,270.938 118.558,266.666 123.811,266.666 L171.43,266.666 C176.682,266.667 180.953,270.938 180.953,276.19 Z M285.715,209.524 L219.048,209.524 L219.048,171.429 L285.715,171.429 L285.715,209.524 Z" id="Shape" fill="#333333"></path>
            <path d="M171.43,95.238 L123.811,95.238 L123.811,67.81 C114.821,60.591 109.525,49.667 109.525,38.096 C109.525,17.09 126.615,0 147.62,0 C168.625,0 185.715,17.09 185.715,38.095 C185.715,49.671 180.42,60.595 171.429,67.809 L171.43,95.238 Z" id="Shape" fill="#5FBA97"></path>
            <path d="M176.191,71.429 L152.381,71.429 L152.381,51.505 C157.91,49.534 161.905,44.295 161.905,38.095 C161.905,30.219 155.495,23.809 147.619,23.809 C139.743,23.809 133.333,30.219 133.333,38.095 C133.333,44.295 137.328,49.533 142.857,51.505 L142.857,71.429 L119.047,71.429 L119.047,80.953 L176.19,80.953 L176.191,71.429 Z M147.62,33.333 C150.244,33.333 152.382,35.471 152.382,38.095 C152.382,40.719 150.244,42.857 147.62,42.857 C144.996,42.857 142.858,40.719 142.858,38.095 C142.858,35.471 144.996,33.333 147.62,33.333 Z" id="Shape" fill="#333333"></path>
            <rect id="Rectangle-path" fill="#333333" x="71.43" y="33.333" width="23.81" height="9.524"></rect>
            <rect id="Rectangle-path" fill="#333333" transform="translate(88.220860, 62.695418) rotate(-22.507915) translate(-88.220860, -62.695418) " x="76.3172036" y="57.933555" width="23.8073129" height="9.52372513"></rect>
            <rect id="Rectangle-path" fill="#333333" transform="translate(207.014047, 62.693094) rotate(-67.499572) translate(-207.014047, -62.693094) " x="202.251927" y="50.7872936" width="9.52424048" height="23.8116012"></rect>
            <rect id="Rectangle-path" fill="#333333" x="200.001" y="33.333" width="23.81" height="9.524"></rect>
            <rect id="Rectangle-path" fill="#333333" transform="translate(207.004307, 13.498177) rotate(-22.507915) translate(-207.004307, -13.498177) " x="195.10065" y="8.73631423" width="23.8073129" height="9.52372513"></rect>
            <rect id="Rectangle-path" fill="#333333" transform="translate(88.230259, 13.491007) rotate(-67.499572) translate(-88.230259, -13.491007) " x="83.4681388" y="1.58520604" width="9.52424048" height="23.8116012"></rect>
        </g>
    </g>
</svg>