<svg width="64px" height="64px" viewBox="0 0 512 434" version="1.1" xmlns="http://www.w3.org/2000/svg" xmlns:xlink="http://www.w3.org/1999/xlink">
    <title>profits</title>
    <desc>Created with Sketch.</desc>
    <defs></defs>
    <g id="Page-1" stroke="none" stroke-width="1">
        <g id="profits" >
            <path d="M416.205,44.759 L410.83,6.367 C410.559,4.434 409.526,2.69 407.96,1.524 C406.395,0.359 404.429,-0.131 402.498,0.165 L360.202,6.643 C356.217,7.253 353.482,10.978 354.092,14.962 C354.702,18.947 358.429,21.684 362.411,21.072 L387.058,17.297 C354.098,58.046 318.649,92.756 281.52,120.567 C249.212,144.767 215.569,163.841 181.526,177.261 C123.587,200.1 84.023,198.6 83.634,198.586 C79.6,198.382 76.197,201.5 76.002,205.522 C75.806,209.548 78.911,212.97 82.937,213.166 C83.175,213.177 84.171,213.22 85.879,213.22 C96.395,213.22 133.807,211.606 185.964,191.199 C221.332,177.361 256.235,157.67 289.705,132.672 C328.167,103.945 364.827,68.074 398.833,25.951 L401.749,46.783 C402.26,50.432 405.386,53.07 408.968,53.07 C409.304,53.07 409.646,53.047 409.989,52.999 C413.981,52.44 416.764,48.751 416.205,44.759 L416.205,44.759 Z" id="Shape"></path>
            <path d="M498.533,393.744 L439.554,393.744 C444.409,390.516 448.981,386.786 453.197,382.569 C469.816,365.95 478.968,343.854 478.968,320.352 C478.968,296.849 469.816,274.753 453.197,258.135 C447.277,252.215 440.705,247.341 433.725,243.464 L433.725,214 C433.725,209.969 430.457,206.702 426.427,206.702 C422.396,206.702 419.129,209.97 419.129,214 L419.129,236.982 C399.152,230.219 377.46,230.863 357.953,238.781 L357.953,149.133 C357.953,148.189 358.721,147.421 359.665,147.421 L417.417,147.421 C418.361,147.421 419.129,148.189 419.129,149.133 L419.129,167.248 C419.129,171.279 422.397,174.546 426.427,174.546 C430.458,174.546 433.725,171.278 433.725,167.248 L433.725,149.133 C433.725,140.14 426.409,132.824 417.416,132.824 L359.664,132.824 C350.671,132.824 343.355,140.14 343.355,149.133 L343.355,246.375 C338.185,249.704 333.283,253.612 328.763,258.133 C312.144,274.752 302.992,296.848 302.992,320.35 C302.992,343.853 312.144,365.949 328.763,382.567 C332.979,386.783 337.551,390.514 342.406,393.742 L296.319,393.742 L296.319,215.356 C296.319,206.363 289.003,199.047 280.01,199.047 L222.259,199.047 C213.266,199.047 205.95,206.363 205.95,215.356 L205.95,393.744 L158.913,393.744 L158.913,275.393 C158.913,266.4 151.597,259.084 142.604,259.084 L84.852,259.084 C75.859,259.084 68.543,266.4 68.543,275.393 L68.543,393.744 L38.48,393.744 L38.48,18.408 C38.48,10.982 32.439,4.941 25.013,4.941 L13.467,4.941 C6.041,4.941 0,10.982 0,18.408 L0,70.222 C0,74.253 3.268,77.52 7.298,77.52 C11.328,77.52 14.596,74.252 14.596,70.222 L14.596,19.538 L23.882,19.538 L23.882,394.874 C23.882,402.3 29.924,408.341 37.349,408.341 L497.402,408.341 L497.402,419.324 L14.597,419.324 L14.597,116.342 C14.597,112.311 11.329,109.044 7.299,109.044 C3.269,109.044 -8.8817842e-16,112.311 -8.8817842e-16,116.342 L-8.8817842e-16,420.453 C-8.8817842e-16,427.879 6.041,433.92 13.467,433.92 L498.533,433.92 C505.959,433.92 512,427.879 512,420.453 L512,407.21 C512,399.785 505.959,393.744 498.533,393.744 L498.533,393.744 Z M144.316,393.744 L144.316,393.744 L83.14,393.744 L83.14,275.393 C83.14,274.449 83.908,273.681 84.852,273.681 L142.604,273.681 C143.548,273.681 144.316,274.449 144.316,275.393 L144.316,393.744 L144.316,393.744 Z M220.546,393.744 L220.546,215.356 C220.546,214.412 221.314,213.644 222.258,213.644 L280.009,213.644 C280.953,213.644 281.721,214.412 281.721,215.356 L281.721,393.744 L220.546,393.744 L220.546,393.744 Z M423.221,386.282 C415.829,389.897 407.797,392.246 399.616,393.224 C399.478,393.24 399.341,393.259 399.203,393.275 C398.644,393.339 398.085,393.393 397.525,393.444 C396.671,393.519 395.816,393.587 394.957,393.632 C394.686,393.647 394.415,393.655 394.144,393.667 C393.093,393.711 392.039,393.744 390.98,393.744 C389.918,393.744 388.862,393.711 387.808,393.667 C387.475,393.653 387.141,393.637 386.809,393.618 C386.014,393.574 385.222,393.513 384.431,393.444 C383.775,393.385 383.12,393.316 382.466,393.239 C381.998,393.185 381.531,393.13 381.066,393.067 C380.401,392.976 379.738,392.88 379.076,392.771 C378.99,392.757 378.904,392.741 378.818,392.726 C370.207,391.28 361.891,388.311 354.304,383.928 C354.264,383.905 354.222,383.89 354.182,383.868 C348.736,380.701 343.657,376.821 339.084,372.247 C325.222,358.385 317.588,339.955 317.588,320.351 C317.588,300.747 325.222,282.317 339.084,268.455 C344.392,263.147 350.32,258.829 356.634,255.49 C356.812,255.395 356.992,255.305 357.171,255.212 C367.734,249.738 379.355,246.994 390.98,246.994 C400.273,246.994 409.565,248.75 418.315,252.248 C418.467,252.309 418.62,252.367 418.771,252.429 C419.68,252.799 420.581,253.194 421.477,253.602 C421.834,253.765 422.19,253.935 422.545,254.104 C429.901,257.6 436.796,262.375 442.875,268.454 C471.49,297.07 471.49,343.63 442.875,372.246 C437.122,378.002 430.572,382.664 423.487,386.172 C423.399,386.211 423.308,386.239 423.221,386.282 L423.221,386.282 Z" id="Shape"></path>
            <path d="M394.372,313.286 L394.372,287.291 C403.336,287.931 406.666,292.029 409.739,292.029 C413.581,292.029 415.374,287.163 415.374,284.73 C415.374,278.455 403.081,275.766 394.373,275.51 L394.373,272.052 C394.373,270.515 392.453,269.107 390.532,269.107 C388.355,269.107 386.818,270.515 386.818,272.052 L386.818,275.766 C374.652,277.047 362.487,283.45 362.487,299.585 C362.487,315.976 375.293,320.586 386.818,324.684 L386.818,354.777 C373.756,353.753 370.299,344.789 366.073,344.789 C362.871,344.789 360.182,349.014 360.182,352.088 C360.182,358.363 370.939,366.943 386.818,367.199 L386.817,367.199 L386.817,371.168 C386.817,372.705 388.354,374.113 390.531,374.113 C392.451,374.113 394.372,372.705 394.372,371.168 L394.372,366.814 C408.202,364.893 417.678,356.185 417.678,340.434 C417.678,323.018 405.513,317.384 394.372,313.286 L394.372,313.286 Z M387.587,310.853 C380.799,308.292 375.293,305.603 375.294,298.304 C375.294,291.644 380.416,288.443 387.587,287.547 L387.587,310.853 L387.587,310.853 Z M393.605,354.521 L393.605,327.501 C399.88,330.19 404.874,333.775 404.874,341.843 C404.874,349.143 400.52,353.241 393.605,354.521 L393.605,354.521 Z" id="Shape"></path>
        </g>
    </g>
</svg>