<?xml version="1.0" encoding="UTF-8"?>
<svg width="512px" height="368px" viewBox="0 0 512 368" version="1.1" xmlns="http://www.w3.org/2000/svg" xmlns:xlink="http://www.w3.org/1999/xlink">
    <!-- Generator: Sketch 40 (33762) - http://www.bohemiancoding.com/sketch -->
    <title>question</title>
    <desc>Created with Sketch.</desc>
    <defs>
        <linearGradient x1="3.061617e-15%" y1="50%" x2="100%" y2="50%" id="linearGradient-1">
            <stop stop-color="#39C2D0" offset="0%"></stop>
            <stop stop-color="#5DBA98" offset="100%"></stop>
        </linearGradient>
        <linearGradient x1="3.061617e-15%" y1="50%" x2="100%" y2="50%" id="linearGradient-2">
            <stop stop-color="#FF5565" offset="0%"></stop>
            <stop stop-color="#F3754D" offset="100%"></stop>
        </linearGradient>
    </defs>
    <g id="Page-1" stroke="none" stroke-width="1" fill="none" fill-rule="evenodd">
        <g id="question">
            <path d="M238.892,119.856 L478.329,119.856 C492.497,119.856 503.983,131.341 503.983,145.51 L503.983,299.434 C503.983,313.602 492.498,325.088 478.329,325.088 L341.508,325.088 L341.508,353.292 C341.508,358.662 335.015,361.352 331.219,357.554 L298.752,325.087 L238.893,325.087 C224.725,325.087 213.239,313.602 213.239,299.433 L213.239,145.509 C213.238,131.342 224.724,119.856 238.892,119.856 L238.892,119.856 Z" id="Shape" fill="url(#linearGradient-1)"></path>
            <path d="M298.751,154.061 C298.751,73.774 233.666,8.689 153.379,8.689 C73.092,8.689 8.007,73.774 8.007,154.061 C8.007,224.387 57.949,283.04 124.299,296.513 L168.084,340.298 C172.124,344.338 179.033,341.477 179.033,335.763 L179.033,297.036 C247.063,284.902 298.751,225.58 298.751,154.061 L298.751,154.061 Z" id="Shape" fill="url(#linearGradient-2)"></path>
            <path d="M478.329,111.82 L300.803,111.82 C292.903,84.309 277.391,59.227 255.67,39.778 C222.749,10.297 180.224,-3.238 135.921,1.659 C64.871,9.518 8.048,66.871 0.809,138.032 C-3.144,176.878 7.479,215.283 30.718,246.172 C52.989,275.772 84.947,296.235 120.921,303.988 L158.766,341.832 C161.943,345.01 166.161,346.693 170.464,346.692 C172.602,346.692 174.76,346.276 176.822,345.422 C183.036,342.848 187.049,336.84 187.049,330.115 L187.049,303.62 C193.272,302.229 199.334,300.465 205.221,298.363 L205.221,299.413 C205.221,317.979 220.326,333.084 238.892,333.084 L295.431,333.084 L325.55,363.203 C328.244,365.897 331.819,367.324 335.466,367.324 C337.278,367.324 339.107,366.971 340.855,366.248 C346.122,364.066 349.525,358.973 349.525,353.272 L349.525,333.084 L478.33,333.084 C496.896,333.084 512.001,317.979 512.001,299.413 L512.001,145.489 C512,126.924 496.895,111.82 478.329,111.82 L478.329,111.82 Z M177.625,289.164 C173.8,289.846 171.016,293.171 171.016,297.056 L171.016,330.116 C171.016,330.307 171.016,330.473 170.686,330.61 C170.356,330.745 170.24,330.629 170.103,330.495 L130.564,290.956 C129.443,289.835 128.014,289.07 126.458,288.762 C93.374,282.187 63.923,263.638 43.53,236.533 C22.725,208.879 13.217,174.474 16.759,139.655 C19.88,108.97 33.773,79.782 55.878,57.465 C77.987,35.145 107.038,20.986 137.683,17.597 C143.015,17.007 148.311,16.715 153.568,16.715 C187.461,16.715 219.452,28.869 244.973,51.722 C274.055,77.764 290.734,115.072 290.734,154.081 C290.735,220.663 243.166,277.473 177.625,289.164 L177.625,289.164 Z M495.966,299.414 C495.966,309.139 488.054,317.051 478.329,317.051 L341.508,317.051 C337.081,317.051 333.491,320.64 333.491,325.068 L333.491,348.471 L304.42,319.4 C302.917,317.896 300.878,317.052 298.752,317.052 L238.893,317.052 C229.168,317.052 221.256,309.14 221.256,299.415 L221.256,291.597 C272.576,266.373 306.769,213.741 306.769,154.082 C306.769,145.23 305.988,136.46 304.489,127.854 L478.33,127.854 C488.055,127.854 495.967,135.766 495.967,145.491 L495.967,299.414 L495.966,299.414 Z" id="Shape" fill="#FFFFFF"></path>
            <path d="M358.61,253.872 L321.541,216.803 C318.41,213.672 313.334,213.672 310.204,216.803 C307.073,219.934 307.073,225.01 310.204,228.14 L352.941,270.877 C354.506,272.442 356.558,273.225 358.609,273.225 C360.66,273.225 362.713,272.443 364.277,270.877 L412.886585,222.267415 C425.187723,209.966277 449.79,185.364 449.79,185.364 C452.921,182.233 452.921,177.157 449.79,174.027 C446.662,170.896 441.586,170.896 438.455,174.027 L358.61,253.872 Z" id="Shape" fill="#FFFFFF"></path>
            <path d="M153.385,214.464 L153.374,214.464 C148.947,214.464 145.352,218.059 145.352,222.486 L145.352,222.491 L145.352,222.496 C145.352,226.923 148.947,230.518 153.374,230.518 L153.385,230.518 C157.812,230.518 161.407,226.923 161.407,222.496 L161.407,222.491 L161.407,222.486 C161.407,218.059 157.812,214.464 153.385,214.464 L153.385,214.464 Z" id="Shape" fill="#FFFFFF"></path>
            <path d="M102.606,128.427 C102.606,132.854 106.195,136.444 110.623,136.444 C115.05,136.444 118.64,132.855 118.64,128.427 C118.64,109.273 134.223,93.688 153.376,93.687 C162.415,93.687 171.073,97.366 177.756,104.049 C184.439,110.732 188.119,119.391 188.119,128.43 C188.118,143.657 177.943,157.341 163.377,161.708 C152.601,164.939 145.363,174.594 145.363,185.732 L145.363,188.286 C145.363,192.713 148.952,196.303 153.38,196.303 C157.807,196.303 161.397,192.714 161.397,188.286 L161.397,185.732 C161.397,181.73 164.044,178.247 167.984,177.066 C189.279,170.68 204.153,150.681 204.154,128.43 C204.155,115.108 198.807,102.422 189.095,92.711 C179.382,83.001 166.697,77.653 153.375,77.654 C125.381,77.656 102.606,100.434 102.606,128.427 Z" id="Shape" fill="#FFFFFF"></path>
        </g>
    </g>
</svg>