<?xml version="1.0" encoding="UTF-8"?>
<svg width="229px" height="296px" viewBox="0 0 229 296" version="1.1" xmlns="http://www.w3.org/2000/svg" xmlns:xlink="http://www.w3.org/1999/xlink">
    <!-- Generator: Sketch 50.2 (55047) - http://www.bohemiancoding.com/sketch -->
    <title>telemarketer</title>
    <desc>Created with Sketch.</desc>
    <defs></defs>
    <g id="Page-1" stroke="none" stroke-width="1" fill="none" fill-rule="evenodd">
        <g id="telemarketer" fill-rule="nonzero">
            <path d="M114.62,166.667 C56.853,166.667 9.858,213.662 9.858,271.429 L9.858,295.239 L219.382,295.239 L219.382,271.429 C219.382,213.662 172.387,166.667 114.62,166.667 Z M156.782,186.162 C143.23,215.467 123.415,257.876 114.882,275.191 L72.482,186.148 C85.206,179.834 99.477,176.191 114.62,176.191 C129.772,176.19 144.053,179.838 156.782,186.162 Z M163.901,193.467 L175.849,245.238 L126.316,273.543 C132.796,260.395 143.958,236.6 163.901,193.467 Z M103.786,274.038 L53.39,245.243 L65.366,193.357 L103.786,274.038 Z M19.382,271.429 C19.382,241.643 33.144,215.034 54.62,197.558 L42.52,249.996 L105.025,285.715 L19.382,285.715 L19.382,271.429 Z M209.858,285.714 L124.215,285.714 L186.724,249.995 L174.619,197.557 C196.095,215.033 209.857,241.643 209.857,271.428 L209.857,285.714 L209.858,285.714 Z" id="Shape" fill="#333333"></path>
            <path d="M174.001,138.095 L186.049,138.095 C193.925,138.095 200.335,131.685 200.335,123.809 L200.335,109.523 L190.811,109.523 L190.811,123.809 C190.811,126.433 188.678,128.571 186.049,128.571 L180.501,128.571 C187.015,117.347 190.811,104.361 190.811,90.476 C190.811,48.466 156.63,14.286 114.621,14.286 C72.612,14.286 38.431,48.467 38.431,90.476 C38.431,132.485 72.612,166.666 114.621,166.666 C138.615,166.667 160.025,155.49 174.001,138.095 Z M47.953,90.476 C47.953,53.714 77.858,23.809 114.62,23.809 C151.382,23.809 181.287,53.714 181.287,90.476 C181.287,104.638 176.816,117.762 169.254,128.571 L137.554,128.571 C135.583,123.042 130.344,119.047 124.144,119.047 L105.096,119.047 C97.22,119.047 90.81,125.457 90.81,133.333 C90.81,141.209 97.22,147.619 105.096,147.619 L124.144,147.619 C130.344,147.619 135.582,143.624 137.554,138.095 L161.192,138.095 C149.163,149.857 132.735,157.143 114.625,157.143 C77.858,157.143 47.953,127.238 47.953,90.476 Z M128.906,133.333 C128.906,135.957 126.773,138.095 124.144,138.095 L105.096,138.095 C102.467,138.095 100.334,135.957 100.334,133.333 C100.334,130.709 102.467,128.571 105.096,128.571 L124.144,128.571 C126.772,128.571 128.906,130.71 128.906,133.333 Z" id="Shape" fill="#333333"></path>
            <path d="M114.62,9.524 C149.034,9.524 179.758,31.338 191.077,63.805 L200.072,60.672 C187.415,24.381 153.077,0 114.62,0 C76.168,0 41.83,24.381 29.172,60.667 L38.167,63.805 C49.487,31.338 80.211,9.524 114.62,9.524 Z" id="Shape" fill="#333333"></path>
            <path d="M38.43,123.81 L33.668,123.81 C15.292,123.81 0.335,108.853 0.335,90.477 C0.335,72.101 15.292,57.144 33.668,57.144 L38.43,57.144 L38.43,123.81 Z" id="Shape" fill="#5FBA97"></path>
            <path d="M195.572,123.81 L190.81,123.81 L190.81,57.143 L195.572,57.143 C213.948,57.143 228.905,72.1 228.905,90.476 C228.905,108.852 213.949,123.81 195.572,123.81 Z" id="Shape" fill="#5FBA97"></path>
        </g>
    </g>
</svg>