<?xml version="1.0" encoding="UTF-8"?>
<svg width="512px" height="392px" viewBox="0 0 512 392" version="1.1" xmlns="http://www.w3.org/2000/svg" xmlns:xlink="http://www.w3.org/1999/xlink">
    <!-- Generator: Sketch 40 (33762) - http://www.bohemiancoding.com/sketch -->
    <title>team</title>
    <desc>Created with Sketch.</desc>
    <defs></defs>
    <g id="Page-1" stroke="none" stroke-width="1" fill="none" fill-rule="evenodd">
        <g id="team" fill="#F74D61">
            <path d="M175.839,344.814 C171.697,344.814 168.339,348.172 168.339,352.314 L168.339,384.378 C168.339,388.52 171.697,391.878 175.839,391.878 C179.981,391.878 183.339,388.52 183.339,384.378 L183.339,352.314 C183.339,348.172 179.981,344.814 175.839,344.814 L175.839,344.814 Z" id="Shape"></path>
            <path d="M336.161,344.814 C332.019,344.814 328.661,348.172 328.661,352.314 L328.661,384.378 C328.661,388.52 332.019,391.878 336.161,391.878 C340.303,391.878 343.661,388.52 343.661,384.378 L343.661,352.314 C343.661,348.172 340.303,344.814 336.161,344.814 L336.161,344.814 Z" id="Shape"></path>
            <path d="M115.063,185.284 C97.647,176.576 64.994,176.476 63.612,176.476 C59.471,176.476 56.114,179.832 56.113,183.974 C56.112,188.115 59.468,191.474 63.61,191.476 C72.048,191.481 96.533,192.789 108.355,198.7 C109.432,199.239 110.576,199.493 111.703,199.493 C114.454,199.493 117.103,197.973 118.417,195.346 C120.27,191.641 118.768,187.136 115.063,185.284 L115.063,185.284 Z" id="Shape"></path>
            <path d="M39.564,328.782 C35.422,328.782 32.064,332.14 32.064,336.282 L32.064,384.379 C32.064,388.521 35.422,391.879 39.564,391.879 C43.706,391.879 47.064,388.521 47.064,384.379 L47.064,336.282 C47.064,332.141 43.707,328.782 39.564,328.782 L39.564,328.782 Z" id="Shape"></path>
            <path d="M494.56,300.772 L464.188,285.588 C464.012,285.5 463.902,285.322 463.902,285.126 L463.904,269.861 C476.372,261.276 485.197,247.704 487.405,231.776 C493.013,222.085 495.968,211.139 495.968,200.009 C495.968,179.254 485.974,160.792 470.549,149.174 C471.453,146.163 471.92,143.057 471.92,139.888 C471.92,120.282 454.171,104.331 432.356,104.331 C410.541,104.331 392.792,120.282 392.792,139.888 C392.792,143.061 393.254,146.168 394.158,149.177 C384.961,156.105 377.709,165.473 373.343,176.303 C371.484,158.034 369.548,136.437 367.691,111.279 C365.241,78.085 353.303,50.053 333.169,30.215 C313.188,10.527 286.503,0.121 256,0.121 C225.497,0.121 198.812,10.527 178.833,30.214 C158.699,50.053 146.761,78.085 144.311,111.278 C143.66,120.091 143,128.444 142.337,136.395 L71.629,136.395 C45.393,136.395 24.048,157.74 24.048,183.976 L24.048,184.423 C24.048,190.533 25.492,196.652 28.225,202.117 L32.064,209.796 L32.064,222.041 C32.064,241.447 41.627,258.86 56.112,269.339 L56.112,280.171 C56.112,281.56 55.179,282.796 53.844,283.178 L22.881,292.025 C9.409,295.873 0,308.347 0,322.358 L0,384.379 C0,388.521 3.358,391.879 7.5,391.879 C11.642,391.879 15,388.521 15,384.379 L15,322.358 C15,315.008 19.936,308.465 27.002,306.446 L57.966,297.599 C59.083,297.28 60.144,296.847 61.154,296.333 L80.161,315.34 L80.161,384.379 C80.161,388.521 83.519,391.879 87.661,391.879 C91.803,391.879 95.161,388.521 95.161,384.379 L95.161,315.34 L114.301,296.2 C116.859,297.455 119.408,298.185 121.276,298.719 L128.879,300.891 C118.576,308.217 112.226,320.166 112.226,333.123 L112.226,384.377 C112.226,388.519 115.584,391.877 119.726,391.877 C123.868,391.877 127.226,388.519 127.226,384.377 L127.226,333.123 C127.226,323.401 132.973,314.581 141.867,310.653 L184.747,291.714 C198.184,318.623 225.642,335.765 256.001,335.765 C286.473,335.765 313.839,318.661 327.268,291.72 L370.135,310.653 C379.029,314.581 384.776,323.401 384.776,333.123 L384.776,384.377 C384.776,388.519 388.134,391.877 392.276,391.877 C396.418,391.877 399.776,388.519 399.776,384.377 L399.776,333.123 C399.776,323.529 396.289,314.491 390.304,307.465 L401.911,301.662 L410.624,309.942 C416.718,315.734 424.536,318.628 432.357,318.628 C440.175,318.628 447.997,315.732 454.089,309.942 L462.801,301.663 L487.853,314.188 C493.496,317.009 497.001,322.681 497.001,328.99 L497.001,384.378 C497.001,388.52 500.359,391.878 504.501,391.878 C508.643,391.878 512.001,388.52 512.001,384.378 L512.001,328.99 C512,316.964 505.317,306.151 494.56,300.772 L494.56,300.772 Z M432.355,119.33 C445.899,119.33 456.919,128.552 456.919,139.887 C456.919,140.362 456.881,140.833 456.843,141.303 C449.301,138.145 441.029,136.395 432.355,136.395 C423.682,136.395 415.411,138.145 407.871,141.302 C407.832,140.832 407.791,140.362 407.791,139.887 C407.791,128.552 418.811,119.33 432.355,119.33 L432.355,119.33 Z M87.662,301.628 L70.572,284.538 C70.925,283.13 71.114,281.665 71.114,280.17 L71.114,277.006 C75.832,278.555 80.808,279.474 85.957,279.628 C86.534,279.646 87.108,279.654 87.683,279.654 C93.371,279.654 98.924,278.795 104.208,277.156 L104.208,280.167 C104.208,281.794 104.375,283.27 104.672,284.618 L87.662,301.628 L87.662,301.628 Z M86.407,264.633 C64.713,263.984 47.064,244.876 47.064,222.041 L47.064,208.025 C47.064,206.861 46.793,205.712 46.272,204.671 L41.641,195.409 C39.945,192.015 39.048,188.217 39.048,184.423 L39.048,183.976 C39.048,166.011 53.664,151.395 71.629,151.395 L136.275,151.395 L136.275,182.53 C136.275,187.561 135.086,192.6 132.835,197.1 L129.05,204.67 C128.529,205.712 128.258,206.86 128.258,208.024 L128.258,224.056 C128.258,235.13 123.88,245.478 115.93,253.192 C107.984,260.902 97.493,264.969 86.407,264.633 L86.407,264.633 Z M149.09,291.065 L125.397,284.296 C119.207,282.528 119.208,281.838 119.208,280.169 L119.21,269.836 C121.729,268.091 124.131,266.138 126.378,263.957 C127.89,262.49 129.298,260.946 130.618,259.346 C131.823,261.79 133.67,263.925 136.057,265.47 C142.069,269.363 153.414,275.83 170.098,281.786 L149.09,291.065 L149.09,291.065 Z M256,320.766 C231.598,320.766 209.498,307.126 198.477,285.651 L209.394,280.829 C217.914,277.066 223.419,268.617 223.419,259.303 L223.419,241.307 C233.496,245.356 244.492,247.589 256,247.589 C267.508,247.589 278.503,245.356 288.581,241.307 L288.581,259.303 C288.581,268.617 294.086,277.067 302.606,280.829 L313.521,285.65 C302.508,307.149 280.493,320.766 256,320.766 L256,320.766 Z M321.034,272.57 L308.666,267.107 C305.577,265.743 303.581,262.679 303.581,259.302 L303.581,233.517 C327.683,217.88 343.662,190.735 343.662,159.927 L343.662,145.864 C343.662,136.724 339.776,128.102 333,122.21 C317.931,109.104 283.82,86.233 224.682,80.319 C220.571,79.907 216.885,82.913 216.473,87.036 C216.061,91.158 219.068,94.833 223.19,95.245 C278.195,100.745 309.432,121.592 323.157,133.529 C326.656,136.571 328.662,141.068 328.662,145.864 L328.662,159.927 C328.662,199.992 296.066,232.588 256.001,232.588 C215.936,232.588 183.34,199.992 183.34,159.927 L183.34,153.653 C183.34,150.771 184.938,148.131 187.614,146.59 C196.991,141.191 209.357,131.189 215.02,114.202 C216.33,110.273 214.206,106.025 210.276,104.715 C206.348,103.405 202.099,105.529 200.789,109.459 C196.617,121.975 187.251,129.49 180.129,133.591 C172.857,137.778 168.339,145.466 168.339,153.654 L168.339,159.928 C168.339,190.737 184.317,217.881 208.42,233.518 L208.42,259.303 C208.42,262.68 206.424,265.743 203.335,267.108 L190.966,272.571 C166.81,266.108 151.332,257.491 144.209,252.88 C144.067,252.788 143.987,252.683 144.027,252.446 C146.643,236.982 153.365,192.377 159.271,112.383 C161.449,82.868 171.854,58.148 189.361,40.898 C206.476,24.035 229.519,15.121 256,15.121 C282.481,15.121 305.524,24.035 322.639,40.898 C340.146,58.148 350.551,82.867 352.73,112.382 C358.635,192.373 365.357,236.98 367.974,252.445 C368.014,252.683 367.934,252.788 367.791,252.88 C360.658,257.497 345.18,266.109 321.034,272.57 L321.034,272.57 Z M400.807,285.125 C400.807,285.322 400.698,285.499 400.522,285.587 L377.024,297.336 C376.745,297.205 376.477,297.058 376.195,296.933 L341.904,281.788 C358.58,275.834 369.923,269.37 375.943,265.472 C381.115,262.123 383.793,256.029 382.764,249.944 C382.708,249.611 382.647,249.246 382.587,248.886 C386.805,257.368 393.112,264.563 400.807,269.861 L400.807,285.125 L400.807,285.125 Z M443.753,299.07 C437.362,305.146 427.348,305.145 420.955,299.07 L413.984,292.446 C415.16,290.242 415.806,287.742 415.806,285.125 L415.806,277.144 C421.044,278.769 426.6,279.653 432.354,279.653 C438.107,279.653 443.664,278.769 448.901,277.144 L448.9,285.123 C448.9,287.742 449.546,290.242 450.723,292.447 L443.753,299.07 L443.753,299.07 Z M432.355,264.652 C411.589,264.652 394.245,249.102 392.012,228.481 C391.892,227.376 391.529,226.312 390.947,225.364 C386.233,217.687 383.742,208.919 383.742,200.007 C383.742,173.203 405.549,151.395 432.355,151.395 C459.16,151.395 480.968,173.203 480.968,200.008 C480.968,205.175 480.125,210.293 478.502,215.179 C457.206,193.544 419.743,185.065 417.937,184.667 C415.719,184.178 413.397,184.722 411.625,186.145 C409.854,187.569 408.823,189.719 408.823,191.991 C408.823,192.04 408.481,197.243 403.004,202.72 C400.075,205.649 400.075,210.398 403.004,213.326 C405.933,216.255 410.682,216.255 413.61,213.326 C417.828,209.108 420.306,204.827 421.76,201.212 C434.38,204.961 460.573,214.429 472.328,231.048 C468.992,250.377 452.248,264.652 432.355,264.652 L432.355,264.652 Z" id="Shape"></path>
            <path d="M472.436,338.692 C468.294,338.692 464.936,342.05 464.936,346.192 L464.936,384.379 C464.936,388.521 468.294,391.879 472.436,391.879 C476.578,391.879 479.936,388.521 479.936,384.379 L479.936,346.192 C479.936,342.05 476.578,338.692 472.436,338.692 L472.436,338.692 Z" id="Shape"></path>
        </g>
    </g>
</svg>