<?xml version="1.0" encoding="UTF-8"?>
<svg width="301px" height="301px" viewBox="0 0 301 301" version="1.1" xmlns="http://www.w3.org/2000/svg" xmlns:xlink="http://www.w3.org/1999/xlink">
    <!-- Generator: Sketch 40 (33762) - http://www.bohemiancoding.com/sketch -->
    <title>bank</title>
    <desc>Created with Sketch.</desc>
    <defs>
        <linearGradient x1="100%" y1="50%" x2="0%" y2="50%" id="linearGradient-1">
            <stop stop-color="#39C0D3" offset="0%"></stop>
            <stop stop-color="#61B990" offset="100%"></stop>
        </linearGradient>
        <linearGradient x1="100%" y1="50%" x2="0%" y2="50%" id="linearGradient-2">
            <stop stop-color="#59BB9E" offset="0%"></stop>
            <stop stop-color="#61B990" offset="100%"></stop>
        </linearGradient>
        <linearGradient x1="98.8081952%" y1="50%" x2="0%" y2="50%" id="linearGradient-3">
            <stop stop-color="#50BCAD" offset="0%"></stop>
            <stop stop-color="#56BBA3" offset="100%"></stop>
        </linearGradient>
        <linearGradient x1="100%" y1="50%" x2="0%" y2="50%" id="linearGradient-4">
            <stop stop-color="#44BEC0" offset="0%"></stop>
            <stop stop-color="#4BBCB4" offset="100%"></stop>
        </linearGradient>
        <linearGradient x1="100%" y1="50%" x2="0%" y2="50%" id="linearGradient-5">
            <stop stop-color="#42BFC5" offset="0%"></stop>
            <stop stop-color="#41BFC5" offset="100%"></stop>
        </linearGradient>
    </defs>
    <g id="Page-1" stroke="none" stroke-width="1" fill="none" fill-rule="evenodd">
        <g id="bank">
            <g id="Group">
                <g id="Shape">
                    <path d="M0.414,300.988 L300.574,300.988 L300.574,267.099 L0.414,267.099 L0.414,300.988 L0.414,300.988 Z M10.097,276.781 L290.892,276.781 L290.892,291.305 L10.097,291.305 L10.097,276.781 L10.097,276.781 Z" fill="url(#linearGradient-1)"></path>
                    <path d="M297.049,68.606 L214.747,20.193 L183.661,20.193 L150.494,0 L117.322,20.193 L86.235,20.193 L3.938,68.606 L0.414,68.606 L0.414,102.495 L300.574,102.495 L300.574,68.606 L297.049,68.606 L297.049,68.606 Z M212.114,29.876 L277.955,68.606 L263.199,68.606 L199.57,29.876 C199.57,29.876 212.114,29.876 212.114,29.876 L212.114,29.876 Z M88.874,29.876 L101.413,29.876 L37.789,68.606 L23.032,68.606 L88.874,29.876 L88.874,29.876 Z M10.097,92.812 L10.097,78.288 L155.867409,78.288 L174.7,68.605 L56.408,68.605 L150.494,11.337 L244.58,68.605 L155.867409,68.605 C154.680717,68.605 174.7,68.605 174.7,68.605 L155.867409,78.288 L290.891,78.288 L290.891,92.812 L10.097,92.812 Z" fill="url(#linearGradient-1)"></path>
                    <path d="M10.097,238.051 L10.097,262.257 L68.192,262.257 L68.192,238.051 L53.668,238.051 L53.668,131.543 L68.192,131.543 L68.192,107.337 L10.097,107.337 L10.097,131.543 L24.62,131.543 L24.62,238.051 L10.097,238.051 L10.097,238.051 Z M58.509,247.733 L58.509,252.574 L19.779,252.574 L19.779,247.733 L24.62,247.733 L53.668,247.733 L58.509,247.733 L58.509,247.733 Z M19.779,121.86 L19.779,117.019 L58.509,117.019 L58.509,121.86 L53.668,121.86 L24.62,121.86 L19.779,121.86 L19.779,121.86 Z M34.303,131.543 L43.986,131.543 L43.986,238.051 L34.303,238.051 L34.303,131.543 L34.303,131.543 Z" fill="url(#linearGradient-2)"></path>
                    <path d="M82.716,238.051 L82.716,262.257 L140.811,262.257 L140.811,238.051 L126.287,238.051 L126.287,131.543 L140.811,131.543 L140.811,107.337 L82.716,107.337 L82.716,131.543 L97.24,131.543 L97.24,238.051 L82.716,238.051 L82.716,238.051 Z M131.129,247.733 L131.129,252.574 L92.399,252.574 L92.399,247.733 L97.24,247.733 L126.288,247.733 L131.129,247.733 L131.129,247.733 Z M92.398,121.86 L92.398,117.019 L131.128,117.019 L131.128,121.86 L126.287,121.86 L97.24,121.86 L92.398,121.86 L92.398,121.86 Z M106.922,131.543 L116.605,131.543 L116.605,238.051 L106.922,238.051 L106.922,131.543 L106.922,131.543 Z" fill="url(#linearGradient-3)"></path>
                    <path d="M160.176,262.257 L218.271,262.257 L218.271,238.051 L203.747,238.051 L203.747,131.543 L218.271,131.543 L218.271,107.337 L160.176,107.337 L160.176,131.543 L174.7,131.543 L174.7,238.051 L160.176,238.051 L160.176,262.257 Z M208.589,247.733 L208.589,252.574 L169.859,252.574 L169.859,247.733 L174.7,247.733 L203.748,247.733 L208.589,247.733 L208.589,247.733 Z M169.859,121.86 L169.859,117.019 L208.589,117.019 L208.589,121.86 L203.748,121.86 L174.7,121.86 L169.859,121.86 L169.859,121.86 Z M184.383,131.543 L194.066,131.543 L194.066,238.051 L184.383,238.051 L184.383,131.543 L184.383,131.543 Z" fill="url(#linearGradient-4)"></path>
                    <path d="M232.796,238.051 L232.796,262.257 L290.891,262.257 L290.891,238.051 L276.367,238.051 L276.367,131.543 L290.891,131.543 L290.891,107.337 L232.796,107.337 L232.796,131.543 L247.32,131.543 L247.32,238.051 L232.796,238.051 L232.796,238.051 Z M281.208,247.733 L281.208,252.574 L242.478,252.574 L242.478,247.733 L247.319,247.733 L276.367,247.733 L281.208,247.733 L281.208,247.733 Z M242.478,121.86 L242.478,117.019 L281.208,117.019 L281.208,121.86 L276.367,121.86 L247.319,121.86 L242.478,121.86 L242.478,121.86 Z M257.002,131.543 L266.685,131.543 L266.685,238.051 L257.002,238.051 L257.002,131.543 L257.002,131.543 Z" fill="url(#linearGradient-5)"></path>
                </g>
                <path d="M122,58.1975 C122,42.652223 134.652223,30 150.1975,30 C165.742777,30 178.395,42.652223 178.395,58.1975 C178.395,73.742777 165.741945,86.395 150.1975,86.395 C134.652223,86.395 122,73.742777 122,58.1975 Z" id="Shape" fill="#4EBEB2"></path>
            </g>
        </g>
    </g>
</svg>