<?xml version="1.0" encoding="UTF-8"?>
<svg width="490px" height="489px" viewBox="0 0 490 489" version="1.1" xmlns="http://www.w3.org/2000/svg" xmlns:xlink="http://www.w3.org/1999/xlink">
    <!-- Generator: Sketch 40 (33762) - http://www.bohemiancoding.com/sketch -->
    <title>businessman</title>
    <desc>Created with Sketch.</desc>
    <defs></defs>
    <g id="Page-1" stroke="none" stroke-width="1" fill="none" fill-rule="evenodd">
        <g id="businessman">
            <path d="M314.616,200.784 C334.064,200.264 349.76,182.608 349.76,160.88 C349.76,149.104 345.072,138.608 337.76,131.288 L337.76,120.88 C337.76,54.712 283.928,0.88 217.76,0.88 C151.592,0.88 97.76,54.712 97.76,120.88 L97.76,136.048 C92.832,142.896 89.76,151.456 89.76,160.88 C89.76,181.024 103.28,197.576 120.744,200.32 C128.448,221.64 142.336,240.216 160.656,253.856 L126.408,280.656 L81.48,288.464 C48.888,294.136 22.624,319.744 16.136,352.184 L0,432.88 L172.168,432.88 L210.824,432.88 L225.76,432.88 L264.408,432.88 L305.76,432.88 L305.76,416.88 L276.496,416.88 L325.408,352.144 L305.776,332.504 L325.656,326.16 L317.968,298.424 L331.392,300.76 L334.128,284.992 L310.488,280.88 L275.408,253.424 C293.32,239.936 306.952,221.696 314.616,200.784 L314.616,200.784 Z M333.76,160.88 C333.76,171.752 327.672,180.848 319.392,183.792 C320.904,176.28 321.76,168.552 321.76,160.672 L321.76,138.912 C328.816,142.624 333.76,151.064 333.76,160.88 L333.76,160.88 Z M105.76,160.88 C105.76,153.072 108.928,146.184 113.76,141.8 L113.76,160.672 C113.76,167.76 114.472,174.712 115.696,181.504 C109.784,177.328 105.76,169.696 105.76,160.88 L105.76,160.88 Z M113.76,120.88 C113.76,63.536 160.416,16.88 217.76,16.88 C275.104,16.88 321.76,63.536 321.76,120.88 L313.76,120.88 C281.424,120.88 264.696,100.728 264.024,99.904 L260.272,95.2 L254.712,97.48 C254.144,97.712 196.912,120.88 121.76,120.88 L113.76,120.88 L113.76,120.88 Z M19.52,416.88 L31.832,355.32 C37.032,329.304 58.096,308.776 84.232,304.224 L118.68,298.232 L110.928,326.16 L130.816,332.512 L111.184,352.144 L160.088,416.88 L19.52,416.88 L19.52,416.88 Z M180.144,416.88 L132.336,353.616 L160.704,325.248 L130.456,315.6 L136.776,292.864 L164.216,271.384 L200.592,416.88 L180.144,416.88 L180.144,416.88 Z M218.448,416.88 L217.072,416.88 L179.112,265.048 C181.176,266.056 183.192,267.144 185.336,268.032 C195.64,272.336 206.696,274.48 217.76,274.48 C228.816,274.48 239.88,272.328 250.184,268.032 C252.328,267.136 254.344,266.056 256.408,265.048 L218.448,416.88 L218.448,416.88 Z M299.816,292.864 L306.128,315.6 L275.888,325.256 L304.256,353.616 L256.44,416.88 L234.936,416.88 L271.488,270.68 L299.816,292.864 L299.816,292.864 Z M244.024,253.272 C227.336,260.224 208.184,260.224 191.496,253.272 C153.992,237.648 129.76,201.296 129.76,160.672 L129.76,136.8 C191.992,135.536 240.168,119.904 255.624,114.264 C262.904,121.248 279.72,134.248 305.76,136.536 L305.76,160.672 C305.76,201.296 281.528,237.648 244.024,253.272 L244.024,253.272 Z" id="Shape" fill="#273F5B"></path>
            <g id="Group" transform="translate(297.000000, 208.000000)" fill="#793EE4">
                <path d="M135.072,96.88 L58.44,96.88 C24.504,111.68 0.76,145.488 0.76,184.88 C0.76,237.896 43.744,280.88 96.76,280.88 C149.776,280.88 192.76,237.896 192.76,184.88 C192.76,145.488 169.016,111.68 135.072,96.88 L135.072,96.88 Z" id="Shape"></path>
                <path d="M140.76,0.88 C134.136,0.88 128.76,6.256 128.76,12.88 L128.76,20.88 C128.76,27.504 123.384,32.88 116.76,32.88 C110.136,32.88 104.76,27.504 104.76,20.88 L104.76,12.88 C104.76,6.256 99.384,0.88 92.76,0.88 C86.136,0.88 80.76,6.256 80.76,12.88 L80.76,20.88 C80.76,27.504 75.384,32.88 68.76,32.88 C62.136,32.88 56.76,27.504 56.76,20.88 L56.76,12.88 C56.76,6.256 51.384,0.88 44.76,0.88 C38.136,0.88 32.76,6.256 32.76,12.88 L32.76,32.6 C32.76,43.216 35.904,53.592 41.792,62.424 L48.76,72.88 L136.76,72.88 L143.728,62.424 C149.616,53.592 152.76,43.216 152.76,32.6 L152.76,12.88 C152.76,6.256 147.384,0.88 140.76,0.88 L140.76,0.88 Z" id="Shape"></path>
            </g>
            <g id="Group" transform="translate(321.000000, 272.000000)">
                <path d="M124.76,40.88 L20.76,40.88 C9.728,40.88 0.76,31.912 0.76,20.88 C0.76,9.848 9.728,0.88 20.76,0.88 L124.76,0.88 C135.792,0.88 144.76,9.848 144.76,20.88 C144.76,31.912 135.792,40.88 124.76,40.88 L124.76,40.88 Z M20.76,16.88 C18.56,16.88 16.76,18.68 16.76,20.88 C16.76,23.08 18.56,24.88 20.76,24.88 L124.76,24.88 C126.96,24.88 128.76,23.08 128.76,20.88 C128.76,18.68 126.96,16.88 124.76,16.88 L20.76,16.88 L20.76,16.88 Z" id="Shape" fill="#273F5B"></path>
                <path d="M112.76,104.88 L112.76,100.88 C112.76,85.44 100.2,72.88 84.76,72.88 L80.76,72.88 L80.76,56.88 L64.76,56.88 L64.76,72.88 L60.76,72.88 C45.32,72.88 32.76,85.44 32.76,100.88 C32.76,116.32 45.32,128.88 60.76,128.88 L84.76,128.88 C91.376,128.88 96.76,134.264 96.76,140.88 C96.76,147.496 91.376,152.88 84.76,152.88 L60.76,152.88 C54.144,152.88 48.76,147.496 48.76,140.88 L48.76,136.88 L32.76,136.88 L32.76,140.88 C32.76,156.32 45.32,168.88 60.76,168.88 L64.76,168.88 L64.76,184.88 L80.76,184.88 L80.76,168.88 L84.76,168.88 C100.2,168.88 112.76,156.32 112.76,140.88 C112.76,125.44 100.2,112.88 84.76,112.88 L60.76,112.88 C54.144,112.88 48.76,107.496 48.76,100.88 C48.76,94.264 54.144,88.88 60.76,88.88 L84.76,88.88 C91.376,88.88 96.76,94.264 96.76,100.88 L96.76,104.88 L112.76,104.88 L112.76,104.88 Z" id="Shape" fill="#FFFFFF"></path>
            </g>
        </g>
    </g>
</svg>