<?xml version="1.0" encoding="UTF-8"?>
<svg width="268px" height="181px" viewBox="0 0 268 181" version="1.1" xmlns="http://www.w3.org/2000/svg" xmlns:xlink="http://www.w3.org/1999/xlink">
    <!-- Generator: Sketch 40 (33762) - http://www.bohemiancoding.com/sketch -->
    <title>crown</title>
    <desc>Created with Sketch.</desc>
    <defs></defs>
    <g id="Page-1" stroke="none" stroke-width="1" fill="none" fill-rule="evenodd">
        <g id="crown" fill="#FFFFFF">
            <path d="M256.975,57.34 C257.016,58.076 256.962,58.825 256.777,59.569 L240.277,125.569 C239.445,128.894 236.465,131.232 233.039,131.25 L134.039,131.75 L134.001,131.75 L35,131.75 C31.556,131.75 28.555,129.404 27.723,126.062 L11.223,59.812 C11.033,59.048 10.978,58.278 11.026,57.523 C4.643,55.512 0,49.539 0,42.5 C0,33.815 7.065,26.75 15.75,26.75 C24.435,26.75 31.5,33.815 31.5,42.5 C31.5,47.391 29.259,51.767 25.75,54.658 L46.408,75.472 C51.629,80.733 58.874,83.749 66.286,83.749 C75.05,83.749 83.406,79.587 88.668,72.614 L122.618,27.63 C119.766,24.78 118,20.842 118,16.5 C118,7.815 125.065,0.75 133.75,0.75 C142.435,0.75 149.5,7.815 149.5,16.5 C149.5,20.712 147.828,24.535 145.125,27.364 C145.134,27.376 145.145,27.386 145.154,27.399 L178.858,72.507 C184.118,79.547 192.504,83.75 201.293,83.75 C208.773,83.75 215.807,80.837 221.096,75.547 L241.884,54.759 C238.301,51.869 236,47.451 236,42.5 C236,33.815 243.065,26.75 251.75,26.75 C260.435,26.75 267.5,33.815 267.5,42.5 C267.5,49.351 263.095,55.178 256.975,57.34 L256.975,57.34 Z M238.667,155.25 C238.667,151.108 235.309,147.75 231.167,147.75 L37.167,147.75 C33.025,147.75 29.667,151.108 29.667,155.25 L29.667,173.25 C29.667,177.392 33.025,180.75 37.167,180.75 L231.167,180.75 C235.309,180.75 238.667,177.392 238.667,173.25 L238.667,155.25 L238.667,155.25 Z" id="Shape"></path>
        </g>
    </g>
</svg>