<?xml version="1.0" encoding="UTF-8"?>
<svg width="497px" height="473px" viewBox="0 0 497 473" version="1.1" xmlns="http://www.w3.org/2000/svg" xmlns:xlink="http://www.w3.org/1999/xlink">
    <!-- Generator: Sketch 40 (33762) - http://www.bohemiancoding.com/sketch -->
    <title>donates</title>
    <desc>Created with Sketch.</desc>
    <defs></defs>
    <g id="Page-1" stroke="none" stroke-width="1" fill="none" fill-rule="evenodd">
        <g id="donates" fill="#FFFFFF">
            <g id="Group">
                <path d="M463.182,108.48 C420.55,63.904 350.086,59.968 302.83,99.488 L248.086,145.256 L193.342,99.488 C146.054,59.96 75.622,63.912 32.99,108.48 C10.31,132.192 -1.642,164.64 0.182,197.504 C2.014,230.336 17.462,261.232 42.598,282.248 L66.75,302.432 C61.734,314.152 62.622,327.92 70.454,338.216 C76.422,346.056 85.054,350.984 94.758,352.064 C97.102,352.32 99.43,352.368 101.734,352.168 C101.542,353.8 101.446,355.456 101.47,357.128 C101.638,367.968 106.646,378.072 115.238,384.832 C122.35,390.416 131.214,392.76 140.03,391.96 C139.806,393.664 139.71,395.392 139.734,397.136 C139.902,407.976 144.902,418.064 153.494,424.824 C160.606,430.408 169.462,432.816 178.286,431.952 C178.07,433.656 177.966,435.392 177.99,437.136 C178.158,447.976 183.166,458.072 191.758,464.824 C197.942,469.688 205.494,472.104 213.134,472.104 C221.518,472.104 229.998,469.2 236.894,463.432 L239.974,460.856 C246.694,466.944 255.206,470.008 263.71,470 C272.518,470 281.302,466.76 288.11,460.288 C295.254,453.488 299.286,443.928 299.214,434.056 C299.206,433.168 298.99,432.312 298.918,431.432 C300.542,431.656 302.166,431.872 303.806,431.872 C312.606,431.872 321.39,428.64 328.198,422.168 C335.334,415.376 339.374,405.824 339.302,395.944 C339.294,395.056 339.078,394.192 339.006,393.312 C340.63,393.536 342.262,393.752 343.902,393.752 C352.694,393.752 361.486,390.504 368.286,384.032 C375.43,377.248 379.47,367.696 379.398,357.816 C379.39,356.92 379.174,356.064 379.102,355.176 C380.726,355.4 382.35,355.616 383.99,355.616 C392.79,355.616 401.582,352.376 408.39,345.904 C415.534,339.104 419.566,329.544 419.494,319.672 C419.47,317.048 419.118,314.464 418.534,311.944 C418.614,311.88 418.71,311.864 418.79,311.792 L453.598,282.248 C478.734,261.232 494.182,230.344 496.014,197.504 C497.814,164.632 485.862,132.192 463.182,108.48 L463.182,108.48 Z M52.87,269.96 C30.806,251.512 17.766,225.464 16.166,196.608 C14.558,167.736 24.646,140.36 44.558,119.536 C81.39,81.024 142.246,77.6 183.078,111.76 L313.366,220.688 C317.654,224.28 320.19,229.344 320.502,234.96 C320.814,240.576 318.854,245.904 314.982,249.952 C307.862,257.4 296.454,258.128 288.446,251.688 L229.446,204.152 C226.006,201.368 220.966,201.92 218.206,205.36 C218.19,205.384 218.19,205.408 218.174,205.424 L218.11,205.368 C208.358,217.728 193.79,224.816 178.142,224.816 C149.974,224.816 127.062,201.704 127.062,173.312 L111.062,173.312 C111.062,198.264 124.622,220.048 144.67,231.728 L77.102,288.232 C76.71,288.56 76.414,288.968 76.038,289.312 L52.87,269.96 L52.87,269.96 Z M201.638,452.248 C196.862,448.488 194.07,442.896 193.982,436.904 C193.886,430.896 196.462,425.256 201.038,421.424 L205.31,417.848 C206.478,425.96 210.238,433.552 216.31,439.136 L228.07,449.952 L226.614,451.168 C219.206,457.352 208.702,457.808 201.638,452.248 L201.638,452.248 Z M277.062,448.688 C269.71,455.696 258.078,455.816 250.566,448.904 L227.134,427.352 C223.07,423.608 220.806,418.504 220.766,412.944 C220.718,407.4 222.902,402.248 226.902,398.448 C230.63,394.904 235.438,393.128 240.262,393.128 C244.974,393.128 249.686,394.824 253.39,398.232 L261.086,405.312 L276.854,419.824 C280.894,423.56 283.15,428.656 283.198,434.184 C283.246,439.728 281.062,444.888 277.062,448.688 L277.062,448.688 Z M317.15,410.568 C309.782,417.56 298.158,417.672 290.662,410.792 L287.718,408.08 C287.694,408.056 287.678,408.032 287.654,408.008 L267.222,389.216 L267.222,389.216 C263.166,385.48 260.902,380.376 260.854,374.824 C260.806,369.272 262.99,364.12 266.99,360.32 C270.718,356.784 275.526,355 280.35,355 C285.062,355 289.782,356.704 293.486,360.112 L316.918,381.664 C320.982,385.408 323.246,390.512 323.286,396.072 C323.334,401.608 321.15,406.76 317.15,410.568 L317.15,410.568 Z M357.246,372.432 C349.878,379.44 338.254,379.544 330.758,372.648 L307.318,351.088 C303.254,347.352 300.998,342.24 300.95,336.688 C300.902,331.136 303.086,325.992 307.086,322.192 C310.814,318.648 315.63,316.872 320.454,316.872 C325.166,316.872 329.878,318.568 333.574,321.976 L350.646,337.68 L357.03,343.56 C361.078,347.288 363.326,352.4 363.374,357.944 C363.422,363.488 361.246,368.624 357.246,372.432 L357.246,372.432 Z M397.342,334.304 C389.974,341.312 378.342,341.408 370.846,334.528 L367.894,331.808 C367.87,331.792 367.862,331.76 367.838,331.744 L349.638,315 L347.414,312.952 C343.35,309.208 341.086,304.104 341.046,298.544 C340.998,293 343.182,287.848 347.182,284.048 C350.902,280.504 355.71,278.728 360.534,278.728 C365.246,278.728 369.966,280.432 373.67,283.84 L397.11,305.4 C401.166,309.136 403.43,314.24 403.478,319.792 C403.526,325.344 401.342,330.504 397.342,334.304 L397.342,334.304 Z M480.006,196.608 C478.406,225.456 465.366,251.512 443.254,270 L411.134,297.264 C410.102,296.016 409.126,294.728 407.926,293.624 L384.486,272.064 C370.83,259.512 349.598,259.664 336.142,272.464 C329.006,279.256 324.966,288.808 325.038,298.688 C325.046,299.576 325.262,300.432 325.334,301.312 C314.982,299.88 304.118,302.928 296.046,310.592 C288.91,317.384 284.862,326.944 284.942,336.816 C284.95,337.704 285.166,338.56 285.238,339.44 C274.886,338.008 264.022,341.04 255.95,348.712 C248.806,355.512 244.774,365.072 244.846,374.944 C244.854,375.832 245.07,376.688 245.142,377.56 C234.79,376.128 223.934,379.168 215.862,386.84 C213.774,388.824 212.046,391.096 210.51,393.496 C209.486,393.8 208.494,394.296 207.614,395.024 L190.79,409.104 C190.782,409.112 190.766,409.112 190.758,409.12 L188.334,411.152 C180.934,417.328 170.438,417.8 163.358,412.232 C158.582,408.472 155.798,402.88 155.71,396.888 C155.614,390.888 158.182,385.264 162.734,381.432 L162.774,381.4 L162.774,381.4 L245.99,311.816 L235.726,299.536 L152.51,369.12 L152.518,369.128 L152.51,369.128 L152.502,369.128 L150.086,371.152 C142.678,377.352 132.182,377.8 125.11,372.24 C120.334,368.48 117.542,362.88 117.454,356.88 C117.366,350.88 119.934,345.256 124.486,341.432 L124.518,341.408 L208.902,270.848 L198.638,258.568 L114.254,329.128 C114.238,329.144 114.222,329.16 114.206,329.176 L111.118,331.744 C107.014,335.184 101.838,336.704 96.526,336.152 C91.214,335.552 86.47,332.84 83.174,328.512 C76.894,320.248 78.758,307.68 87.342,300.504 L161.374,238.6 C166.734,239.992 172.326,240.816 178.11,240.816 C195.974,240.816 212.75,233.784 225.246,221.32 L278.382,264.136 C292.91,275.864 313.598,274.512 326.526,261.008 C333.39,253.832 337.022,244.008 336.462,234.064 C335.91,224.128 331.23,214.776 323.622,208.408 L260.55,155.672 L313.078,111.752 C353.91,77.584 414.774,81.008 451.598,119.528 C471.534,140.36 481.622,167.736 480.006,196.608 L480.006,196.608 Z" id="Shape"></path>
                <path d="M240.006,72.088 L240.006,80.088 L256.006,80.088 L256.006,72.088 L260.006,72.088 C271.038,72.088 280.006,63.12 280.006,52.088 C280.006,41.056 271.03,32.088 260.006,32.088 L236.006,32.088 C233.806,32.088 232.006,30.288 232.006,28.088 C232.006,25.888 233.806,24.088 236.006,24.088 L260.006,24.088 C262.206,24.088 264.006,25.888 264.006,28.088 L264.006,32.088 L280.006,32.088 L280.006,28.088 C280.006,17.056 271.038,8.088 260.006,8.088 L256.006,8.088 L256.006,0.088 L240.006,0.088 L240.006,8.088 L236.006,8.088 C224.974,8.088 216.006,17.056 216.006,28.088 C216.006,39.12 224.974,48.088 236.006,48.088 L260.006,48.088 C262.206,48.088 264.006,49.888 264.006,52.088 C264.006,54.288 262.206,56.088 260.006,56.088 L236.006,56.088 C233.806,56.088 232.006,54.288 232.006,52.088 L232.006,48.088 L216.006,48.088 L216.006,52.088 C216.006,63.12 224.974,72.088 236.006,72.088 L240.006,72.088 Z" id="Shape"></path>
                <path d="M344.926,40.192 L345.766,24.208 C344.294,24.128 342.806,24.088 341.326,24.088 L328.414,24.088 L328.414,40.088 L341.318,40.088 C342.526,40.088 343.726,40.128 344.926,40.192 L344.926,40.192 Z" id="Shape"></path>
                <path d="M381.526,34.536 C376.078,31.48 370.27,29.048 364.246,27.312 L359.806,42.688 C364.646,44.088 369.326,46.04 373.71,48.496 L381.526,34.536 L381.526,34.536 Z" id="Shape"></path>
                <path d="M409.078,59.488 C405.51,54.36 401.342,49.64 396.71,45.448 L385.974,57.304 C389.71,60.688 393.07,64.496 395.95,68.64 L409.078,59.488 L409.078,59.488 Z" id="Shape"></path>
                <path d="M110.078,57.248 L99.358,45.376 C94.718,49.56 90.55,54.272 86.966,59.4 L100.078,68.568 C102.974,64.432 106.342,60.624 110.078,57.248 L110.078,57.248 Z" id="Shape"></path>
                <path d="M136.294,42.656 L131.87,27.28 C125.854,29.008 120.038,31.432 114.574,34.48 L122.374,48.448 C126.758,46 131.446,44.048 136.294,42.656 L136.294,42.656 Z" id="Shape"></path>
                <path d="M154.678,40.088 L167.694,40.088 L167.694,24.088 L154.678,24.088 C153.206,24.088 151.766,24.12 150.318,24.2 L151.174,40.184 C152.342,40.12 153.51,40.088 154.678,40.088 L154.678,40.088 Z" id="Shape"></path>
            </g>
        </g>
    </g>
</svg>