<?xml version="1.0" encoding="UTF-8"?>
<svg width="496px" height="496px" viewBox="0 0 496 496" version="1.1" xmlns="http://www.w3.org/2000/svg" xmlns:xlink="http://www.w3.org/1999/xlink">
    <!-- Generator: Sketch 40 (33762) - http://www.bohemiancoding.com/sketch -->
    <title>gifts</title>
    <desc>Created with Sketch.</desc>
    <defs></defs>
    <g id="Page-1" stroke="none" stroke-width="1" fill="none" fill-rule="evenodd">
        <g id="gifts">
            <g id="Group" fill="#FFFFFF">
                <path d="M426.56,191.408 L407,156.128 L393,163.88 L404.848,185.256 C380.584,179.16 353.064,174.64 324.24,171.76 C320.488,134.192 313.968,98.792 304.784,70 L324.616,79.248 L331.384,64.752 L296.944,48.696 C284.288,18.792 267.904,0 248,0 C207.064,0 180.992,79.304 171.76,171.744 C166.936,172.224 162.088,172.68 157.352,173.248 L159.272,189.136 C162.904,188.696 166.64,188.36 170.328,187.976 C168.792,207.784 168,227.992 168,248 C168,268.04 168.8,288.288 170.336,308.12 C76.56,298.424 16,272.128 16,248 C16,237.976 26.984,229.08 36.2,223.384 L27.792,209.776 C9.352,221.168 0,234.032 0,248 C0,288.936 79.32,315.016 171.76,324.24 C180.984,416.68 207.064,496 248,496 C286.84,496 306.912,426.072 315.424,384.384 L299.752,381.184 C287.496,441.208 267.184,480 248,480 C223.872,480 197.576,419.44 187.88,325.664 C207.712,327.2 227.96,328 248,328 L256.072,327.96 L255.928,311.96 L248,312 C226.352,312 205.752,311.152 186.392,309.608 C184.848,290.248 184,269.648 184,248 C184,226.384 184.848,205.816 186.384,186.48 C206.368,184.872 226.96,184 248,184 C269.648,184 290.248,184.848 309.608,186.392 C311.152,205.752 312,226.352 312,248 L311.96,255.928 L327.96,256.072 L328,248 C328,227.96 327.2,207.712 325.664,187.88 C354.864,190.896 380.832,195.52 402.76,201.192 L379.432,217.432 L388.576,230.56 L422.544,206.912 C458.984,218.808 480,233.784 480,248 C480,267.184 441.208,287.496 381.184,299.744 L384.384,315.416 C426.072,306.912 496,286.848 496,248 C496,223.808 468.288,204.808 426.56,191.408 L426.56,191.408 Z M248,168 C227.504,168 207.424,168.832 187.88,170.328 C197.576,76.552 223.872,16 248,16 C259.448,16 271.384,29.64 281.808,53.976 L265.016,84.104 L278.984,91.904 L289.152,73.68 C297.408,99.056 304.152,131.92 308.128,170.344 C288.288,168.8 268.04,168 248,168 L248,168 Z" id="Shape"></path>
                <path d="M190.4,440.552 C189.68,439.832 188.8,439.192 187.84,438.792 C186.328,438.152 184.72,437.992 183.2,438.392 C182.648,438.472 182.16,438.632 181.688,438.792 C181.2,439.032 180.728,439.28 180.328,439.512 C179.84,439.832 179.448,440.152 179.128,440.552 C178.328,441.28 177.768,442.152 177.368,443.112 C176.968,444.152 176.728,445.192 176.728,446.24 C176.728,447.28 176.968,448.32 177.368,449.28 C177.768,450.24 178.328,451.112 179.128,451.832 C180.648,453.352 182.648,454.24 184.728,454.24 C186.888,454.24 188.888,453.36 190.408,451.832 C191.128,451.112 191.768,450.24 192.168,449.28 C192.568,448.32 192.728,447.28 192.728,446.24 C192.728,445.192 192.56,444.152 192.168,443.112 C191.76,442.16 191.12,441.28 190.4,440.552 L190.4,440.552 Z" id="Shape"></path>
                <path d="M95.832,390 C92.712,393.192 92.712,398.24 95.832,401.36 C97.432,402.872 99.432,403.68 101.512,403.68 C103.512,403.68 105.6,402.872 107.192,401.28 C110.32,398.152 110.24,393.112 107.112,390 C104,386.872 98.96,386.872 95.832,390 L95.832,390 Z" id="Shape"></path>
            </g>
            <path d="M96,272 C56.296,272 24,239.704 24,200 C24,160.296 56.296,128 96,128 C135.704,128 168,160.296 168,200 C168,239.704 135.704,272 96,272 L96,272 Z" id="Shape" fill="#FFFFFF"></path>
            <g id="Group" transform="translate(72.000000, 362.000000)" fill="#FFFFFF">
                <path d="M3.44,2.4 C-0.16,5.04 -0.88,10 1.68,13.6 C3.28,15.76 5.68,16.872 8.16,16.872 C9.76,16.872 11.44,16.392 12.88,15.28 C16.48,12.72 17.2,7.68 14.648,4.152 C12,0.552 6.96,-0.24 3.44,2.4 L3.44,2.4 Z" id="Shape"></path>
                <path d="M86.08,64.72 L86.08,64.64 C82.08,62.72 77.28,64.24 75.28,68.24 C73.28,72.152 74.872,76.96 78.872,78.96 L78.792,78.96 C79.992,79.512 81.192,79.832 82.392,79.832 C85.352,79.832 88.152,78.24 89.592,75.432 C91.6,71.512 90,66.64 86.08,64.72 L86.08,64.72 Z" id="Shape"></path>
            </g>
            <path d="M320,392 C280.296,392 248,359.704 248,320 C248,280.296 280.296,248 320,248 C359.704,248 392,280.296 392,320 C392,359.704 359.704,392 320,392 L320,392 Z" id="Shape" fill="#FFFFFF"></path>
            <g id="Group" transform="translate(42.000000, 41.000000)">
                <path d="M78,371.16 C75.36,374.68 76.16,379.72 79.76,382.288 C81.2,383.328 82.8,383.8 84.48,383.8 C86.968,383.8 89.44,382.68 90.968,380.52 C93.52,376.928 92.728,371.88 89.128,369.328 C85.512,366.76 80.552,367.552 78,371.16 L78,371.16 Z" id="Shape" fill="#FFFFFF"></path>
                <path d="M17.28,294.92 C13.36,296.92 11.76,301.792 13.832,305.72 C15.192,308.44 18.072,310.04 20.96,310.04 C22.152,310.04 23.44,309.72 24.64,309.16 C28.472,307.16 30.08,302.288 28.08,298.36 C26,294.44 21.192,292.92 17.28,294.92 L17.28,294.92 Z" id="Shape" fill="#FFFFFF"></path>
                <path d="M15.68,274.76 C16.08,273.8 16.24,272.84 16.24,271.72 C16.24,270.68 16.072,269.64 15.68,268.68 C15.288,267.72 14.64,266.84 13.92,266.12 C10.96,263.08 5.6,263.08 2.64,266.12 C1.832,266.84 1.28,267.72 0.872,268.68 C0.472,269.64 0.24,270.68 0.24,271.72 C0.24,272.84 0.472,273.8 0.872,274.76 C1.28,275.8 1.832,276.6 2.64,277.4 C3.36,278.12 4.24,278.76 5.192,279.16 C6.152,279.56 7.192,279.72 8.24,279.72 C9.36,279.72 10.4,279.552 11.36,279.16 C12.32,278.768 13.192,278.12 13.92,277.4 C14.64,276.6 15.28,275.8 15.68,274.76 L15.68,274.76 Z" id="Shape" fill="#FFFFFF"></path>
                <path d="M409.44,266.04 C407.2,263.8 403.608,263.08 400.72,264.28 C399.68,264.68 398.8,265.24 398.08,266.04 C397.36,266.76 396.8,267.64 396.4,268.6 C395.92,269.552 395.76,270.6 395.76,271.64 C395.76,272.76 395.928,273.8 396.32,274.76 C396.712,275.72 397.36,276.6 398.08,277.32 C398.8,278.04 399.68,278.68 400.72,279.08 C401.68,279.48 402.72,279.64 403.76,279.64 C405.84,279.64 407.928,278.832 409.44,277.32 C410.16,276.6 410.72,275.72 411.12,274.76 C411.52,273.8 411.76,272.76 411.76,271.64 C411.76,270.6 411.52,269.552 411.12,268.6 C410.72,267.64 410.16,266.76 409.44,266.04 L409.44,266.04 Z" id="Shape" fill="#FFFFFF"></path>
                <path d="M346.64,349.16 C343.44,352.288 343.44,357.4 346.552,360.52 C348.152,362.12 350.152,362.928 352.24,362.928 C354.24,362.928 356.32,362.12 357.832,360.608 C361.032,357.48 361.032,352.44 357.92,349.248 C354.8,346.12 349.76,346.12 346.64,349.16 L346.64,349.16 Z" id="Shape" fill="#FFFFFF"></path>
                <path d="M367.28,325.24 C364.64,328.832 365.44,333.792 369.04,336.432 C370.4,337.472 372.08,338.032 373.76,338.032 C376.16,338.032 378.64,336.832 380.16,334.752 C382.8,331.152 382,326.192 378.48,323.552 C374.96,320.92 369.92,321.72 367.28,325.24 L367.28,325.24 Z" id="Shape" fill="#FFFFFF"></path>
                <path d="M394.72,294.92 C390.8,292.92 386,294.432 384,298.36 L383.92,298.36 C381.92,302.28 383.432,307.16 387.432,309.16 C388.552,309.72 389.832,310.04 391.032,310.04 C393.992,310.04 396.712,308.44 398.152,305.72 C400.16,301.72 398.64,296.92 394.72,294.92 L394.72,294.92 Z" id="Shape" fill="#FFFFFF"></path>
                <path d="M322.48,369.64 C318.88,372.192 318.08,377.152 320.648,380.76 C322.16,382.928 324.648,384.12 327.128,384.12 C328.728,384.12 330.408,383.64 331.768,382.608 C335.368,380.048 336.168,375.088 333.608,371.48 C331.04,367.872 326,367 322.48,369.64 L322.48,369.64 Z" id="Shape" fill="#FFFFFF"></path>
                <path d="M295.36,385.96 C291.44,387.96 289.84,392.76 291.76,396.68 C293.2,399.48 296,401.08 298.96,401.08 C300.152,401.08 301.36,400.84 302.552,400.28 C306.472,398.28 308.072,393.472 306.072,389.552 C304.08,385.552 299.28,383.96 295.36,385.96 L295.36,385.96 Z" id="Shape" fill="#FFFFFF"></path>
                <path d="M274,399.8 C273.6,399.48 273.192,399.16 272.8,398.84 C272.32,398.52 271.928,398.288 271.44,398.12 C270.96,397.88 270.4,397.72 269.928,397.64 C267.368,397.08 264.56,397.96 262.728,399.8 C261.208,401.32 260.328,403.4 260.328,405.48 C260.328,407.648 261.2,409.648 262.728,411.16 C264.168,412.68 266.248,413.48 268.328,413.48 C270.488,413.48 272.488,412.68 274.008,411.16 C275.52,409.648 276.328,407.648 276.328,405.48 C276.328,404.44 276.16,403.4 275.768,402.44 C275.376,401.48 274.72,400.6 274,399.8 L274,399.8 Z" id="Shape" fill="#FFFFFF"></path>
                <path d="M304.872,31.96 C307.04,31.96 309.04,31.152 310.552,29.64 C312.072,28.12 312.872,26.12 312.872,23.96 C312.872,21.872 312.072,19.792 310.552,18.36 C307.6,15.32 302.152,15.32 299.192,18.36 C297.752,19.8 296.872,21.872 296.872,23.96 C296.872,26.12 297.752,28.12 299.192,29.64 C300.72,31.16 302.72,31.96 304.872,31.96 L304.872,31.96 Z" id="Shape" fill="#FFFFFF"></path>
                <path d="M327.04,47.72 C328.48,48.84 330.16,49.4 331.84,49.4 C334.248,49.4 336.648,48.28 338.248,46.28 C340.88,42.76 340.248,37.72 336.728,35 C333.208,32.36 328.168,33 325.528,36.512 C322.808,40.032 323.528,45.072 327.048,47.792 L327.048,47.72 L327.04,47.72 L327.04,47.72 Z" id="Shape" fill="#FFFFFF"></path>
                <path d="M376.32,95.552 C377.92,95.552 379.512,95.072 380.872,94.112 C384.472,91.552 385.36,86.6 382.872,82.992 L382.872,82.912 C380.32,79.312 375.28,78.424 371.68,80.992 C368.08,83.544 367.192,88.504 369.76,92.184 C371.28,94.36 373.76,95.552 376.32,95.552 L376.32,95.552 Z" id="Shape" fill="#FFFFFF"></path>
                <path d="M355.832,70.76 C357.832,70.76 359.832,70.04 361.432,68.52 C364.552,65.48 364.712,60.36 361.6,57.248 C358.552,54.048 353.512,53.968 350.32,57.008 C347.12,60.048 347.04,65.168 350.08,68.288 C351.68,69.96 353.76,70.76 355.832,70.76 L355.832,70.76 Z" id="Shape" fill="#FFFFFF"></path>
                <path d="M392.72,123.24 C393.92,123.24 395.12,122.92 396.24,122.36 C400.152,120.44 401.832,115.64 399.832,111.64 C397.92,107.72 393.112,106.04 389.192,108.04 C385.192,109.96 383.512,114.76 385.512,118.76 C386.872,121.552 389.76,123.24 392.72,123.24 L392.72,123.24 Z" id="Shape" fill="#FFFFFF"></path>
                <path d="M397.28,142.12 C396.872,143.08 396.64,144.12 396.64,145.16 C396.64,146.2 396.872,147.248 397.28,148.2 C397.68,149.16 398.24,150.04 398.96,150.76 C399.76,151.56 400.64,152.12 401.6,152.52 C402.552,152.928 403.6,153.16 404.64,153.16 C405.68,153.16 406.72,152.928 407.68,152.52 C408.64,152.12 409.512,151.56 410.32,150.76 C411.832,149.32 412.64,147.32 412.64,145.16 C412.64,144.12 412.472,143.08 412,142.12 C411.6,141.08 411.04,140.2 410.32,139.48 C407.28,136.52 401.92,136.52 398.96,139.48 C398.24,140.192 397.68,141.08 397.28,142.12 L397.28,142.12 Z" id="Shape" fill="#FFFFFF"></path>
                <path d="M40,85.08 C40.96,85.48 42,85.72 43.04,85.72 C45.2,85.72 47.2,84.84 48.72,83.32 C49.44,82.6 50.08,81.72 50.48,80.76 C50.88,79.8 51.04,78.76 51.04,77.72 C51.04,76.6 50.872,75.64 50.48,74.6 C50.08,73.64 49.44,72.76 48.72,72.04 C46.48,69.8 42.96,69.08 40,70.28 C39.04,70.68 38.16,71.32 37.36,72.04 C36.64,72.76 36.08,73.64 35.68,74.6 C35.28,75.64 35.04,76.68 35.04,77.72 C35.04,79.8 35.92,81.8 37.36,83.32 C38.16,84.12 39.04,84.68 40,85.08 L40,85.08 Z" id="Shape" fill="#FFFFFF"></path>
                <path d="M64.08,63 C66,63 68,62.28 69.52,60.832 C72.72,57.792 72.88,52.752 69.84,49.472 C66.88,46.28 61.84,46.112 58.56,49.152 L58.56,49.072 C55.368,52.112 55.2,57.152 58.16,60.432 C59.76,62.12 61.92,63 64.08,63 L64.08,63 Z" id="Shape" fill="#FFFFFF"></path>
                <path d="M114.8,27.96 C116,27.96 117.2,27.72 118.32,27.152 C122.32,25.24 123.92,20.432 122,16.432 C120.08,12.512 115.28,10.832 111.36,12.752 L111.28,12.752 C107.36,14.752 105.68,19.472 107.6,23.472 C109.04,26.36 111.832,27.96 114.8,27.96 L114.8,27.96 Z" id="Shape" fill="#FFFFFF"></path>
                <path d="M88.16,43.552 C89.68,43.552 91.288,43.152 92.648,42.192 C96.328,39.64 97.2,34.68 94.728,31.072 C92.248,27.392 87.208,26.512 83.608,28.992 C79.928,31.472 79.048,36.504 81.52,40.112 C83.12,42.36 85.6,43.552 88.16,43.552 L88.16,43.552 Z" id="Shape" fill="#FFFFFF"></path>
                <path d="M143.6,16.512 C145.68,16.512 147.68,15.712 149.192,14.192 C150.72,12.68 151.6,10.68 151.6,8.512 C151.6,6.432 150.72,4.352 149.192,2.832 C146.24,-0.128 140.872,-0.128 137.92,2.832 C136.4,4.352 135.6,6.432 135.6,8.512 C135.6,10.68 136.4,12.68 137.92,14.192 C139.44,15.72 141.44,16.512 143.6,16.512 L143.6,16.512 Z" id="Shape" fill="#FFFFFF"></path>
                <text id="G" font-family="MullerBold, Muller" font-size="104" font-weight="bold" fill="#41C0C6">
                    <tspan x="13" y="195.536115">G</tspan>
                </text>
                <text id="G" font-family="MullerBold, Muller" font-size="104" font-weight="bold" fill="#58BDA1">
                    <tspan x="239" y="317">G</tspan>
                </text>
            </g>
        </g>
    </g>
</svg>