<svg width="16px" class="ogwidget-wrapper-body-list-group-item-progress-wrapper-list-li-ico" height="16px" viewBox="0 0 91 93" version="1.1" xmlns="http://www.w3.org/2000/svg" xmlns:xlink="http://www.w3.org/1999/xlink">
    <defs>
        <linearGradient x1="918%" y1="4623%" x2="50799%" y2="4623%" id="linearGradient-1">
            <stop stop-color="#38C1D1" offset="0%"></stop>
            <stop stop-color="#61BA94" offset="100%"></stop>
        </linearGradient>
    </defs>
    <g id="Page-1" stroke="none" stroke-width="1" fill="none" fill-rule="evenodd">
        <g id="logo-gradient" transform="translate(46.000000, 46.500000) scale(-1, 1) translate(-46.000000, -46.500000) " fill="url(#linearGradient-1)">
            <g id="Layer_2">
                <g id="Layer_1-2">
                    <path d="M75,10.5 C64.61,2 52.59,-1.13 39.3,0.67 C20.63,3.21 4.91,18 1.07,36.53 C0.86,37.53 1.07,37.92 2.15,37.92 L17.27,37.92 C17.9631256,37.9854463 18.6002652,37.535201 18.77,36.86 C19.2969661,35.4348266 19.9011951,34.039425 20.58,32.68 C27.0878351,20.2808184 41.5733578,14.3624957 54.9017873,18.6572118 C68.2302168,22.951928 76.5354136,36.2139271 74.58,50.08 C73.23,60.15 67.85,67.72 58.75,72.14 C48.48,77.14 38.41,76.14 29.02,69.55 C27.2712031,68.1829446 25.6018239,66.7172297 24.02,65.16 C24.92,64.7 25.47,64.39 26.02,64.16 C32.26,61.27 38.5,58.37 44.75,55.52 C45.5895801,55.2317727 46.1199242,54.4031101 46.03,53.52 L46.03,39.25 C46.03,38.86 46.03,38.46 45.96,37.9 C45.5,38.06 45.23,38.13 44.96,38.24 L3.11,57.59 C1.57,58.31 1.55,58.34 2.11,59.93 C4.66018075,68.1004316 9.4393477,75.3973191 15.91,81 C24.8234935,88.8997744 36.5115689,92.9325021 48.4,92.21 C58.746213,91.8380676 68.6280886,87.8215634 76.3,80.87 C88.06,70.31 93.24,57 91.66,41.2 C90.5687171,29.1098518 84.5419968,18.0041908 75,10.5 L75,10.5 Z" id="Shape"></path>
                </g>
            </g>
        </g>
    </g>
</svg>