<?xml version="1.0" encoding="UTF-8"?>
<svg width="291px" height="291px" viewBox="0 0 291 291" version="1.1" xmlns="http://www.w3.org/2000/svg" xmlns:xlink="http://www.w3.org/1999/xlink">
    <!-- Generator: Sketch 40 (33762) - http://www.bohemiancoding.com/sketch -->
    <title>guarantee</title>
    <desc>Created with Sketch.</desc>
    <defs>
        <linearGradient x1="3.061617e-15%" y1="50%" x2="100%" y2="50%" id="linearGradient-1">
            <stop stop-color="#39C0D3" offset="0%"></stop>
            <stop stop-color="#61B990" offset="100%"></stop>
        </linearGradient>
    </defs>
    <g id="Page-1" stroke="none" stroke-width="1" fill="none" fill-rule="evenodd">
        <g id="guarantee">
            <g id="Page-1">
                <g id="guarantee">
                    <g id="Group">
                        <circle id="Oval" fill="url(#linearGradient-1)" cx="145.314" cy="145.313" r="107.813"></circle>
                        <path d="M290.625,145.313 C290.625,65.189 225.437,0 145.314,0 C120.423,0 96.981,6.3 76.482,17.372 C44.898,1.636 22.093,-0.609 10.51,10.988 C-2.109,23.607 2.738,48.394 17.082,77.044 C6.198,97.411 0.001,120.652 0.001,145.313 C0.001,225.436 65.19,290.626 145.314,290.626 C169.951,290.626 193.164,284.443 213.517,273.578 C230.458,282.034 246.465,287.415 259.3,287.415 C267.597,287.415 274.577,285.184 279.639,280.117 C291.231,268.525 288.991,245.725 273.255,214.145 C284.326,193.645 290.625,170.203 290.625,145.313 L290.625,145.313 L290.625,145.313 Z M17.139,17.616 C24.808,9.947 42.709,12.019 66.812,23.124 C49.14,34.515 34.098,49.622 22.782,67.346 C11.537,42.773 9.798,24.956 17.139,17.616 L17.139,17.616 L17.139,17.616 Z M145.314,281.25 C70.356,281.25 9.376,220.27 9.376,145.312 C9.376,124.523 14.082,104.821 22.459,87.187 C35.054,109.725 52.679,133.954 71.8,156.173 L55.333,159.468 L57.175,168.66 L83.102,163.476 L93.419,137.681 L84.714,134.198 L78.559,149.587 C55.478,122.78 38.551,98.072 27.69,77.306 C51.235,36.736 95.124,9.375 145.314,9.375 C220.272,9.375 281.252,70.355 281.252,145.313 C281.252,195.502 253.891,239.391 213.325,262.936 C198.198,254.986 181.356,244.134 163.778,230.658 L158.073,238.097 C172.553,249.202 188.148,259.735 203.35,268.209 C185.739,276.558 166.064,281.25 145.314,281.25 L145.314,281.25 L145.314,281.25 Z M273.01,273.488 C265.158,281.34 246.933,278.794 223.248,267.863 C240.986,256.543 256.103,241.491 267.503,223.815 C278.607,247.913 280.679,265.819 273.01,273.488 L273.01,273.488 L273.01,273.488 Z" id="Shape" fill="url(#linearGradient-1)"></path>
                        <path d="M154.689,140.625 L135.939,140.625 C120.428,140.625 107.814,128.011 107.814,112.5 C107.814,96.989 120.428,84.375 135.939,84.375 L154.689,84.375 C170.2,84.375 182.814,96.989 182.814,112.5 L182.814,117.188 L192.189,117.188 L192.189,112.5 C192.189,91.823 175.366,75 154.689,75 L150.001,75 L150.001,56.25 L140.626,56.25 L140.626,75 L135.938,75 C115.261,75 98.438,91.823 98.438,112.5 C98.438,133.177 115.261,150 135.938,150 L154.688,150 C170.199,150 182.813,162.614 182.813,178.125 C182.813,193.636 170.199,206.25 154.688,206.25 L135.938,206.25 C120.427,206.25 107.813,193.636 107.813,178.125 L107.813,173.437 L98.438,173.437 L98.438,178.125 C98.438,198.802 115.261,215.625 135.938,215.625 L140.626,215.625 L140.626,234.375 L150.001,234.375 L150.001,215.625 L154.689,215.625 C175.365,215.625 192.189,198.802 192.189,178.125 C192.189,157.448 175.366,140.625 154.689,140.625 L154.689,140.625 Z" id="Shape" fill="#FFFFFF"></path>
                    </g>
                </g>
            </g>
        </g>
    </g>
</svg>