<?xml version="1.0" encoding="UTF-8"?>
<svg width="290px" height="287px" viewBox="0 0 290 287" version="1.1" xmlns="http://www.w3.org/2000/svg" xmlns:xlink="http://www.w3.org/1999/xlink">
    <!-- Generator: Sketch 40 (33762) - http://www.bohemiancoding.com/sketch -->
    <title>investment</title>
    <desc>Created with Sketch.</desc>
    <defs>
        <linearGradient x1="-1.11022302e-14%" y1="50%" x2="100%" y2="50%" id="linearGradient-1">
            <stop stop-color="#39C0D3" offset="0%"></stop>
            <stop stop-color="#63BB90" offset="100%"></stop>
        </linearGradient>
    </defs>
    <g id="Page-1" stroke="none" stroke-width="1" fill="none" fill-rule="evenodd">
        <g id="investment" fill="url(#linearGradient-1)">
            <g id="Page-1">
                <g id="investment">
                    <g id="Group">
                        <path d="M101.752,66.211 C101.752,55.87 110.161,47.461 120.502,47.461 C130.843,47.461 139.252,55.87 139.252,66.211 C139.252,76.552 130.842,84.961 120.502,84.961 C110.161,84.961 101.752,76.552 101.752,66.211 L101.752,66.211 Z" id="Shape"></path>
                        <path d="M172.064,28.711 C182.405,28.711 190.814,37.12 190.814,47.461 C190.814,57.802 182.405,66.211 172.064,66.211 C161.723,66.211 153.314,57.802 153.314,47.461 C153.314,37.12 161.723,28.711 172.064,28.711 Z" id="Shape"></path>
                        <rect id="Rectangle-path" x="106.439" y="19.336" width="9.375" height="23.438"></rect>
                        <rect id="Rectangle-path" x="125.189" y="14.648" width="9.375" height="28.125"></rect>
                        <rect id="Rectangle-path" x="158.002" y="5.273" width="9.375" height="18.75"></rect>
                        <rect id="Rectangle-path" x="176.752" y="0.586" width="9.375" height="23.438"></rect>
                        <path d="M289.111,88.509 L283.538,66.211 L261.127,66.211 L261.127,75.586 L270.671,75.586 L241.473,115.734 L218.593,97.429 L195.324,120.698 C194.447,113.784 188.593,108.398 181.44,108.398 L180.142,108.398 L198.892,75.585 L93.413,75.585 L111.099,104.662 L95.368,117.773 L3.314,117.773 L3.314,127.148 L98.761,127.148 L126.286,104.212 L155.278,112.495 L165.141,124.818 C166.444,126.449 167.021,128.493 166.758,130.565 C166.491,132.637 165.427,134.47 163.753,135.726 C160.73,137.999 156.426,137.685 153.75,135.014 L144.291,125.555 L117.577,146.925 L120.324,150.356 C119.438,162.22 114.08,173.761 104.916,183.183 C104.85,183.253 104.794,183.328 104.728,183.394 L102.862,183.394 L93.487,178.706 L3.314,178.706 L3.314,188.081 L91.27,188.081 L98.165,191.526 C92.535,199.809 89.076,209.296 88.054,219.318 L68.938,200.207 L0,269.148 L6.628,275.776 L68.939,213.465 L88.111,232.637 C91.598,261.667 116.47,285.278 146.109,286.473 C146.962,286.506 147.811,286.525 148.654,286.525 C164.474,286.525 179.371,280.548 190.832,269.537 C202.912,257.94 209.563,242.331 209.563,225.587 C209.563,210.432 204.004,196.178 193.954,184.989 C194.91,183.091 195.501,180.981 195.501,178.712 C195.501,175.098 194.09,171.831 191.845,169.337 C194.095,166.843 195.501,163.576 195.501,159.962 C195.501,156.348 194.09,153.081 191.845,150.587 C194.095,148.093 195.501,144.826 195.501,141.212 C195.501,139.046 194.971,137.021 194.09,135.189 L219.285,109.994 L243.28,129.189 L277.761,81.775 L280.016,90.789 L289.111,88.509 L289.111,88.509 L289.111,88.509 Z M186.127,122.461 C186.127,125.044 184.022,127.148 181.439,127.148 L175.941,127.148 C175.514,124.19 174.38,121.368 172.458,118.964 L171.502,117.773 L181.439,117.773 C184.022,117.773 186.127,119.878 186.127,122.461 L186.127,122.461 L186.127,122.461 Z M124.092,93.834 L118.383,98.592 L110.091,84.961 L182.738,84.961 L169.346,108.4 L164.007,108.4 L160.73,104.303 L124.092,93.834 L124.092,93.834 L124.092,93.834 Z M169.373,143.227 C171.731,141.46 173.475,139.135 174.637,136.524 L181.439,136.524 C184.022,136.524 186.127,138.629 186.127,141.212 C186.127,143.795 184.022,145.9 181.439,145.9 L164.025,145.9 C165.914,145.34 167.728,144.46 169.373,143.227 L169.373,143.227 L169.373,143.227 Z M186.127,159.962 C186.127,162.545 184.022,164.65 181.439,164.65 L162.689,164.65 C160.106,164.65 158.001,162.545 158.001,159.962 C158.001,157.379 160.106,155.274 162.689,155.274 L181.439,155.274 C184.022,155.273 186.127,157.378 186.127,159.962 L186.127,159.962 L186.127,159.962 Z M186.127,178.712 C186.127,181.295 184.022,183.4 181.439,183.4 L162.689,183.4 C160.106,183.4 158.001,181.295 158.001,178.712 C158.001,176.129 160.106,174.024 162.689,174.024 L181.439,174.024 C184.022,174.023 186.127,176.128 186.127,178.712 L186.127,178.712 L186.127,178.712 Z M184.341,262.777 C174.127,272.588 160.753,277.646 146.489,277.107 C119.728,276.029 97.556,253.341 97.073,226.534 C96.825,212.711 101.995,199.637 111.632,189.723 C122.816,178.225 129.149,163.904 129.759,149.185 L143.592,138.118 L147.117,141.643 C147.647,142.173 148.233,142.609 148.809,143.049 C149.193,145.932 150.426,148.524 152.282,150.582 C150.032,153.076 148.626,156.343 148.626,159.957 C148.626,163.571 150.037,166.838 152.282,169.332 C150.032,171.826 148.626,175.093 148.626,178.707 C148.626,182.321 150.037,185.588 152.282,188.082 L143.938,188.082 L143.938,197.457 L141.594,197.457 C132.547,197.457 125.188,204.816 125.188,213.863 C125.188,222.91 132.547,230.269 141.594,230.269 L155.657,230.269 C159.534,230.269 162.688,233.424 162.688,237.3 C162.688,241.176 159.533,244.336 155.657,244.336 L141.594,244.336 C137.717,244.336 134.563,241.181 134.563,237.305 L134.563,234.961 L125.188,234.961 L125.188,237.305 C125.188,246.352 132.547,253.711 141.594,253.711 L143.938,253.711 L143.938,263.086 L153.313,263.086 L153.313,253.711 L155.657,253.711 C164.704,253.711 172.063,246.352 172.063,237.305 C172.063,228.258 164.704,220.899 155.657,220.899 L141.594,220.899 C137.717,220.899 134.563,217.744 134.563,213.868 C134.563,209.991 137.718,206.837 141.594,206.837 L155.657,206.837 C159.534,206.837 162.688,209.992 162.688,213.868 L162.688,216.212 L172.063,216.212 L172.063,213.868 C172.063,204.821 164.704,197.462 155.657,197.462 L153.313,197.462 L153.313,189.118 C155.807,191.368 159.074,192.774 162.688,192.774 L181.438,192.774 C183.501,192.774 185.45,192.301 187.218,191.499 C195.576,200.921 200.188,212.883 200.188,225.586 C200.189,239.751 194.559,252.962 184.341,262.777 L184.341,262.777 L184.341,262.777 Z" id="Shape"></path>
                    </g>
                </g>
            </g>
        </g>
    </g>
</svg>