<?xml version="1.0" encoding="UTF-8"?>
<svg width="291px" height="291px" viewBox="0 0 291 291" version="1.1" xmlns="http://www.w3.org/2000/svg" xmlns:xlink="http://www.w3.org/1999/xlink">
    <!-- Generator: Sketch 40 (33762) - http://www.bohemiancoding.com/sketch -->
    <title>issues</title>
    <desc>Created with Sketch.</desc>
    <defs></defs>
    <g id="Page-1" stroke="none" stroke-width="1" fill="none" fill-rule="evenodd">
        <g id="issues" fill="#FFFFFF">
            <g id="Group">
                <polygon id="Shape" points="87.381 69.225 81.371 62.025 56.542 82.72 50.19 76.373 43.562 83.002 55.961 95.405"></polygon>
                <rect id="Rectangle-path" x="103.126" y="65.625" width="70.312" height="9.375"></rect>
                <rect id="Rectangle-path" x="103.126" y="84.375" width="79.687" height="9.375"></rect>
                <polygon id="Shape" points="87.381 116.1 81.371 108.9 56.542 129.595 50.19 123.248 43.562 129.877 55.961 142.28"></polygon>
                <rect id="Rectangle-path" x="103.126" y="112.5" width="98.437" height="9.375"></rect>
                <rect id="Rectangle-path" x="103.126" y="131.25" width="18.75" height="9.375"></rect>
                <rect id="Rectangle-path" x="131.251" y="131.25" width="70.312" height="9.375"></rect>
                <polygon id="Shape" points="87.381 162.975 81.371 155.775 56.542 176.47 50.19 170.123 43.562 176.752 55.961 189.155"></polygon>
                <rect id="Rectangle-path" x="103.126" y="159.375" width="98.437" height="9.375"></rect>
                <rect id="Rectangle-path" x="103.126" y="178.125" width="70.312" height="9.375"></rect>
                <rect id="Rectangle-path" x="182.813" y="178.125" width="18.75" height="9.375"></rect>
                <rect id="Rectangle-path" x="182.813" y="65.625" width="18.75" height="9.375"></rect>
                <path d="M276.563,215.625 L267.188,215.625 L257.813,215.625 L248.438,215.625 L239.063,215.625 L239.063,23.438 C239.063,10.514 228.549,0 215.626,0 L23.439,0 C10.515,0 0.001,10.514 0.001,23.438 C0.001,36.362 10.515,46.876 23.438,46.876 L23.438,290.626 L220.313,290.626 L220.313,262.5 L239.063,262.5 L239.063,243.75 L248.438,243.75 L257.813,243.75 L267.188,243.75 L276.563,243.75 C284.316,243.75 290.625,237.441 290.625,229.687 C290.625,221.933 284.316,215.625 276.563,215.625 L276.563,215.625 Z M229.688,23.438 L229.688,215.626 L220.313,215.626 L220.313,37.5 L215.625,37.5 C207.872,37.5 201.563,31.191 201.563,23.437 C201.563,15.683 207.872,9.374 215.625,9.374 C223.378,9.374 229.688,15.684 229.688,23.438 L229.688,23.438 Z M9.376,23.438 C9.376,15.685 15.685,9.375 23.438,9.375 L196.997,9.375 C194.02,13.303 192.188,18.141 192.188,23.438 C192.188,28.735 194.021,33.572 196.997,37.501 L23.439,37.501 C15.686,37.5 9.376,31.191 9.376,23.438 L9.376,23.438 Z M32.814,281.25 L32.814,46.875 L210.939,46.875 L210.939,215.625 L78.929,215.625 L36.742,229.688 L78.929,243.751 L210.938,243.751 L210.938,281.251 L32.814,281.251 L32.814,281.25 L32.814,281.25 Z M66.386,229.688 L75.001,226.814 L75.001,232.556 L66.386,229.688 L66.386,229.688 Z M229.688,253.125 L220.313,253.125 L220.313,243.75 L229.688,243.75 L229.688,253.125 L229.688,253.125 Z M239.063,234.375 L84.376,234.375 L84.376,225 L239.063,225 L239.063,234.375 L239.063,234.375 Z M257.813,234.375 L248.438,234.375 L248.438,225 L257.813,225 L257.813,234.375 L257.813,234.375 Z M276.563,234.375 L267.188,234.375 L267.188,225 L276.563,225 C279.15,225 281.25,227.105 281.25,229.688 C281.25,232.271 279.151,234.375 276.563,234.375 L276.563,234.375 Z" id="Shape"></path>
            </g>
        </g>
    </g>
</svg>