<?xml version="1.0" encoding="UTF-8"?>
<svg width="282px" height="291px" viewBox="0 0 282 291" version="1.1" xmlns="http://www.w3.org/2000/svg" xmlns:xlink="http://www.w3.org/1999/xlink">
    <!-- Generator: Sketch 40 (33762) - http://www.bohemiancoding.com/sketch -->
    <title>megaphone</title>
    <desc>Created with Sketch.</desc>
    <defs></defs>
    <g id="Page-1" stroke="none" stroke-width="1" fill="none" fill-rule="evenodd">
        <g id="megaphone">
            <g id="Group">
                <path d="M238.147,60.309 C236.098,35.723 230.731,0 216.195,0 C214.695,0 213.35,0.427 212.023,1.158 L176.768,12.919 C165.162,16.791 153.096,18.75 140.857,18.75 L94.437,18.75 C53.084,18.75 19.437,52.397 19.437,93.75 C19.437,127.42 41.745,155.972 72.359,165.422 L45.866,187.5 L0.688,187.5 L0.688,196.875 L49.26,196.875 L76.78,173.939 L105.772,182.222 L115.634,194.55 C116.942,196.181 117.514,198.22 117.256,200.297 C116.989,202.369 115.929,204.202 114.256,205.453 C111.228,207.722 106.925,207.412 104.248,204.745 L94.784,195.286 L68.07,216.656 L73.929,223.978 L85.062,215.072 L85.062,253.125 L53.356,253.125 L43.981,248.437 L0.688,248.437 L0.688,257.812 L41.769,257.812 L51.144,262.5 L85.063,262.5 L85.063,267.188 C85.063,280.111 95.577,290.626 108.501,290.626 C121.425,290.626 131.939,280.112 131.939,267.188 L131.939,262.5 C139.692,262.5 146.002,256.191 146.002,248.437 C146.002,244.823 144.591,241.556 142.346,239.062 C144.596,236.568 146.002,233.301 146.002,229.687 C146.002,226.073 144.591,222.806 142.346,220.312 C144.596,217.818 146.002,214.551 146.002,210.937 C146.002,207.323 144.591,204.056 142.346,201.562 C144.596,199.068 146.002,195.801 146.002,192.187 C146.002,184.434 139.693,178.124 131.939,178.124 L131.939,168.749 L140.855,168.749 C153.094,168.749 165.188,170.708 176.799,174.58 L212.082,186.341 C213.409,187.072 214.815,187.499 216.315,187.499 C230.851,187.499 236.101,151.776 238.149,127.19 L244.44,126.538 C253.815,125.98 258.038,109.808 258.038,93.749 C258.038,77.69 253.813,61.519 244.438,60.989 L238.147,60.309 Z M202.25,93.75 C202.25,83.752 202.597,74.569 203.178,66.211 L234.542,69.347 C231.711,75.656 230.375,84.717 230.375,93.75 C230.375,102.783 231.711,111.844 234.542,118.153 L203.178,121.289 C202.597,112.931 202.25,103.748 202.25,93.75 Z M203.97,56.864 C206.637,29.747 211.831,13.359 215.309,9.961 L216.509,9.563 C219.491,11.466 225.894,25.688 228.889,59.358 L203.97,56.864 Z M125.136,206.25 L131.938,206.25 C134.525,206.25 136.626,208.355 136.626,210.938 C136.626,213.521 134.526,215.626 131.938,215.626 L114.524,215.626 C116.412,215.067 118.231,214.186 119.881,212.953 C122.239,211.186 123.978,208.861 125.136,206.25 Z M131.937,234.376 L113.187,234.376 C110.599,234.376 108.499,232.271 108.499,229.688 C108.499,227.105 110.599,225 113.187,225 L131.937,225 C134.525,225 136.625,227.105 136.625,229.688 C136.625,232.271 134.525,234.376 131.937,234.376 Z M108.5,281.251 C100.746,281.251 94.437,274.942 94.437,267.188 L94.437,208.191 L97.62,211.369 C98.145,211.899 98.731,212.33 99.312,212.775 C99.696,215.658 100.924,218.255 102.785,220.313 C100.535,222.807 99.129,226.074 99.129,229.688 C99.129,233.302 100.54,236.569 102.785,239.063 C100.535,241.557 99.129,244.824 99.129,248.438 C99.129,256.191 105.438,262.501 113.192,262.501 L122.567,262.501 L122.567,267.188 C122.563,274.941 116.254,281.251 108.5,281.251 Z M113.188,253.125 C110.6,253.125 108.5,251.02 108.5,248.437 C108.5,245.854 110.6,243.749 113.188,243.749 L131.938,243.749 C134.525,243.749 136.626,245.854 136.626,248.437 C136.626,251.02 134.525,253.125 131.938,253.125 L113.188,253.125 Z M131.937,196.876 L126.439,196.876 C126.012,193.918 124.878,191.096 122.956,188.692 L122.004,187.501 L131.937,187.501 C134.525,187.5 136.625,189.605 136.625,192.188 C136.625,194.771 134.525,196.876 131.937,196.876 Z M114.505,178.125 L111.228,174.028 L92.394,168.647 C93.078,168.666 93.749,168.75 94.438,168.75 L122.563,168.75 L122.563,178.125 L114.505,178.125 Z M94.438,159.375 C58.251,159.375 28.813,129.937 28.813,93.75 C28.813,57.563 58.25,28.125 94.438,28.125 L140.858,28.125 C154.105,28.125 167.192,26.002 179.764,21.811 L202.939,14.086 C195.266,33.698 192.875,69.544 192.875,93.75 C192.875,117.956 195.266,153.802 202.939,173.414 L179.764,165.689 C167.192,161.498 154.105,159.375 140.853,159.375 L94.438,159.375 Z M215.807,177.703 C212.141,174.844 206.718,158.381 203.976,130.631 L228.89,128.137 C225.861,162.192 219.364,176.353 216.688,177.998 L215.807,177.703 Z M239.75,93.75 C239.75,80.798 242.703,72.942 244.438,70.739 C246.172,72.942 249.126,80.798 249.126,93.75 C249.126,106.702 246.172,114.558 244.438,116.761 C242.704,114.558 239.75,106.702 239.75,93.75 Z" id="Shape" fill="#273F5B"></path>
                <rect id="Rectangle-path" fill="#273F5B" x="267.875" y="89.063" width="14.063" height="9.375"></rect>
                <rect id="Rectangle-path" fill="#273F5B" transform="translate(270.210382, 39.835548) rotate(-18.445820) translate(-270.210382, -39.835548) " x="262.799564" y="35.1481629" width="14.8216363" height="9.37476993"></rect>
                <rect id="Rectangle-path" fill="#273F5B" transform="translate(270.212883, 147.647264) rotate(-71.566863) translate(-270.212883, -147.647264) " x="265.525349" y="140.236211" width="9.37506623" height="14.8221047"></rect>
                <rect id="Rectangle-path" fill="#4492C3" x="122.563" y="18.75" width="18.75" height="150"></rect>
            </g>
        </g>
    </g>
</svg>