<?xml version="1.0" encoding="UTF-8"?>
<svg width="291px" height="273px" viewBox="0 0 291 273" version="1.1" xmlns="http://www.w3.org/2000/svg" xmlns:xlink="http://www.w3.org/1999/xlink">
    <!-- Generator: Sketch 40 (33762) - http://www.bohemiancoding.com/sketch -->
    <title>projects</title>
    <desc>Created with Sketch.</desc>
    <defs></defs>
    <g id="Page-1" stroke="none" stroke-width="1" fill="none" fill-rule="evenodd">
        <g id="projects">
            <g id="Group">
                <rect id="Rectangle-path" x="215.625" y="61.311" width="28.125" height="154.688"></rect>
                <path d="M243.75,42.561 L243.75,0.374 L0,0.374 L0,211.312 C0,226.823 12.614,239.437 28.125,239.437 L215.625,239.437 L215.625,272.25 L243.75,272.25 L243.75,239.437 L262.5,239.437 C278.011,239.437 290.625,226.823 290.625,211.312 L290.625,42.561 L243.75,42.561 L243.75,42.561 Z M9.375,211.311 L9.375,9.749 L234.375,9.749 L234.375,42.562 L129.459,42.562 L120.084,23.812 L46.875,23.812 L46.875,211.312 C46.875,221.653 38.466,230.062 28.125,230.062 C17.784,230.062 9.375,221.652 9.375,211.311 L9.375,211.311 Z M234.375,262.875 L225,262.875 L225,230.062 C225,227.479 227.105,225.374 229.688,225.374 C232.271,225.374 234.375,227.479 234.375,230.062 L234.375,262.875 L234.375,262.875 Z M281.25,211.311 C281.25,221.652 272.841,230.061 262.5,230.061 L243.75,230.061 C243.75,222.308 237.441,215.998 229.688,215.998 C221.935,215.998 215.625,222.307 215.625,230.061 L49.031,230.061 C53.503,225.078 56.25,218.52 56.25,211.311 L56.25,33.186 L114.291,33.186 L123.666,51.936 L281.25,51.936 L281.25,211.311 L281.25,211.311 Z" id="Shape" fill="#FFFFFF"></path>
                <polygon id="Shape" fill="#FFFFFF" points="243.75 70.686 243.75 61.311 229.687 61.311 229.687 65.999 215.625 65.999 215.625 75.374 229.687 75.374 229.687 70.686"></polygon>
                <polygon id="Shape" fill="#FFFFFF" points="243.75 84.749 243.75 75.374 229.687 75.374 229.687 80.061 215.625 80.061 215.625 89.436 229.687 89.436 229.687 84.749"></polygon>
                <polygon id="Shape" fill="#FFFFFF" points="243.75 98.811 243.75 89.436 229.687 89.436 229.687 94.124 215.625 94.124 215.625 103.499 229.687 103.499 229.687 98.811"></polygon>
                <polygon id="Shape" fill="#FFFFFF" points="243.75 112.874 243.75 103.499 229.687 103.499 229.687 108.186 215.625 108.186 215.625 117.561 229.687 117.561 229.687 112.874"></polygon>
                <polygon id="Shape" fill="#FFFFFF" points="243.75 126.936 243.75 117.561 229.687 117.561 229.687 122.249 215.625 122.249 215.625 131.624 229.687 131.624 229.687 126.936"></polygon>
                <polygon id="Shape" fill="#FFFFFF" points="243.75 140.999 243.75 131.624 229.687 131.624 229.687 136.311 215.625 136.311 215.625 145.686 229.687 145.686 229.687 140.999"></polygon>
                <polygon id="Shape" fill="#FFFFFF" points="243.75 155.061 243.75 145.686 229.687 145.686 229.687 150.374 215.625 150.374 215.625 159.749 229.687 159.749 229.687 155.061"></polygon>
                <polygon id="Shape" fill="#FFFFFF" points="243.75 169.124 243.75 159.749 229.687 159.749 229.687 164.436 215.625 164.436 215.625 173.811 229.687 173.811 229.687 169.124"></polygon>
                <polygon id="Shape" fill="#FFFFFF" points="243.75 183.186 243.75 173.811 229.687 173.811 229.687 178.499 215.625 178.499 215.625 187.874 229.687 187.874 229.687 183.186"></polygon>
                <polygon id="Shape" fill="#FFFFFF" points="243.75 197.249 243.75 187.874 229.687 187.874 229.687 192.561 215.625 192.561 215.625 201.936 229.687 201.936 229.687 197.249"></polygon>
                <polygon id="Shape" fill="#FFFFFF" points="243.75 211.311 243.75 201.936 229.687 201.936 229.687 206.624 215.625 206.624 215.625 215.999 229.687 215.999 229.687 211.311"></polygon>
                <path d="M65.625,108.186 L196.875,108.186 L196.875,61.311 L65.625,61.311 L65.625,108.186 L65.625,108.186 Z M75,70.686 L187.5,70.686 L187.5,98.811 L75,98.811 L75,70.686 L75,70.686 Z" id="Shape" fill="#FFFFFF"></path>
                <path d="M65.625,164.436 L196.875,164.436 L196.875,117.561 L65.625,117.561 L65.625,164.436 L65.625,164.436 Z M75,126.936 L187.5,126.936 L187.5,155.061 L75,155.061 L75,126.936 L75,126.936 Z" id="Shape" fill="#FFFFFF"></path>
                <path d="M65.625,220.686 L196.875,220.686 L196.875,173.811 L65.625,173.811 L65.625,220.686 L65.625,220.686 Z M75,183.186 L187.5,183.186 L187.5,211.311 L75,211.311 L75,183.186 L75,183.186 Z" id="Shape" fill="#FFFFFF"></path>
            </g>
        </g>
    </g>
</svg>