<?xml version="1.0" encoding="UTF-8"?>
<svg width="496px" height="432px" viewBox="0 0 496 432" version="1.1" xmlns="http://www.w3.org/2000/svg" xmlns:xlink="http://www.w3.org/1999/xlink">
    <!-- Generator: Sketch 40 (33762) - http://www.bohemiancoding.com/sketch -->
    <title>search</title>
    <desc>Created with Sketch.</desc>
    <defs></defs>
    <g id="Page-1" stroke="none" stroke-width="1" fill="none" fill-rule="evenodd">
        <g id="search">
            <g id="Group" transform="translate(0.000000, 63.000000)" fill="#273F5B">
                <path d="M112,40.972 C112,18.916 94.056,0.972 72,0.972 C49.944,0.972 32,18.916 32,40.972 C32,63.028 49.944,80.972 72,80.972 C94.056,80.972 112,63.028 112,40.972 L112,40.972 Z M72,64.972 C58.768,64.972 48,54.204 48,40.972 C48,27.74 58.768,16.972 72,16.972 C85.232,16.972 96,27.74 96,40.972 C96,54.204 85.232,64.972 72,64.972 L72,64.972 Z" id="Shape"></path>
                <path d="M128,200.972 C128,205.388 124.416,208.972 120,208.972 C115.584,208.972 112,205.388 112,200.972 L112,192.972 L112,120.972 L96,120.972 L96,192.972 L96,200.972 L96,344.972 C96,349.388 92.416,352.972 88,352.972 C83.584,352.972 80,349.388 80,344.972 L80,232.972 L64,232.972 L64,344.972 C64,349.388 60.416,352.972 56,352.972 C51.584,352.972 48,349.388 48,344.972 L48,200.972 L48,192.972 L48,120.972 L32,120.972 L32,192.972 L32,200.972 C32,205.388 28.416,208.972 24,208.972 C19.584,208.972 16,205.388 16,200.972 L16,125.356 C16,109.708 28.736,96.972 44.384,96.972 L99.616,96.972 L99.616,80.972 L72,80.972 L44.384,80.972 C19.904,80.972 0,100.876 0,125.356 L0,200.972 C0,214.204 10.768,224.972 24,224.972 C26.816,224.972 29.488,224.396 32,223.5 L32,344.972 C32,358.204 42.768,368.972 56,368.972 C62.168,368.972 67.744,366.564 72,362.732 C76.256,366.572 81.832,368.972 88,368.972 C101.232,368.972 112,358.204 112,344.972 L112,223.5 C114.512,224.396 117.184,224.972 120,224.972 C133.232,224.972 144,214.204 144,200.972 L144,155.724 L128,155.724 L128,200.972 L128,200.972 Z" id="Shape"></path>
                <path d="M464,40.972 C464,18.916 446.056,0.972 424,0.972 C401.944,0.972 384,18.916 384,40.972 C384,63.028 401.944,80.972 424,80.972 C446.056,80.972 464,63.028 464,40.972 L464,40.972 Z M424,64.972 C410.768,64.972 400,54.204 400,40.972 C400,27.74 410.768,16.972 424,16.972 C437.232,16.972 448,27.74 448,40.972 C448,54.204 437.232,64.972 424,64.972 L424,64.972 Z" id="Shape"></path>
                <path d="M472,224.972 C485.232,224.972 496,214.204 496,200.972 L496,125.356 C496,100.876 476.096,80.972 451.616,80.972 L424,80.972 L396.384,80.972 C371.904,80.972 352,100.876 352,125.356 L352,147.916 L343.752,139.668 L332.44,150.98 L360.528,179.068 L338.096,201.5 L310.008,173.412 L298.696,184.724 L304,190.028 L304,200.972 C304,205.388 300.416,208.972 296,208.972 C291.584,208.972 288,205.388 288,200.972 L288,192.972 L272,192.972 L272,200.972 L272,344.972 C272,349.388 268.416,352.972 264,352.972 C259.584,352.972 256,349.388 256,344.972 L256,232.972 L240,232.972 L240,344.972 C240,349.388 236.416,352.972 232,352.972 C227.584,352.972 224,349.388 224,344.972 L224,192.972 L208,192.972 L208,200.972 C208,205.388 204.416,208.972 200,208.972 C195.584,208.972 192,205.388 192,200.972 L192,192.972 L176,192.972 L176,200.972 C176,214.204 186.768,224.972 200,224.972 C202.816,224.972 205.488,224.396 208,223.5 L208,344.972 C208,358.204 218.768,368.972 232,368.972 C238.168,368.972 243.744,366.564 248,362.732 C252.256,366.572 257.832,368.972 264,368.972 C277.232,368.972 288,358.204 288,344.972 L288,223.5 C290.512,224.396 293.184,224.972 296,224.972 C307.664,224.972 317.384,216.604 319.536,205.564 L326.784,212.812 L309.952,229.644 L321.264,240.956 L332.472,229.748 L384,281.276 L384,344.972 C384,358.204 394.768,368.972 408,368.972 C414.168,368.972 419.744,366.564 424,362.732 C428.256,366.572 433.832,368.972 440,368.972 C453.232,368.972 464,358.204 464,344.972 L464,336.156 C471.456,334.676 478.568,331.068 484.336,325.3 C491.856,317.796 496,307.796 496,297.156 C496,286.516 491.856,276.524 484.336,269.004 L464,248.676 L464,223.5 C466.512,224.396 469.184,224.972 472,224.972 L472,224.972 Z M408,352.972 C403.584,352.972 400,349.388 400,344.972 L400,297.268 L416,313.268 L416,344.972 C416,349.388 412.416,352.972 408,352.972 L408,352.972 Z M440,352.972 C435.584,352.972 432,349.388 432,344.972 L432,328.54 C436.84,332.276 442.272,334.852 448,336.044 L448,344.972 C448,349.388 444.416,352.972 440,352.972 L440,352.972 Z M480,297.156 C480,303.516 477.52,309.492 473.024,313.988 C463.744,323.268 448.632,323.268 439.352,313.988 L343.784,218.436 L377.464,184.756 L473.024,280.324 C477.52,284.82 480,290.804 480,297.156 L480,297.156 Z M400,184.668 L400,120.972 L384,120.972 L384,155.588 L371.832,167.756 L368,163.916 L368,125.356 C368,109.708 380.736,96.972 396.384,96.972 L451.616,96.972 C467.264,96.972 480,109.708 480,125.356 L480,200.972 C480,205.388 476.416,208.972 472,208.972 C467.584,208.972 464,205.388 464,200.972 L464,120.972 L448,120.972 L448,200.972 L448,232.676 L400,184.668 L400,184.668 Z" id="Shape"></path>
            </g>
            <path d="M326.88,39.58 C274.144,-13.156 188.352,-13.156 135.616,39.58 C82.88,92.316 82.88,178.116 135.616,230.852 C161.984,257.22 196.608,270.396 231.248,270.396 C265.88,270.396 300.512,257.22 326.88,230.852 C379.608,178.124 379.608,92.316 326.88,39.58 L326.88,39.58 Z M293.104,197.076 C258.936,231.236 203.552,231.236 169.384,197.076 C135.216,162.916 135.216,107.524 169.384,73.356 C203.544,39.188 258.936,39.188 293.104,73.356 C327.272,107.524 327.272,162.916 293.104,197.076 L293.104,197.076 Z" id="Shape" fill="#51BCAB"></path>
            <g id="Group" transform="translate(135.000000, 39.000000)" fill="#273F5B">
                <path d="M163.768,163.732 C200.992,126.508 200.992,65.932 163.768,28.708 C126.536,-8.524 65.968,-8.524 28.736,28.708 C-8.488,65.932 -8.488,126.508 28.736,163.732 C47.352,182.348 71.8,191.652 96.248,191.652 C120.696,191.652 145.152,182.348 163.768,163.732 L163.768,163.732 Z M40.048,40.02 C55.544,24.524 75.896,16.78 96.248,16.78 C116.6,16.78 136.96,24.532 152.448,40.02 C183.432,71.012 183.432,121.428 152.448,152.42 C121.464,183.404 71.024,183.404 40.04,152.42 C9.064,121.428 9.064,71.012 40.048,40.02 L40.048,40.02 Z" id="Shape"></path>
                <path d="M105,160.972 L105,152.972 C122.648,152.972 137,138.62 137,120.972 C137,103.324 122.648,88.972 105,88.972 L89,88.972 C80.176,88.972 73,81.796 73,72.972 C73,64.148 80.176,56.972 89,56.972 L105,56.972 C113.824,56.972 121,64.148 121,72.972 L121,80.972 L137,80.972 L137,72.972 C137,55.324 122.648,40.972 105,40.972 L105,32.972 L89,32.972 L89,40.972 C71.352,40.972 57,55.324 57,72.972 C57,90.62 71.352,104.972 89,104.972 L105,104.972 C113.824,104.972 121,112.148 121,120.972 C121,129.796 113.824,136.972 105,136.972 L89,136.972 C80.176,136.972 73,129.796 73,120.972 L73,112.972 L57,112.972 L57,120.972 C57,138.62 71.352,152.972 89,152.972 L89,160.972 L105,160.972 L105,160.972 Z" id="Shape"></path>
            </g>
        </g>
    </g>
</svg>