<?xml version="1.0" encoding="UTF-8"?>
<svg width="496px" height="496px" viewBox="0 0 496 496" version="1.1" xmlns="http://www.w3.org/2000/svg" xmlns:xlink="http://www.w3.org/1999/xlink">
    <!-- Generator: Sketch 40 (33762) - http://www.bohemiancoding.com/sketch -->
    <title>team</title>
    <desc>Created with Sketch.</desc>
    <defs></defs>
    <g id="Page-1" stroke="none" stroke-width="1" fill="none" fill-rule="evenodd">
        <g id="team">
            <path d="M248,104 C208.296,104 176,136.296 176,176 C176,199.992 188.152,222.496 208,235.8 L208,264 L288,264 L288,235.8 C307.848,222.496 320,199.992 320,176 C320,136.296 287.704,104 248,104 L248,104 Z M248,192 C239.16,192 232,184.84 232,176 C232,167.16 239.16,160 248,160 C256.84,160 264,167.16 264,176 C264,184.84 256.84,192 248,192 L248,192 Z" id="Shape" fill="#FD5C60"></path>
            <g id="Group" fill="#273F5B">
                <path d="M112,144 C112,120.096 96.912,99.704 75.792,91.68 C92.4,84.12 104,67.408 104,48 C104,21.528 82.472,0 56,0 C29.528,0 8,21.528 8,48 C8,67.408 19.6,84.12 36.208,91.68 C15.088,99.704 0,120.096 0,144 L0,168 L112,168 L112,144 L112,144 Z M24,48 C24,30.352 38.352,16 56,16 C73.648,16 88,30.352 88,48 C88,65.648 73.648,80 56,80 C38.352,80 24,65.648 24,48 L24,48 Z M96,152 L16,152 L16,144 C16,121.944 33.944,104 56,104 C78.056,104 96,121.944 96,144 L96,152 L96,152 Z" id="Shape"></path>
                <path d="M267.792,419.68 C284.4,412.12 296,395.408 296,376 C296,349.528 274.472,328 248,328 C221.528,328 200,349.528 200,376 C200,395.408 211.6,412.12 228.208,419.68 C207.088,427.704 192,448.096 192,472 L192,496 L304,496 L304,472 C304,448.096 288.912,427.704 267.792,419.68 L267.792,419.68 Z M216,376 C216,358.352 230.352,344 248,344 C265.648,344 280,358.352 280,376 C280,393.648 265.648,408 248,408 C230.352,408 216,393.648 216,376 L216,376 Z M288,480 L208,480 L208,472 C208,449.944 225.944,432 248,432 C270.056,432 288,449.944 288,472 L288,480 L288,480 Z" id="Shape"></path>
                <path d="M459.792,91.68 C476.4,84.12 488,67.408 488,48 C488,21.528 466.472,0 440,0 C413.528,0 392,21.528 392,48 C392,67.408 403.6,84.12 420.208,91.68 C399.088,99.704 384,120.096 384,144 L384,168 L496,168 L496,144 C496,120.096 480.912,99.704 459.792,91.68 L459.792,91.68 Z M408,48 C408,30.352 422.352,16 440,16 C457.648,16 472,30.352 472,48 C472,65.648 457.648,80 440,80 C422.352,80 408,65.648 408,48 L408,48 Z M480,152 L400,152 L400,144 C400,121.944 417.944,104 440,104 C462.056,104 480,121.944 480,144 L480,152 L480,152 Z" id="Shape"></path>
                <rect id="Rectangle-path" transform="translate(380.024623, 279.999956) rotate(124.298712) translate(-380.024623, -279.999956) " x="273.519536" y="272.000062" width="213.010173" height="15.9997877"></rect>
                <rect id="Rectangle-path" transform="translate(115.992119, 280.003681) rotate(145.713984) translate(-115.992119, -280.003681) " x="107.992966" y="173.504797" width="15.9983067" height="212.997769"></rect>
                <rect id="Rectangle-path" x="134.392" y="16" width="227.216" height="16"></rect>
                <path d="M284,248 L256,248 L256,198.528 C265.288,195.216 272,186.416 272,176 C272,162.768 261.232,152 248,152 C234.768,152 224,162.768 224,176 C224,186.416 230.712,195.216 240,198.528 L240,248 L212,248 C200.968,248 192,256.968 192,268 C192,275.12 195.76,281.328 201.368,284.88 C200.52,287.096 200,289.48 200,292 C200,303.032 208.968,312 220,312 L276,312 C287.032,312 296,303.032 296,292 C296,289.48 295.48,287.096 294.632,284.88 C300.24,281.328 304,275.12 304,268 C304,256.968 295.032,248 284,248 L284,248 Z M248,168 C252.416,168 256,171.584 256,176 C256,180.416 252.416,184 248,184 C243.584,184 240,180.416 240,176 C240,171.584 243.584,168 248,168 L248,168 Z M212,264 L284,264 C286.2,264 288,265.8 288,268 C288,270.2 286.2,272 284,272 L276,272 L220,272 L212,272 C209.8,272 208,270.2 208,268 C208,265.8 209.8,264 212,264 L212,264 Z M276,296 L220,296 C217.8,296 216,294.2 216,292 C216,289.8 217.8,288 220,288 L276,288 C278.2,288 280,289.8 280,292 C280,294.2 278.2,296 276,296 L276,296 Z" id="Shape"></path>
                <rect id="Rectangle-path" x="240" y="56" width="16" height="32"></rect>
                <rect id="Rectangle-path" transform="translate(196.000096, 85.938998) rotate(150.007099) translate(-196.000096, -85.938998) " x="187.999979" y="69.9387641" width="16.0002338" height="32.0004675"></rect>
                <rect id="Rectangle-path" transform="translate(157.930776, 124.030508) rotate(119.992901) translate(-157.930776, -124.030508) " x="149.930659" y="108.030274" width="16.0002338" height="32.0004675"></rect>
                <rect id="Rectangle-path" x="128" y="168" width="32" height="16"></rect>
                <rect id="Rectangle-path" transform="translate(157.930529, 228.006378) rotate(150.007099) translate(-157.930529, -228.006378) " x="141.930296" y="220.006261" width="32.0004675" height="16.0002338"></rect>
                <rect id="Rectangle-path" transform="translate(338.064071, 227.999461) rotate(119.992901) translate(-338.064071, -227.999461) " x="330.063954" y="211.999227" width="16.0002338" height="32.0004675"></rect>
                <rect id="Rectangle-path" x="336" y="168" width="32" height="16"></rect>
                <rect id="Rectangle-path" transform="translate(338.082015, 124.000191) rotate(150.007099) translate(-338.082015, -124.000191) " x="322.081782" y="116.000075" width="32.0004675" height="16.0002338"></rect>
                <rect id="Rectangle-path" transform="translate(299.993530, 85.915141) rotate(120.000728) translate(-299.993530, -85.915141) " x="283.994382" y="77.915317" width="31.998296" height="15.999648"></rect>
            </g>
        </g>
    </g>
</svg>